<mxfile host="app.diagrams.net" modified="2022-04-26T09:53:16.920Z" agent="5.0 (Windows NT 10.0; Win64; x64) AppleWebKit/537.36 (KHTML, like Gecko) Chrome/100.0.4896.127 Safari/537.36 Edg/100.0.1185.50" etag="uX2hMrTnFok7CahRUpnB" version="17.4.6" type="github">
  <diagram id="-EU-1xjROp4y-_7epeO2" name="Login/SignUp">
    <mxGraphModel dx="3431" dy="1143" grid="1" gridSize="10" guides="1" tooltips="1" connect="1" arrows="1" fold="1" page="1" pageScale="1" pageWidth="1400" pageHeight="850" math="0" shadow="0">
      <root>
        <mxCell id="0" />
        <mxCell id="1" parent="0" />
        <mxCell id="qCqPiDa-gBpwzuSDS2H7-34" value="&lt;b style=&quot;font-size: 24px;&quot;&gt;Web server&lt;/b&gt;" style="rounded=0;whiteSpace=wrap;html=1;fontSize=24;labelPosition=center;verticalLabelPosition=bottom;align=center;verticalAlign=top;" vertex="1" parent="1">
          <mxGeometry x="640" y="70" width="390" height="520" as="geometry" />
        </mxCell>
        <mxCell id="qCqPiDa-gBpwzuSDS2H7-2" value="Users" style="shape=image;verticalLabelPosition=bottom;labelBackgroundColor=default;verticalAlign=top;aspect=fixed;imageAspect=0;image=https://o.remove.bg/downloads/a106ca44-7eab-4ba2-bd88-045fb73ba5fb/image-removebg-preview.png;" vertex="1" parent="1">
          <mxGeometry x="50" y="340" width="80" height="80" as="geometry" />
        </mxCell>
        <mxCell id="qCqPiDa-gBpwzuSDS2H7-5" value="&lt;b&gt;Authentication database&lt;/b&gt;" style="shape=datastore;whiteSpace=wrap;html=1;" vertex="1" parent="1">
          <mxGeometry x="1610" y="480" width="110" height="100" as="geometry" />
        </mxCell>
        <mxCell id="qCqPiDa-gBpwzuSDS2H7-6" value="&lt;b&gt;Sign up&lt;/b&gt;" style="verticalLabelPosition=bottom;verticalAlign=top;html=1;shape=mxgraph.basic.rect;fillColor2=none;strokeWidth=1;size=20;indent=5;fontSize=24;" vertex="1" parent="1">
          <mxGeometry x="280" y="70" width="330" height="520" as="geometry" />
        </mxCell>
        <mxCell id="qCqPiDa-gBpwzuSDS2H7-18" value="&lt;b&gt;Log&lt;/b&gt;" style="shape=datastore;whiteSpace=wrap;html=1;fontSize=10;" vertex="1" parent="1">
          <mxGeometry x="1615" y="120" width="100" height="100" as="geometry" />
        </mxCell>
        <mxCell id="qCqPiDa-gBpwzuSDS2H7-19" value="Input filter" style="shape=image;verticalLabelPosition=bottom;labelBackgroundColor=default;verticalAlign=top;aspect=fixed;imageAspect=0;image=https://o.remove.bg/downloads/620b76a5-e1d0-419a-81cc-438a3dd1e6a4/image-removebg-preview.png;" vertex="1" parent="1">
          <mxGeometry x="520" y="200" width="60" height="60" as="geometry" />
        </mxCell>
        <mxCell id="qCqPiDa-gBpwzuSDS2H7-20" value="" style="shape=image;verticalLabelPosition=bottom;labelBackgroundColor=default;verticalAlign=top;aspect=fixed;imageAspect=0;image=data:image/png,iVBORw0KGgoAAAANSUhEUgAAAaoAAAGECAYAAABnKWSwAAAAAXNSR0IArs4c6QAAAARnQU1BAACxjwv8YQUAAAAJcEhZcwAADsMAAA7DAcdvqGQAAP+lSURBVHhe7L0HoCRHdS58prsn3LBJq11lISEJCYSIEkkEY8CAAWMbjG2CAzjiBA7Pfg8HbL//J/i3n/2Mn58TGNuAwRgTRM4IBAghARICFFCWdrU53Htnpqd7/u87p2q6p6fn7t3du6tdVN9uT1WdOhVn7vn6VFd3N4aABAQEBAQEHKOIXBgQEBAQEHBMIhBVQEBAQMAxjUBUAQEBAQHHNAJRBQQEBAQc0whEFRAQEBBwTCMQVUBAQEDAMY1AVAEBAQEBxzQCUQUEBAQEHNMIRBUQEBAQcEwjEFVAQEBAwDGNQFQBAQEBAcc0AlEFBAQEBBzTCEQVEBAQEHBMIxBVQEBAQMAxjUBUAQEBAQHHNAJRBQQEBAQc0whEFRAQEBBwTCMQVUBAQEDAMY1AVAEBAQEBxzQCUQWsOrIsk+FwOArzPHc5RV4ZVR2mvYyHT/M41sA+1Y3Jj8f3uzw+D5/HozxnRJqmGgYEBIg08Mdx7P31Bxy3oEFuNBpqdBn6uAfjnnySJHFSA2U01HEcqw5Dynz5KIq0vmMJJBSOw/e7PAbG2WeOpa7vflzlOfNg+YCAAEMgqoBVBY1uGYPBYERI/Kl5o014w+1lDD1JMY8Gf9++fRqy7Jo1a2RmZkbLHCvg+DwJ+bGXx+UJh/334/bwf3oM/dxwrhjWEVtAwP0VgagCVhXlnxMJxhtcyul9XHHFFXLVVVfJ/v37pd1uywMe8AB58pOfLKeddprq9Xo9abVaaqy/+93vyitf+UrZtm2b1vf7v//78sIXvlDjxH1tyD2h+DFzfLfeeqtceeWVo3E/61nPkvXr16vONKL6wAc+IHv27FH9M844Qy699FLVreoHBNxfEYgq4IiARpyGl8Z7aWlJ3vGOt+F4h3zzm99UL6Pf74+IZsOGDfK4xz1OSYhGeuPGjVr+5ptvlp/92Z+VLVu2KIH9r//1v+RFL/oJLUPc10RF0KNiP/zxL//yL/LqV78KcZFmsymXX365nHvuuY6oJpc6iYsvfpSSMufqZ37mZ3Sc9KwajbD8FxBAhFO2gCMCGmF//NEf/ZG87nWvk5tuukk6nY4SFQ0xParZ2VklpU996lPyW7/1W/Kbv/mb6l2QACjv9fpKajwoO5bAsXEs3vOhB8lxzc7OyPz8vB6ejJYjVS5nzs3Nydq1a5XcqOvLBQQEBKIKOEKgsc3zTN7+9n+Tf/qnf5B8mEm700Q4kMc9/jHyQ89/roYzIKrt23dKq9WRffsW5Oyzz4GHtVENNpfMXvKSF8sv/dIvyS//8i/LBRdcoHV7AuRBMvPXsBjy8LKyLmUMPdl5fcLrM/RxHt1ud1SWB0Gvh/CelAfjfrnO6zI0r4h/Zsv/qZX7Rl2Wo8y35/tFHd8nhiRwgnF/UI/hsUbsAQGHirD0F7Cq8MaShnRhYb8873nP1es2lJF83v72d8gjH/lIjUNbSerzn/885G+Xe+65R97//vcrQeX5QL0VGlt6KT4kB7AuxmmQSQxM06AvLCyojJ4MvRSWYR3siw8JTzDltCcY1sVyi4uLWic9QHo7vrz3nurAsu985zvhGb5ax8cyH/3ox3XpjygTG0F94klPulRuueUWbe8lL3mp/Nmf/X+jdqhTbpd1cIxcTuV1PvaNB/W8jh9LuUxAwPGMQFQBqwr/c6LRve22W5WozKguyvOf/3z5x3/8R9Wh8SQh0JgyvXv3bj3OOeccV0eu16b+5m/+RuU0zi95yUvk0kufpPUTLMtdgR/84AflQx/6oNx5550giEQ2b96sbf3oj75Arrrqq/LP//zPqk+P7Bd/8ReV5Hj96w1veINu3OA1sj/90z9FPxflAx94v3ziE5+Qu+66W8ewceMJ8tKXvkye9axnK/mwb2UC8OMlGD8couJ8cIxvfKMRFa9b/dVf/ZV6TdxkQc+Sc/mWt/yTfOUrV4FMF6Td7shDH3qh/NRP/bQ85CEXjvXJx31/AwKOV4RfcMARA8mFRpbGkh7OtddeKzt27NA87yHRmNKg04sqNh1w6SuSnTt3ysc+9jH5z//8Tz1IRB7U425AEg+PT3/6U0qM1113nXzmM59Ro/6qV/2GGvt3vetdctlll8nVV1+tfSIB3XvvvfLe975X3ve+94HkPqT9+bVf+zXdZfjRj35Urr/+myh7s3zhC1+Qn/7pn5aPfOQj6qXw8O3zOBLwdZOouSOQbZM8Sa7PeMbT5a//+q/lmmuulhtvvFG++c3r5M1vfrP8yI/8iHz84x9Xr9ITIsdZJceAgOMRgagCjghIQiQfvzWb9vLuu++Sl73spfIv//JWkMZXQURGWh4kARpWkgkPejskOH+Q0EhirI+exe/93u/JZz/7Wd0lSNAwn3jiiboURn16N29+8z/K2rXzrF2P4TCDtxOjHS5Fxmgj0eOlL32xfPjDH9JyXDok2Ae2Nz+/Rj0uenZHwjupIzzK4rgBj6mp/dy5czsI+edB9Nu1f5xXbkbhicC6deuUoEjYX/ziF0fzyO8gIOB7AYGoAlYV5TN4EshLX/pSXZ6LYgEhxPAAviGv/eM/kJf91IvlBS/8Efmt3/pN9QS4/ZwgObCOOI40Tk+HaW/MfchrWryeRTKjHg3361//ennPe94j//7v/y4vetGLVPc73/nOqA6CIfVJesxn+u6774aHco3uuvvt3/5teetb36pLjps2bdIyrVZTbrjhBvXIfD1HC+wjCXjXrl16De/hD3+49o3e4Nve9jb5oR/6Ic3jUiP1Xv3qV8sdd9wx8qb8fAUEHM8IRBWwqqBh9MtjXL579at/C2f6vyxJ3MLZPwkDBJE3JO1n8t2bb4Gx/Tf5iZ94kTzvec+RD3zgfdDpoiSX2Oy+IzowQ+HuPBpdu1eJ29ff8Y63w/tpQ0bvK5U3ven/oJ4Xy7nnPgjG/JHyhjf8mfzhH7521BeC/eFP3nbU2QYK1p00E9m7d7/85V/+b3nVq35THvvYx6M/P6Rb5blhIcsG6tV897s3oZxtuLD6xknLEwMPxs2zKQiWB0mSck/ChPcSfV99edsxCNJOSK6pXHzxJSDi98qznvUcOeec8+SSSx4L0vpbefGLXyzd7pL2cdu2rfKRj3wI3pTdq3YkPMCAgKON8CsOWFXQyHrDy5DG+A/+4A9AAn+pN/SeeuqpaoS5dEcd3kdFb4ieD7eg/8Vf/IUuYyGLteGfocwJ3HiwdesWrZ+781gvn27hjT0P5vFm4YsuukjbK8On2TfqLYCMfuEXfkGe/exnax08mMebkLmMSFSJhaBeGUxbnpEU0/QUWbac7/MYZx63wTPOpTpWybi/tkdipD49x1/5lV/RZT+mCd+f//k//6dutqAXRb1vfetbSrCMs46AgOMdgagCVhUkAW+EGXKJjcdzn/s8ed3r3iDvf/9l8KLeoV7WySefCoO6oIaX5bgV/C1veYt86UtfGpFJYWjNmyK41LW4uKT1sswzn/nMkdGmDuUkAMbPPPNMjbM/Zfg2KWf41Kc+daTn5bwG5I09D+b7/lCnHBLM5zUuilieJLV9+/axZUaCeZQxzeteJBXG2ScSN+NslyF1CTZLkqJXyINpvxmF16ge8YhHaBusl0uEvFGa/QkI+F5AIKqAVQeNpzfoBK+f0Agz5HWrJzzhCfLa175WPv3pT8s//uM/gLBOVqNLj4CexFe+8hWUcstf+EewPu9JWNw2XPDgw2q90fY6TPOg58Z2vS5BUmMedRknGTCPIetgnCHhCcUfJEw/Nq/jQflJJ52kBEewHm72oJy6DH1ZjpVxepLcvch2SGxnn33WSM90jayi2AiK82JzY2RLUI/lPdiu98QCAr4XEIgqYFVBg2yG0rwqLtPx4j7TnkzMAIt6D7wWxGVBb2gZ0nA7ldHiX5kUuOnBexxsi8TGOr0O45QTrI9x5nnvhKEnK98fHjTsDFmGIfNJKB7ULbdRDVnurLPOkhNOOEHrJ2FxcwfH4/tAsB3qUocbItgflueYHvawh2m6aMeuZ6X9tLRLsiBT1kV9LvcxTbnfEcj+BwR8LyAQVcCqgwaSxpPeEXfR/eiP/qjej1Q2+jSw3mBzSzmNLMtQhx4SoRzgCIvwBpzXY0gGXsabiLmERsPv66WcGwz4EFymSQQ8WN63xdDXwYN9oYz10Hvx/WM5Xy/hy3kwTR3WQY+Ky4i87kRPjiTN626+fRIJQV3uWuQ9XLwOxnHzZudHP/pi1SOsHesrZazHCMrKc37ZPz7sl0TFeWffeT/a3Nz8iMwCAo53BKIKWFWUDTKvNXHbN6/TvOxlL5Mf+7Efk7//+7/XRyZ94xvfkK9//ev6RAneaMslOhpVGt7zzjsPcZIKDTYMdYObDEg25qnxyRPPfvZz9NoOPQdes/q5n3u5XHXVlbrrbceObWjjc/KTP/kTcvvtt6tR9wbbCIdkYcTDHYhZRgJi/cWyoY/78bCOctqTk6+X/SYo+5Vf+VVdziT58LrSv//72/VpFZdf/lmM+Rp4gF+WN77x9fIHf/Aa9GGA9um9teT3f/8P0U6xhMc+sfpsQG8tkRtvvEF+6qdeKl/96lXqpfHgVvzXvOYP4I11tA7W9aQnPUX7ZeMoMX1AwHGK8AilgFWFP4vn9ZY3vvGN8qY3vck9MZ3XgeyBqp3OjC5zkTDoedAzIOEwPP300/VGXb6fik9bf8UrXqGbA5hHj+LHfuzHtQ16UD/+4z+mHhOXEJnPJS96W4zzqQ7U4TIhdxESz3jGD8hf/uVfqf6XvnSFEifbJUny3inmew+GJHbvvVvkkksuURLilvg//uM/VhIiaXh4oiI4NjsyfZIGb0hmXymjp8N54LjZP5IY5ax7cbGrN+tydyTJhXWyHImXOxe5s5F67DfHdMIJG3V++CzFO+64E3XzLcMtvV+N963xfjJ6c548y30MCDgeETyqgFWFX6aiwf3VX/1V9Za4tLV/YZ8+OT1pRpIOurKwuBchb/JtyJo16/Q+ppNOOkXe8pa3gmweAKKggeWTKBIYXBpdO2jAWTefz8clPy6XkRRJOCQ9PlaIjxraunWrkhy3mHvvgnqMG0HwBlk+pYL3YvEJEDPqzXijThIlWdHge/IwErJjGqhHr+YFL/gx+dM//X+0brZDj4fwy5+sl/WQJLk1/nd+53dU5knSt0n4Nv/kT/5Evcldu7fLjTd9W+66+w5ptiJptROMfQFE+wz58z//c3diYNfmeAQEHO+IX8vtVwEBqwQaVBpYHvQAeH8T7086/4IHyaYTN0kDhrgDUmk2WzIDz2rz5pPk/PMv0Ofp8TFFfOMvQYPNpT16TDS8fEoE6+KyII0v89etWytPe9rT9HoVl+9Y54lo4zGPuURe9apXg6h+Tq8BkbhYhg+lfc5znqtl6SFdf/31Wi+P7//+71dvjCTBfB70ZLhRg56ab/+hD71I88rjrIIkwXr4FInnPOc5utORZUg+MzN239iZZz5At9X/7u/+LrymlyvR+rqoSw+Mj5yiZ+brI/G+/OU/K4N0IHv1Ff12f9WZZ5wpL37JS+T3fve/j+6zYl1+HHV9DAg4nhCW/gJWHSSFsnE0YmngrL+nBMGnftMQ85dHA83lOR405Pw5eiLgEhn1WZ5pGniSH8E0l9jYDvN3796rxMI0jTW9OMpf8IIf0Yfhss4XvOCF8vrXv0HboWfjH5DLukgmZbKwa2K5XuOinHXxfiVuUqDnxTLULY/Tg3me8BjnOEi67B+9OpIL6+R4GOdckIyo78tTdvXVV+kbf/17sf71X/9VnvSkJ6GeJZAY75XqaZk1a+ZBpJu1LoJ98v1j6OsNCDheEYgq4IiAhr1qyGl8CRplEgUJg3pc8vL6zONPkoaecZbxxMK0B6/PvOY1/0Me+9jH6pPDuUToDTP1We6yyz4gv/7rv+76IfK6171e3/fk9XwffFuEz6M+iYpp9s3nkaT4eCeLTycA79WwLPWY9u0wpMz/6fm4z2MZ9uvLX/6iXnNimvncys7xcjmRuqy/XG+5Do9AUgHfCwhEFXBUsNzPjAZ3pWA9e/bslle/+lX6CpCZ2Y583/c9RZ733Ofr0h09Lm6k4M3ENOx8viA9moc85CHyL//yL3LKKacckGSOFKbNQXX8nny4maJMVP/2b/8mT3jCpdCwEwAevs6DmcOAgOMNgagCjgqW+5kdjJEl6RB8Vcjv/M5v65Ihy3NTApf8SEBcYmN79EpIVNwq/u53v1se+MAHjtq6Lwz7tDmo9oUkRV0SFbf1k6h4kGgvvfRS6BdPy6DefTGWgICjibAuEHBU4A1r3XEw8NuuX/7yV+ibe7mdncZ6ZrYtg6wv3d6i7oLj7sL5NbO6E4431p599tkjT+W+Qt3YeVTh5Vzi4w5CHiQn7lD0S5wBAfcnBI8q4LgCrw/5m3FpsO+443a59tpv6Jt8eQMsr01x+Y+PMuIOwQsvvGi0sYIeFkN6XcfytRv+SfLgFnv/RA/2l94U75/yCIQVcH9BIKqA4wpGVHZwJyGNOL0syyu8JXpd3C3nd/JRnyF1mHesw4+RffZj9BtLiEBSAfcnBKIKOK7AnyvJik+6IOnQ02Dof8VM+5902ZZ7kmJ4PBh5T1LeAyyPlWEgqoD7EwJRBQQEBAQc01CiClwVcLyjzsMIv+uAgNXFfeXJN3KuozAS/tADjmOE329AwOrhQH9PR5uwliWqgIDjBdNIKfyuAwJWB9W/saP5t6VEFc48AwICAgIOhDI5BaIKCAgICDjmsBJyOhIENlr68wikFRAQEBDgcbDEc0SIKuPzWaYgcFZAQEDA/Q8H4pqVktFqkVaJqMYrNM9q9ZkxICAgIOBYR93Djsc9l5WQ0GoRVemBZ6yQj5rxnlQgqYCAgID7J6pc4I/7BiOPik9qriJcrwoICAi4/6HOEzLROCccyGNaLY+qMRhwM8WQjp4TFagSlW/UPbz6PuTXgICAgIBDQdmqN9ya2jRbX4aXLMc90/IOl7CUqMa7OAk/iNFg4H3xXxmrxZwBAQEBAUcGZUKieyINS3v7fSA7ztzldXhty0VLWHWiqjKrdY3gawdGUeDwGg4ICAgIODogT0yYdiUqixmPFLa+jDLJFLFxeQF7Q0EdDoesxoiqOpBq2jdUJbNy+nA6ExAQEBBw9DDNplfNuE+XxfW2vngnXF3+ofKDERX6WL1G5TvOin28SkjVwQUEBAQEHPuo2m9PIGW5l3kgBzKXcKjqlImKmMyvlx0Ite/jLg9gJVxEfX8EBAQEBBzbmGary+KV2POjZfMbaZqhLTCcY7npAyjkUzsHcXWTBVGz8z0gICAgYJXh9kZMYDglo+zdTPN0RnLY/cbY5gvvPfGt2d7nGW+nrspD8agaaR9ERccKZesIaKWyAtaJ5XUCAgICAo4kxgmh3h7XkcZUGapokJxctumRrBiasNpmTVW19R8IICpSim5UnMA0sqknLxc5CAQyCwgICDh4HJKxPwjSqJNTYitmsNsITMXb8EK/KGseV7WuQ+r7NKKqJ6OyzBobk1XW+HxePqVfdcuEAQEBAQHLo961EIm8GGQwZl1LS38FUdTJCkwQjB5eZp7V8uX80qBhJW1MQ6PfM6JiowcmpwJj/OQJqX5vRkBAQEDAfYioxruZxhFTCUVpAv9K2XrNqqYeq+MIEFUdQ08jKaKeqNjoeMPL1REQEBAQsLqoM/4HQ1RELan4f6WsaURlGL/5t7bO5TpRQqPXsxcnVonK+KWeZLLSEt+k3srvr7IH4U7qrrDvAQEBAd/TqDelJIuV2ViCZECbTLtaJYZ4aj3jhESQpFzEBazQ7sCdZrMLubVzqGTV6PWLN/yWCaZugqqe07j+ZIGqbFKHk8F6XGcdAQ4rLmNAQEDA/RENfzkFhED7qWZS7ei4LS0b++UMP/OKfO73tnrqypRF9fkmq7sR2KMoV3h0No6iQF3dVYyIqkwipaiiSjAkqrKomk8sV58H+2d6mC6Mw/QmmTwgICDg/gizifiATaRdbDRsOW05m+pRRwBVWdWjquavrL5copq8cRQeneeGcn11dZfR6PbGX0VfEExRYRmU1XlURPWdVnXlPSyPLGt18fBnD3XXywICAgLub9DlNcBWmWgX/REd2LiP5RvBjcvMo6qrx2Rmh6v55bTFjRE86upjXXXiybrqcVBE5dN1RGVxkxdpQ7WeEUrXqIyc6N5qMiAgICAAMPttttWsKz6nXFuqGvsiXSy9FbLpS3+WXi7PYPGVEJURZRWTddVjxURVjrNbZUIpl6mWI/yLFifkICp2LopwxGTcenYPCAgIuL+CdpO2Ms9w5P5a1bgt9XZz9CSjEixvkqhYT3npr2x7LW55ZTkxmUZ/XJyo5htWgajK/FFO2Lt/i8LlPIszz/KVjDRK38gmJcfkqtPUiFkAAsihGIOYEsjbbTiwUSRxjHzA11/X4bFOrhCrVU9AQEDAfQlvy7IsgxnNpdfPZQBzqiaV9pUMBbsKNrMLKCQPmDo+g49laZ8LEqMNHHcKxm0lCcxFgXE9FwHqy48TEmPjdTO9vA2u6hMrJqqqgbe0dsPiZCR0gHHNwaww1KxhBi2QEyaqCYZqIhJxJjB77JTvmG+jrqPV9leC1aonICAg4L5E2UaqDYN9pXeVgq3SwRCkRTm5yk76nbYeWtbZZ6unJC+hSK+MqAifV+iYkzKS62c5n/HlbXBZ16Ox1MUoLTphxKcRVRFnGRel9yQDSDhRnqTgW4GMWtFQkmYsraYt81FTyStKtKiHr7euowEBAQH3N0yzicMMJ/mRs7Mw1D0Q1iDNQFrmQZknRc0cOnQUYGsdQZh8st4iPk5UhOVNL1PI6omKKHStnmko1+8xlaiUZLSZSXkRWr6lGRpRMZ5hIrmi1wRBzXWM0KwktzIipp0dJ6rlUO7DSlE34ICAgIDjH1zzoyPAeEFMC114Wf2MK4ASxZRxhQsJ2NqCIBgWHlXZTlp8cjeglxdxQzluYLlCXs4dyQ6BqGouvR08lESUSGJ1R7mGijmSdjuSmQ49My6QYvCQ0aOi2zocrkrTAQEBAfc70MaSEXQjGg0rCIKymbZIB3Y3gZPANO1xw+0ROJST/TqU65lWZ538cNofscVKKjmQDvOpEoOlZmdiabfccqAyqE2UVUHGnGTNA8HKr+wICAgI+F6F9zrK9s5kqdrdTicGWdEhWJndPhCW0xnPO/y26tBY6hbb01kJr0mZO0nkkDH0y38cON1CA1c/h/CW1FFEdjYQaWGSZjoNSRLUxCI53FK6VyuCnQHQ44oauWQ4I8C5gQzyVHcG0jHjWYQMM7SXsMPsLdrBJxrTHtIFZlWaRoyJRh/1NOEO8+yCbrIq4D/qYRR1FfKAgICA4xO8dsV3fdCuDbKGdLtD6fWGkrQsn/aSn2YlYddpBtXwFbv1zLEwm01RdRkQrein2Uy7rMNsizub7PLKKNLsg6GqQ9TJJhikzHil6BjYFb4XmN7ncMjNE9bZZnMo7XZDr02pHstzqW+F8PdVyXAggwGvkHEpkbW3pNdne/DPeg1Ju7wGhnMHEE2KSR1oF2K4wCAzlB9AZiSKnkIv74LsQKKUp0yjz9TjUiXnHFK0O2WwAQEBAccLYG/NboOcYN5asMetltlqpRzaPp7YMznFNFt5h7HEJMp8cTg4UD2NxSW/mcJAh4ZERNBbMhhT2oYJwuKjbIfZGZGEO/ugRk1rnBf0psxICUU/2YEBiAheDipKcYYQJaAseFi9wRLqiqSVNCXKY+nujeTOb++QHd8ayo7b8a300IHmkmw4YyCbHhzLqeevl7kTUF3UBxXRW0ulFc2iLSMovQCpY0lBck20feB+BgQEBByrMJvrDDPsLu15BhO/uFQQmGbBReFzA72vwhP1ssej17UA2seqr+HVynZ9LK7lLV2vUxAHZZ6k6sp4TCWqYsB+gJwEq4AX6bg1sjGM4Klwm/kQrB3LbIeKWoG7wGdLgjXtjmDtWBsaxQe3rmcgoowPYIzg7dALylAfZHvv6cttV2Zy02e2y71XD6W/a630h11pxrzRLddXkKRZDGJry+ymnmy8aCDnPHG9nH9pRzaeDjJKWM1A+0wy5H0HXGbkN1c3QQEBAQHHCwp7yxNz2jVEISBR6W7AHCf9dLVg8/I8kzhyhORWlMwGGoExvhxREXXkUiYqohrXW5NKMg8vq80rExVJQ0lKiYPieqLSa0ccINJ5lmLgQ5npJCALy6e+EVV54iZhHhvrtzaYZLuYQpBNJAlc1l63K3NJWxZ3DuWaj+6Wr729L4NbcQxE1p87J6c8eignP7gp60/hTcTwm7Km7N6Sy5YbUrnzSpFdNyxJE12JTovkkS9py2Ofu0HmNsUykK7EzQ7qgWuM/rMfUzsaEBAQcBygbG/VoXBmLc3gVXUzGaQCcsLZOs/7lajMTk8jKtRId8PFDaVoRW5xt7BYm2cYJzKPUfm6PCUq6yMCkoQRlY4YKU9OmlRS0RT+oftwv+g+cg200+YFugQa0HftlCetDCNBhp6o6HmhTiUqTKrzqHK4UgkE3W2xvO9/3Si737tWlpqpnPSoWXnKz8/LA5+K4pj0mN4XaN+mF04TIiw7BJvdckUkn/7Hrtz6xZ3STpty8rN2yUt+/8HSOQUN4ftK+w3ptDgi62jdJAUEBAQcL3Dm1Wyvi2eSSrc/lH7P7C0vq9C+I6b2uo6oWAHZQInK2cdRMApdxIFpT1ReST9LenVE5uFlE/WWiSpDnjfYXAP0hEKUCctct6Z6VkmSydwsyIL5/F/TeBlWpx10Q9ke687QXsY08nPu6kvhpkZD2Xa9yEf/512ydP0a2XBRXx79srXy0KfPSrxGK0NptsepxOC5VMgJ1nu0eJsbiBay4UIk3/p0V67850W5+5pU1p4ZyfP+5AQ5+TGptOJZHCzrvhiGAQEBAd9DoFORgYwWFrlRLVZPSq/NN3C2Pro+VfF03JofrXTsqQAi0zGB12dI282wqMMRFlDIWG0RL7fpyxNlfeKgiErT+M9KuPxJbup04JFwA4XTQ6aL1IN1+Hr1obWIsi57wKLVP+h3pdmZkZ135vK+V+6Whe925axnizzz1SfJ+jP70stSabd5JzGvSuGI4Ryx8ywfg/SUp3AmQMID8fT7A2lDvu+uWD7yf/bK1W9bkk1nivzUP2yUDRe0UWwgCb44bm0nqpMUEBAQcFwD9pC00U15OYU2mPe7Ug5bN/KmCqJQHENEtSL3gYMaAyrhU3w5jpbeI6WbwVW+HIykGDqiQ7wgKRBlZkdDZuTebbvkw7+9Rbq3ZXLuswfy46/fLLNnojw9oFZLBpjwBs4G+Dim5gB94I6LJEUrmSSDBiaWlNuUfCDSBpEOo5a0TxnKC/9gTh75EpG9W2J5269tkX1370XvE5xxlPtUkGlAQEDA8Q6zZjlO2HlCjhgNrVLQuJ0zG33s2b4VEVUVfiDcpGD38h54YL4MA3/w3jTvSWUZl/xMxnumrvnboez4Wk8e8PiGfP8fnyTZHAiJXqqAjLIZSeKW5A3ddK7Xo1KQVk/aGjLNRUBwD/TwZeRNfDldaaHD0YzIc35/s5z1AyDD69ry/teh/H7eQFz0yyOQVUBAwPcGaMuGwr0TCZiKLoXaN7V5x76dWyFRjQ+Ez+7jY5L4iA6ydOMAA/X3Y+m88GASXhWvSylJweth3NQasu2aBfnaZftlzYY1cskr2zK/vglpgnagABJqxAMlNe6GoN/E5b8mThBadKpYF5cUtSaSIMKojziXJ5loysxcLD/way3pnBnL9R8Yyrc/vaD9YfXjQ9EOBQQEBBz3MDvNfQWwhXGsdryMA5jx+xQR2dT/U+uuR32PfTYpgKt8/gkUxZJffTmCVfpqGejymhKVpZnHjfLDvsjXP7Qks7tyedDPNuT0R83Bc1uSiPogmWHWUfogWQ3znqTbm3L1O/fIP718i7zpB3fKP/3sFrnybbukdy8vFi5JI+HImiBDlBtGkg5TidHoaedG8tifXZK8G8lX/qsvvYVMnzHMzmhfNeJcYwiUbDVjAD1Lc7sGGTOHnD6cdgwqrgi1MD7006Up140ilokQrIo4SVdlfk6EZRj3+kzD86OM/0blfZ/Y8YCAgIBl4Ow07bbtSvd2ewq8bdHAImp7fJY76sFMF10FjBbuYJMB+h2ILNcAsrkzTh82iwHbLjnPWNNQTAiNshp2GmQY8SyDZ8VdenlDeo2h9LfmcucX+zJ73kCe8qKNkiXcIt9BT8kCiCPglngSXbwQyXv+9C557x/ulru+KLL124ty55dE/uuP9si/v2aL5DvgbQ0womhgS5S8joW48DEiSSJP/YkzZP1DFuW7XxrIztu60tNlQiMHkhY3ZvJJiCQEEhFJlRe97t45sBeVcblyoDmS0i1E/s79+6Wf77N6+vxiIZce0iRW1s3xOPKBzBPXEDr9nEuZIGxSIdvtL6J9SNBOlpLAOH5mmBYnM8uhq6UCAgIClkOs9pom294dqOa/hIrhR1L5AAf5gZdSlgPtmN5kXAKLcPOE1WLHoaDa0xWBRpS7MtioZ9iVQG0sDvWiEGZZi6YX/2BsMQvwe+T6z3Zl95ZMHvncTdI+WaSF3AgTTK+ILUZNe/oE2/70P0fyxfcuSjOZlV7aV+9JdwS25uWrH+nLR/5PUwc45D1Z8Mp4QpE0ZtEPu37VPGEgT/3JGdmxTeSaj7EtI4U4Rp+gQEJheT59Q8ccNWSpn8h73/91+dRX9kieJZI3WX9fOnlLuo1Feed/7ZD9izPSW9wjMX4RsXQkW+KzBVN9lFOUg/xAYGBg9In3ikGHnJOiTzzVQSeTDGOFrBHP6M5F3ismTQj6XOSMZJAuoVGeLPD5hrxwd0hfY0BAwP0MtNe0nbTfsELHDQ7ZwilVcLDLEJV6Cu4gOdlyHwmrIQMemCrK6FnxRV9xT+TmL6SyZr4tZz1pTrrDRYm415zlSWkoo7Eslmx/Uz72lm2yPlor6aAPKSgtn4VuC15GKmth9D/59tukv5slWC6RBsgkgocVNVO0netS4/lPnpW5DW25/lMYjz5ihM2xkxhAhLLoVzMBccDbG8Br4puKpTkvX77yFvmO7hjsg8nQNvLb6Gq0dgntD6Q1MytZsydL0pU+yCxF37knkfMWNyNJo31cd5VskINcuyDHRFogyWG2H95aX9IEfYT3px4rvTL2q5XLPpBUBgLjw3iHqD0b0DM7nn5yAQEB9xXUXvOM/TjDIREVB0vvwg9Xvatlxk6bT1PKOeJSGm/0JQFoPTCygxReBsLenli2f7srMyfkMn8qH0TbgRK9DHhVDXhM2kYscTKQXXensrSrCZ0eyrcxklTyZD/UB9Lv0ZOKpLtnrWy7ncaeW+m5PAmDj97Q7Y3hssQgt/amRDacOpC7v9OT/TuRi3H1M3pQBQnr1nV4NknMJcFMuoOuPOlxJ8lnr9gii13QYJSDeNC/Abyn7oz6f3xC+3Xf6ctlH7tbPvrRrfKZz2yTHfv5IxnI1p2pfPILe+SeLUO57OM3y9s/vEU+/40dIOahfOXrqfzH++6Ut7/ndrl7N/oLGfuyd5/Ixz6Ouj6+Vz7w4bvl1juXQLRN9AleFuYnICAgYBpoO0f3KOHgcpy3b8cDDtmjUmDEBxos8+mgMCRh6bIbPSslAgqQlzUR9GTfNnga+3oye1IiUQueD5fcQAJcHuM7p+jpNKCf50vSmYFHluwDMbWUiLiMuLCQSJqS2OBlRC14JEsyswb5w74MQYb6lAq9c62jj11q5D1poJ31J7dlac+ibNuCvoGoUvIZwP41+NQK9C4aRtpv7pyZbc3Juaetl/POXCfvePcN0kcel/SGSUParS6mBe1nudx11z1y6ePPkGf+wCkg0Ug+8pG7UFdT9mepfPHam+Tyy/fKBReeJo998ulyxTW3yvs/uUVuu2u3PPVpZ8rMfEved9lNICOMC339jw/cIps2r5GnPWNeHvWY9fLhD18lW7fy+l4TtGg/wICAgIDloPaa5uI4MxnLENU4ASnh6GHpwp8ah9crYJoUGWHhgIQaoAX1VoSeCj2q3kCyXi5xZyhNvuiLdfEFHVYIhDQEIXFjREfWnJLII590guxbQF2QczNDE4XsPrZI9i705GFPnpMTTme6iYNLZCDEHKTFyz7we9JhT6JkKO35RAYouLSHlMTt9ugTOktiJL1mIJYIdcQgPz7+fomPIckiufSS9TK/YYN88JN3SH/AK22ppCTARluajVSe9pRzpB2nsrivLxc+bK3cvXOf7N1t18C2Ibz0KW158BkzctaGrpx7yhmYhoa88HmnyUnrIvm+J54qS/0Z2bd3QT7/lR3w+mbkYRetlfWtGTl945w86wcfKx+47FrpZRgPr/GNzXlAQEDAdHj7TQs7abOJGntyABNjK2uuXtVdPZtUIiprQIegjbGRuoZAM7TjLs93rA70mqxe09Ea1ZtyB6/JwLCTjGTYBon0dIMClwP5L2+AGPAvYkG0w/dIJU0aZRhncM8Lf29G2qfwBmEMIwHZcQmsOZA+vKr2iS150e/OSt5EPagvShZBaF19TBTsutUXzWrdfE9Vls9I3mfduSTcFQg5VfmWzAjeEFNGtKnMdGaUbNrNpjz3aafKvv2pXH39XknwT+i5QbsHQvvCl3bJpy/fKVd8/Xb5+pe3y+LSnPRzEDHqXD+/WTavm2OtEkN3ZiaSB57ZlpibJEDeG2bhwUUJPKZUrr9hp2y/pwtC3CLvuuwOuewjW+Sq67bIrh68swU+UffwHOOAgID7B0ZEgn9mx+0Yh0lN1/SLcOWYrLdovw7L5dVauOXPzkkYLroMvI7WNdK3jliS9fCGXdBUryfwV3QHW6PVlN4iWEhfmMjyMXpJPwe6DRBJDl8on4fBz2TmQS35hf97gmx+SC79pVkZ9hoI27L+3CXI18qGizq61JeQ1fprQIIdTEZHN1Pw+X66TgtPaP9eLgnOSWuGHh7azJpoi8tqnDx73H0GD0kitI9+LiwtoHxXBhjOWpDg0598mlz19W1yz+6BdBI+9HEon7j2LtnavUd+AET2zKeeIU96ymnSae8ERy7IoA/vD7Emd19wTPjX5dZ0fU1KA55bJL10B+I99KMlndmunHn2Rnnko9fLpU9cI5deukG+79KN8guveKCsn+U20+lfcEBAQEAdDmTHl+eBo4sJolquczTYY6S3wnEoV+l2b4uznIUkA3oU8B5g3OfXt2U435fd23NJF3mPEUw4XB4+ip4797innGEWdyWJ+pKnuTzg4kRe+bbN8iv/Nicve9O8vPJfZ+Q33nmSnPNEPsuijzKppKgnT3CGEHH5b4CB0GPiM69AkmlPdm6NJWv3ZNNpICh4POAeLjhirFzGY7+5EQPeFUiM73LhK/ezCN4dBFGzLSefGMkTn3CS/Nu7r5fdPTh3cS6Luxty8swGWcP7pAZN2bGzpwQ1TFAugfc23CcDTgKXCqWt7/LSL4MP2oW4HSfSacyjP7Fc+vjTZMsd22VdNCenroll3VxT7r6xL4t7MZYWn7fByQwICAhYAdT2WtRs+vQT3WOFrKauGVU7WB4M83z+8gMxPWr4MlT3O+r44i4a5STp6Dbt1tpcZs7IQBxd6d0LL0jLp3pNCb4SDDLfJgzPK23KPVdH8r4/3i9//0tb5fYvpXLGQxN56LNn5JxHt2Xn9ZG89dcG8tbfaMo1l3H7OA6QYRTBc4sWUR+GzZFnPUn3teWuWwey7gELMr8JLYIMG4nb8MElQqqBRHndKuFSXD+DT7UPaXh26Hsa7QXRtuQR526Qx1/6AOn1F1CiL09+zCnyjev2yns+uU/e+cmb5bqrd8iJa06WG761H8SFuex2wLucU5DgYCBtkGiUg+VIyBHayjsyWLpXSfzc02flwnNPkP+47Hp572eW5B3vu1Vuvj2VE06chX4P3w03fAQEBAQsD2+vvU32qJJVOe9YQGNhkf4GYyQPO3Baj1Av5OhhneaZPkN4NBkfEJvL2rmWkk2sz1KisaQuAoUz9hDkfPoE4ilDVDvAQb0sHUCWoGQqshTpfUdXvWUon//b3fL839kkT/0tXq/JYbSbkiaZRFksO+/I5b2v3y9f+q9F8EwL/ehJf6EtM5sTmds4kKU9TVnYwq3qC5LC2NN7uvCpHXn5n7XlpLNBcgnyshbYcSCNLJdP/FMkf/3rO+W5r+7Ii/9wDkQUw2OC9xM3hTSQt/rwd2Zk0OjqPV0x/t2xN5dT5zEGvv6e91qlbYEDhHEMZMc+kQ2zfI1+T3Z3G3LrHTtkfr4l5548J7uXUHoIUmzOypbugpy2YR6ER17qyo69kb4uZabdlH6USRtzfPdCLhs7TWlhrnnD8pbtDbnjjr5s2tyQ00+ah9e1D54o6kgS/aEtd2YUEBBwfwbtM2wsDDDfzr5vMZV+2oDtps3g7T9m982G0IjzGhXtOi99MA4ZjDZz+fZ2T2Rmdyz0siKft86M26VJG+XbHEdVpkTFCIfBbmhX2IherKFGQVQWkoCQwln8mnleROLA4Z44XYPXA1HBQ+ET0fmSxRSeBJ8qoU8bgkqeclt5BDkEvJeqMZC9Nzflbb+4RU44vS2/cdm8tOZ4I2xf0mZbvvuFTP7213ZI/x72EYTHRx6BOLRfbCNNwUvwejQbpMQt46i6O9wv7U2z8qt/vlYueRb63F6Q3nBGGkup/I+nLclt32nI7/3nGnngxfSiInh4qAfGv8P6G6k0+aR2vfcKFbMdjDfG/OQI6WnZw3IxcyBgynT4PEA4nDftELykHHNG76fBZVC9D83mi9vZMz7hPUIePDXqRSgzgMvGJ0fxPVncWm+bJtBHWULY0bZztGuPKMG/ypcbEBAQQPCEn+ZGH3EEAtq/wMfXRQLOYq6zHY40aE+ZhN2hTTdW4CUYw8EQleWzMoNWW0qP2qygKoONKwtYueuAVanxMaAD2nUaSY6ZhlnLVOspAVnVmrQlGnmEsb5lsgHj3JL5U0ROe9Q6ue2aWK54V1cJLk/asvvOXN71Z/fI4t18uGxX8uaM7N63X28cpoenrwuJmvrEC264yMGOveEOyBqStJqy685E3v7GPXLHTUtot6Pe0afe1pNrr8zl7Ic35eRzQZQDfGsw/ENuvgCTDtBJ3hTMSacvpaPAN8urSo0oIRUaSUDGd2OB4Tg0G6x+q64Mq0Way3j6un4uX+IfR28zwK3v1NQPzYMyNBHj/EJmV7D8dwOSNSGkrpaaLzsgICDAQPsA2w17QrvNhy6ozaiYaoPZFINaaosC3s4w8Md0TGbWNrcC0PqNGh8HB+KilQYpp7fE5TwaUF0u1P/jeuMoD74eysJxLuc8M5L2mlw+8sZF2XpDQ5YGkdxweVdu/nIHbQ4kBXl0e5msmT1ZHyHklxa5S49xLi3ScxtwyRCubtprykxnKN/9Wkc+/14+diiW7Tek8p4/y+GxrZHHvwhOFtf5dBo5bjumYbk8Ekvd4es8nKOuXh7MCwgICJgKmAhzDOwSDm3tpNlwAg0mbcp9aWeUqIiD6YSac6gP4LVwIWo0qANVUc0fa5NeGidT5IGPEDnjCbl0723Ie1+/V2RhKJe/d7/EvVjvQxrks8IHvLL9AdMow0cWDeBJ0aPi09hTekf5Jklx5tCHu8UHyzbgiX36XW2uBco7/mK/3HHrQM56TFce9WwSG++hKrroySEgICDgewNcwBvq7TOEfa4M97UtHBEV4Y3zsnziQBeSGyPoRk4UOACsvnEiYNS33Y478oxfBsls6MrXLhP5wOv6suWGGenleyRqzoJ4MMnwoJa6S5LHTSUmXfrj9TDEM4QDvjZj2ANxoZNxLN1uC8Q2kB135fJ//tuifPDfOhKvbcivvm6tzK7voFXnnURGmIRfc/V99UdAQEDAcQeYLpq0QWZLgFVUTRuTx4rNaywuGb2SbxjhYp7udFCp+Usa4/KehpZNo55lfZmbaUmr5QaFf/4iGg3/aDMFy+CDu/6UUMAdA8iZwfcskfCGyOMtThm8pLybSa8RyZZrBvLeN+6SHbeBvMAl3HAwAJFErIDP9ItAWtGibWLQjrJ9a48dSgc9cNSM5I2BZHxq+hAdjRakl3Zk7tSB/MZfz8vDL25IF3U2W7w/Cjrc3QI0W0OMEXLUw+tL/F5158s4twcEBAQc86Alp/VKU5H9i33YRT5OjhuxaNdMx+ybmk77ZAQK9MM0qnLqMeV0XWGG/sSe3GBxW16sEp3tMPRY4WYKF1pHULm+rtgpWbMIXaOjxjUkYumDaEhGdK2K102woxpwg4lVp4cNmEOHhskiG4xuYnCHvnMKxLXpwoH84CtPlPnNkfT2z6HOpkQZn6g+I5hq6fIVGuDZAZ9wwef4ZTHOFpxHhXgcz+q1q7SP+vMEdUayOFgrMhfJK147L+c9mk+EaEiSgOkwYfQOtdvkQO0j++UpnGBHAwICAo5V8BIGby+ivYblUkNM20wPoaH2mnZbbZnmFXbdwsLa0TDT1isvONGBUCaYUczVeyD49usw2vXnK2Wo8VErk2AZq5Q7/0gqFjfmLQrqVmtHXizDprR+khFJjGmEvBeJRKVEBhnXUNtN3qs1I2c/JpVXvH6TrLtwD0ilJ91sp3QH+5SVYxAUJzHNu8I3TPEdU3wNx2DYx9GTxW4K7wkVxrEsRful31yQjQ/syev+I5In/CDKNpqSdHQPn7bLr0gDhcW1jzj8eAMCAgKOVYwb+yJOG8clP65YMUW9cc+mAto9FyV8vCAi2szp5TXP/lu6dBwKGkvdDH0uBkReoYn2siLkZyHn6zoUw0wf/zPTSXSLtRKOAvnQ4eQwSsLi6zP0OhIcGM4XSZ4kl7vlP929hwxuHe/zSerZAN4Qn33Xkp33LMhXP5DKlR+LZP+2FrydJW0ql44M4PXwLbs8k+CmCr3HCEw4yBZBXrzXaF6SjfvkGT/UlGf+ZCynnj2rzwqMZ5YkH7RkFn3ns/2iBN4VvSkQZzMeol3eEOdGg/zlvpiAgICA+xrePtNWWdyOnKtJXT5ggfbYjJq/zOHt2mjpb5QmvdnyoEfZBpaiKmd7WmaUkdP0K8bLlQpSx6V9eWJcB+kDERVhccosTeg+fIyAb+cdwujziQqdNrdKU4mHshbyQEYkEISjDQ9KWLyoxxCTCA/K7ofikesTj6I8lgjyNOUOvoZuM2cFCztz+crHunLFB/uye2uM/BSExRco8i283FSBMmiP5NWM2zK/eUme8iORPOPH52X95lziJvuUSKOZSrMJcsV3liDeiJoSgXBJtkZUcMQ0ztHaxFUnLyAgIOBYAm20N1OFDR/KUo+bz1Jk8pIIL5VwVasw6FamIApCbd6xRFQuroqeqHy6CMeJykSUcekPBACLPjcTSxNeCZ++QLnQu4EeX7/BZKrE5D0qeFEgIBIWX/fB5+kpaeHgazqSxkB6+4aSYDJ73R7IZE4WMM9Zb7/MzySSLczIDdc25LZvp3Lv7XywrEhvqSGtmaFsOLkhpzxwKGc/JJIHP3JOZjcMZd/iQG/8jVs9abVa+LLQx0YPBJWijXl9lQcfJxKjPZIT26V3xQmbNnkBAQEBxxJol+ksaOhsNi+lLPQyOAY5TsYjEA/tMgnCFQIsPkkUnqjqbN94+aNMVCQpkpVHQVb8tM5YGuRCFkKFfPstGZrk0plpgqyoCjaCnEeGzrAYNzlwQwOX+3Tpjzv9PFHh4M5Au+ZFr6rJDPSFcnhK/Z7W1cg68MCgk4O8WphwIE9RD5oj0bBJek1JM5cETMP3OfHZVgk6NYwZpwelpZxHhTLoK88y6CHSwyJZkagY5+OLPKqTFxAQEHBsAQYVMDMNu5kOpcslP9pOroDpo9j4gLnqCThJQpNjdo5Rbnyrs31lEfM90RS6q0hUfnu6BxMcJCnLBluQk4fmO5Hd7Ww6fEtuuxPpEmCTr3BXPRIfG23IgEtyaI4eFehA4/oiRT7yiMSleVwmZGjkw50qJDDdvo6COZ/fh3rYHst5NPicPAxOD4i5tZwnDnzBYQNkpDv5+Ow8yHnE8Py441AfykhiQiHqUJ8kpeVRl153Y/2ViQsICAi4r0DzCwuocbu0RHsFcwmjqZdfEE9xgt/TJT/uI+Bj3mCn8a+4FmVHGWbnqKMp86YY1ZS163UIbxfH7WNBPiMp0j7u27fcgpwOQFS6XxFFyJtWATlZicDlEGWyGpMrgbtKYdTzLFVPZBaeVQL3RUlFM1kfPCpusODmCd4zBal6VCQjvXYFHfW26EVZ3bxfl56XEhpD7ZfvG2stwLHxrIGDbCjZkJyQQZICkcV0eyHjtSw+7ZxExnVaJSiUYcjlPnpUrEN1reoxVCcxICAg4GiibNQNhV20a/W5wLarUxDFLRhRbylRzp18a7xURVGfydUGOonRDOrHv+I+KV/GSJJxk5eIyoVEsctQSWMsr4w6uRKVdcLYliiIqijgO0YUUcvXNHS5hMYqWI4k1cb8NFtWO5f0tE4MPedT1DFxvOlXvSeW0WVB6OnyH9PQVW+KcRyqZBPEfCRwuPbdJwfIMVoIqfeMQD5KXEpM9JJMRpLil2bXpnhdil8qJ5R1QP8gJjIgICDgaIF2UK0QzeLIHNG+NiSFI9Drce+ZWnKzfzk+GC+RFFE2ZWW7RvvHdB1RjesxXthd44kjQFRLXboxGtVOEFYNuuXlFlGMx/lZVJpmfbiYYCc+d28wUHKY7cTSanI3IDW4pEcyUnXpKSmhfjTI61e2mcLISglJSYrtU5Zj0kBUzDemAkazDpiMg+TuvZyTBcZRr8gRkM8zr4pxEpl5UImmoUdd/ZJMp27SAgICAu5T0ENytolmmDaSYZrmutRHE8mnT/CSSJr1zC6PYPbNo2zjLF7kwxwqPFF5c1+1i95WHlGiYie0fuQrQVieyVzPVkJWGld695RHwsmllSSScIMDSZ1tcZLxn9vVuZ2chKTvqUKaWeyAEhIE6k3xQOV8fby2rfHJwfgbhun66hkBvSgKSEwkIN3xwnzGcTiSshBEBbkt+7ETBUnVTVx5DgICAgKOKnhNRO1SpCtS9KJ4j9Qg5TUq0otRC0NvFw3l+LhtK+KFjtbEBNqwoLB71bI8zC4eM0RFjaKyEWlwyx2H0hhYUren29MpGrqzTnT7egLCsEGBqDi5jqhIUt7D4nxwuY+kxvJGUH5t1E9IeUBMQwIR6zaiQhzsY9etkOnSMXRJVFzuo54u/SHfe1Osy2qmgkZG8JNYno+AgICAows+3IDkZEt9KTeiwW4mES++kyhs2aqhD0DA4dNq3zxol2HjHAqCODBRmY31driaPlJLfxbVRsoNM25V2mDsVfSMY9CuFFHr3QC+Lu7607pIOijPi3EkhbkmW2VbXPrDgQ8+4Ry+jREXCUr7xSU/xFyzfE3+aMK0hmKyCR0o/3PHH0McJCVOFOMM/bUoT07sk5bRAq6igICAgEMCLadZz5GxpF3Rk3mSh88jmM902fBQj3Ivs7TZP5G9SygBm4gPy6XZKhWfTgKswUHjvJcIVnmkTwtt5ctcYPUVaY/JuPXHy4vcsm4x9nJ5j1pZlag8RiSjnyxIj4cyxskYRWXTiIpgPaABhBanm8q51bQjPBITdfhadVvmw4EwY1l/jUo/WKHL14i1i9gIKuGHznbxBfKg18RJUK+KHhXT0NN8vvOdRRjHP/tJBAQEBBhop6pQK0GDVAcvJiHArnjLoklNFyinGfXG2lfBJtQe4tAVKvSFGmbfXL2ujjpD7zFJVCRNWF8twzQtsaFcj8Wt7KTcYHFvR01e5JZ1TYcol/eolZGo/DxTwSdGQsC6b4RhUjQ0Rk5+Sa4efJ28Zw5ONpPqXTX4skN7qK1uT2e1zOM9U9DTG4PRjsrYtiMtbYlhKV6FW6bFYV+CfaFUtLMDptWJohxS3QGIsAzWXzNnAQEB90dMOSGnnSDGbAXjmmYmScRnOjuDD7U9zgDFsKmUe9lIHaDdUjmMFu0a3zDRRKOFXaMy2oGhjHkGPgWmR1vsoPbQCE/r931z8H1m6O276jk5MRm3+kdl9dNQ6BZ9KJf3qJUtS1RFhlZtSVbCreblyjwHu3IVmCfGPBIVY0Y4vD7FPMp5kMC4ZV0fpwRnS8mKcjpeiOdcAmQ90CNx6XdjgeYTowlCYHF+oT6NI7LdiBwRv+iRXMfFw1CtLyAg4P6OwsB6mJWwT0LtCE2GLvHZtXiTQ0fl1CjZHX+oDg7dzOXldtsMwfLMM3LhQwlIMEYsetlC4yxLyTjGZWWSYF2uLFSsKcgohmDUd4SFPRyvbzJu9Y/K6qeh0C33oaxhqJUtu/Tn01rOvBydDjJFiZzG465sCUx5EVvT4q499a5YL0kMCZPh/IIeFwiqvFRo17pMn0+swKf2x99SXIb9GPjpiApdZC/1y3HdHeu1VuEmiAHSNtrJSQsICLi/AQZhBabAbKwpqq1xZbztZWA+DOJKSi5OW+N1IPerPZrWgzLaNLtkwbc9sE98UIHaOSTNIo5j0ugXJMG47pBm3a6+URWuXg+LW+ak3GBxq9/Li9yybtGHcnmPWtlymymUIQCVIK35iCpRcLpHFZrJ92V96GFLf6wiUqLS+aBOI0aekRXFrNeTlt74q3qRhtThU9hH3pQuA6J914Vqm75v/DSPyn4IdJsJnpwoKNc4P3BAiWV8dkBAQAAx9RoVoNbG2xxvF+k9uaiGOEgK6hk5mFfjyvA/D0dguuqDT82DfWPcNoGxH1wR0iIunzaWZDbeR98XH7IcYfbSrSoh5tvwWmRKb1OZZ+VLfXWYjFv9Xl7klnVNhyiX96iVTfOoiHJavRkXr+qNozRRJBJXL0vwk3ElIKY13+rj9alRnPlI23IgdDSkN2YFtT4NrcxYmyOUJ0M/XejTAQEBAauPkX1BWLY5hQGG4RoRlB22ncx0yrrkJLW8Iz3m05PSbNUz6+d03OYInzYUtrAKPpxWwbKuT0SVLCxt+aO+IaQt9pdWGPfyso6hvg9F/ni8ihURFUNe6qtkTwEbcw2qPqfZEQtFrMvF9etBeiTzOjyUqDA8jk+9KiMwwmSsFe1Qybe3DMYmoU5d6wkICAg4SFTsSWFrzKb4pBGBbYBgGRU7ciDZqBygPuuwcvSu6IUhzTz+qyMqV4+lEHf51gfLmwDERnKshx/myVl6VIHC0q6NUh7jtPAUeb5QmdMpdCeJqlwPUU2X0ej2+OJES4wiDj6tRMLujGcfAG4KUEaJilF6ZVqXii3PHbzOpB4W06oBEkPg8+lVccegFtPQ+sPY6G3DCtbjB+3lnDgXdfl1qI4/ICAgYDnUGVfKaEtGHgpUfFw9ItggK+btEtJMjRGFHUYeJDGWczJgnKho8FyaERevI4cxoNjBEZXpeTtJmcltx6JHITd4nTLK+R51Mo8VERVhXpBVVNUrQLlvbDxkGeayqCcqXVZl6GWuXn3EEsox6clN9S3b0kpOlOvXrjEP5tuZhe9DCapWIx+rISAgIGClKCxHmSjU7mqc+bRJmovD9JnvbbPKkfBpbpwgRgTn5PpAbYRernVozLXBJ9C6+sdDV0EFo6U/lvWsBVRJw6cZeDtt/aXcb60fL0MU5Yoy07Bs3sEs/dXpjIN0Y3oFGDdiYclRXegUN0x4mLfE+qEzIjCrx7fpd/cV+VbGtzfet0JexphKQEBAwGFj0qhUDbSBZOVCn+/IQUlMZcyz8hpq3Saz+6ZcOfV+NKokZjuxKWeF423aUWIhD4j1dF4rQkLr9PW7yh1GOqO4weJHiajqjDeF5YyyRzUdNlmeYAzcHWjeipf7a1Ss3poAeWkI8tIMm1Sf5+NVoipgBFfWpawOZb2AgICAw4MRSh2qJEVQtTDePl7o+brMozKL6+uxrehWplw3HwFX2GrazsJAFnrTicqAtkoq1obrTAm+/TJIpnVywkRFf6nj++r168pVsSxRlVHe9VdGXeGqrOiIEYrmoz5Op9flU9QJS3PGnK5K/eB4mNxgcs0phApLHngCAgICAg4d43anjKr9pR2kyOyhlVNZiXRMBx6KK8y8Im5kRdjDsw0+n+BzUMso53nUynCU6yTqy47LLT7pUXm5R31d9WRYB7f0Z8pq9J3BL1dAma3SecIo8qsEQXlVxrTpG8loviMqgmm/Cmhl/W5A6JsYcf108XLfvNRg5Q0rnYSAgICAQ0HZ3kxD2Q6pFXRJk5s3Uk07kcVdgk6WX/qbRlRlciB8Xp1d9DLfrj77tFRXOd/r+LSHxQ+eqHy6Kp8Gt5mCpOAkDuWBEa4rGjf9SgGgTjaOkqOJMdjd1VauICo7RvFSmx4Wt7pKYsAS47JxLJMVEBAQsGpQi2nmCxhFRrLycpi3THbflB2UMY/ZXjaK86MW40TlUUcIVreX8z6ucetYX2ZcbvHpRFVfR1XvwBgjKl/I0uOdXskNv1V5uT5DaRGU9SHf55GofNxC530xrUK2r+zGlGL8WhjTVp4oRQMCAgKOOso2uGqQx0hqFNfAn4JrHkV+x5+qerlXBsp2z9dblhHV9j28nJ91S38+39fHZLkui08jKvMOq5jUOzBGu/7YDxbyHSo6ZrLq0t9K4DtRvDqeadcxkEyZ+8eX/iykN+VbMzE++H+MrPg5OdiD6WdAQEDAamOaEa6SlFczfVo9xFUyfr9UmRDKdZdtnX+C0sHb6WLpz5f1bYzLCjlh8YMjqupjnlaCyvb0HIdLoYXyYFfHo9LhWFSJqtAfEdXow8oN4QsX5c3z816VF9vDR8pAxqhMQEBAwJFD2UB7jMxPJc9tIXNlQDhjz/1zIQ67FlVYtvFlQp9vKNvd1fKoKPd1UMX3t+h7ATKDF43q07Bcn4sA5fLVuqahRFQ2OD8+VlAerPeoPKoTYWD+9IbrylBi7ZY9LGtb80ppS7m4ZlRXVQvYTcPTcgMCAgJWB1ONba2cRn3c2FvcGXtnskb3S1HOsEJU9jmJqX0pWVePcd3isUwE87y9ptqo3Zr6tY9OzPxanUr/Pep06zBBVIaikx6HQ1T1ugbmML9MVKzB7Va3/FF/qGFtWBpx511VsVybAQEBAUcatUZYDfbyRMXA5ysJaNrsWSGvR22bioMjKsL3q4jX13/UiMobdV+IyaqhP1iimkYUZTnbs1eGEJFknBT89+4un1bhsxmYj+USpeU++yqrKCYvICAg4GjC7NakATLicXYMsZGNgiEfRfHPb6Dw8Ibeo7z0Nw3jJHBoROVVyhxRLmfxadeoCqw6UY2IwUccDoao6vPqyxSSCMM1KvLLttTn9Foxr1mun0t/jPt0AZOsbBICAgICVhsFIY3DW6UxI42oT/IUnGRVRpWoxnMLTCeCQ/WoGNIGO4uKRLmcpp0NHq/PUNRRlC+jrkwdpi79EWViOVSiqtcrUOSSqAgMWJ+R5G76NQnikLF6LVDuh35qvAw9P1nhJAQEBAQcCqbbt8ktXh5l41zEUQ9NFmJ8wroXKShfIVER9fUfHFGN9Quor9PiJKqxqkrwuqtOVNV5918EnbtRHuuu1eNXUyj5shwIY6O06xylKtHrTDggZ7qheixvDXGKfdkqlJCsljGYxNoJCAgIONowa2YoPCSzWB5lW8hPT26UKgW4fBp6tYHO4EdjtpagpwNJSeSKahs80Z8gBSadPrP81rSqHpOTsiKty5Tj2Yry8uQ0oipj2Tx/wy9RhBooKGNS71t2ca2vpEP4sh7jN+Na3rgK6tKKcEBeziu+VPuq/bnAeBsWL0vKqPYnICAg4KihbH5gzrxNU4vnzJvKXFzhbBbzVQ9H1Q9Sg8981S0KFza+Kis6MkEESLIaSpnH7Ww+7uGjXjaNTIr88fbqyGoaptVNjDyqccNuBbyMn/7lhCOJUy+XK+JkcBdFuWyYaSfsXSmU2UHaY63sn6pTRuaP+PVwowWFhJ1n1JEP6/BnHQEBAQHHCuoMrxJMyYwVBl4tIY2cHRWU62K2pl0Rk2VqH2Pa2JH3ojkuXpQfxTUo3ALeR+Xjhf54X7y8XB9RyMfb42ehW+PVlbBsXnkzRQEr4OX8HCOqkr5FnZ4mHKkoyzhHFr4h8/iECk6L/kN1UZTpXcoR5jbSh1x54vLtuzMKphEf99IAa9Z3dxw+LyAgIOAoQ9eeptinskH2UQ3wwVAPVzaXDAlIkM5hUzMctK1ZxhUua4f/aEe13tHZPU/4WZOLj7VZxFm3T60WUZXzfMxk5h9Wy3pMkxO1RFVJ6hby8tKfNl/RKfIIEFPJZ9WpRD4nIokjaSaxxCSnmBNTHpjVwbKelFguZz7SKkHaw8eKqS5QHVNAQEDA0cTIriHwNsrsZA0hNPh6DtosnsQX16qQoIgRTVKFWjmIKkORdJDJIMvVkWBdZVto75cyO0jpBBFo0vpiZXPY6HGdiSIlQV38iBHV4lI6ZtG9fS8bekbpC2lcB44ZKJUa09VP6poXpYBbGscNaSUgqWYk4CoWggoJzFQIH/fPgvInB15eHkbRJqkuICAg4FgCbVthmapGeMyYm7m0OD+0mFnckYME2LIapSQX2EhEs7wBssqln8L34tZsd3nF6qe+Iw7Xl7F+aNRWuQhuphjLdomyjCjkRVjUW3golBRyxmv6UMI0OVEiKipxcs3w+0lmYcbLE6bRcroURwEIwPb6INohCCqSmbbdwEYvSltx66n22mTfOR8SVmG53rE2AJ+knPdfJWiATZLj+BJGTv5KbooLCAgIWH1UDBaghrhsyJAeWShExq0V9PBfy4yK+bK007acx+v+lObwrshTS/2hZCAuFqL9Mw+ncAhY3QiVNpnHMmXbz3xPkIyjJpUT9SF1XXkeLs/g663Kx1GXZ5spUN6qAEBU4++INJTPDsbjJc8J8Mt2bCtO4EW1GtJOXGYF5XIHRnlzRVHWT2wDrnNv0JVW3EY6Vq/MX1cbx8G0GRAQEHCoKIx6GWVJkU9dFy1hmo2cZui7KZcD4VgMQF48c4ca7bDtGbBy3rMhyvXU1an+mfeE3Me0MkWcRGnpIrfAoXhWKyIqP1nlSSuiJAoEOPik8xzUTu+p3Y5BGiAS50UdDNjR6hekKVdROU/HDPdXYg4DXzaVMhz4X+UpltM5qMgDAgICVhVqouwSRhXe/Izb43F7d6hQcwie6IOoer1M43ECI+xIy9q0tsrte3KokkQdUWlQ0psse0wRlVVmmyYszmfzcQmOXlQLLB5FXP/kwpwOd8XwHR1rjx+u/2W59h19yRvoCLe15xE4iztgWI/TAcplymcUAQEBAasNs4+2slSACW97LMPnj9m0wwCtN7di5LCDfZj2fjqUQcZt674jOFl3/Gkia9fb3CpJrISoKGSSMhuHX5Y8ikTlJ7A8kRZFZdBlfKSDkjPtBETlNkyQWZnn759aAapfWFE345MDIA3q8t+g+FFECa+pFTtnqgOfNkEBAQEBq4GyHTuq9mYI663t8VJJQ/r9XBaWUthIu/7Cvli2WlSLO/h+lvs7jaiIsp7Ve3BERfg6WM7HfVjGskRVnmzGizQqciTFuJd3mjlIKtHlPt/Zae7vNPh2fJ3lNvNhmfCoY2GUN2T/tq70FtH+bCxrNrWlAbLyYD+i0T0FTLtIQEBAwBFAYbcMdcaXKOtN0zlY2AtwaX9jXfFLewNZSs0OWxv+EgjbtvYpL7fv4wdDVAUcUSE2LjdUicrPgdetLTNGVPhAExovT6DFiwoZ51bIBrfYQZTlqbSSWOZBEuSDkZa2N9loAa4bMt/qZjl+clcg7xNg/frqDzBnpASagQT7OGloyQATPzPTkH3bUvnq2/bJDR+JZGHPksyu7ci5T8/lcS9bI/MnN6GX687DKEZNelaRosaWdnLEXWwY8Zr5CQgICDholO0nUWd8ibLeNJ2DhdVpRo01MrlvMdNt7HFsnhVXnGzVy9q3tguvhmCcKX0GICKaU2Qrqn32ZSw+Xl8B78SYvp+Dsm61XGNxCUTlgdg0oiovu2ka3R81MhzITCeRdtOuDa0UVi/bQSH8Z5R3X3ODSguTuNRbBLk0pQmCybO+SDOR7kJTIsz1THtRtn41kve9bp9s//o+OedxM3LKg9uy5Ts9uemKRdnwoI788B+cKKc+boB6ZyVF8dbcEhrhtk2cJzRy1MlJbcH74qjRd3YiICAg4HsM3X4ucEqc3XbeVYkwiCqxMM6UJyoP06Hd9vECTNOSGlD/2EqWxemI+Hi1vMdEvWWiUs7hkh50jEDKIT+tMMmkoet7IJV8IK1mDOLglnCvsTwm6zZyZL0mggsFZmk0ZqTfGEg2aEgyBFlFQ+mhhd039uRr/7pPrv/wPjnjnFl51E/NyfnPm5FoBt5SN5EbP9yTq/55n9z2rVTOf/o6ueRnEznxER2ZGcKz4gREmCi6xpJIAx4aNw1GJKwV9T4gICDg+EKW48QfRNVLSRKJ3r4z5A7t0rKS54YyiXCVzghMRQrLN9s9QShIHzWi4gYFS4+yHIF4DwqVcFkuG+hNvHPwphJ9HBLkUxr2qNapB+I52IJ5+lbfHCQ16EieDKSLdD5A/c0FGe6P5bp39OXad+2SpT2RXPyT6+WRP9GU1mltiZsiyQB9auaS8V6CLblc9fYFHLuk3RnIRS/aLBf/bEviDYvSSDegv3CDoxS6kCX8wki81vdpkxcQEBBwPGKY5zKAjV0AWfHRS7oEyKWrhveq6siIFpErUAdPVGrnUW58b4DFjxhRWcjGNYkotz/S+8ngTTVkbgaeyXAAOcIpDRPj9bm2EOUFP9IcH7io2/0xwLyRyv7FTNrNjjT7IjuuH8pn/maL3HNFX05+xLw84w/Xy8mPxiSjgN6BPQBTYYrI4kMQHAmPT2Hfcu1QPvHHXbnzSyIbHrkgP/jfTpPTH55JPjOQwbApM62Y3xWHx4bxYVhuHAEBAQHHE3Ke/EdNWezm0uvT4LnVJdhLwswdCcns3ijEvypREeU0dXnQrjM88kRF8kEzByIqkgqJKoqG0unEAocKEu4VZKS+YYL1+DoJPqdKCQ8hH/9B9zRHJB/yIYuxJKh/1409+fq/75ebPpHJzLpMHvmyplz4gxtlZlMksfQw3y3URLIaSh99b7L3nHuUJ3mmIM/uLpHrP7ZLvvyPfdm9VeTCH2jJJS+bk03n48tqa6/1DKM8OdMmMCAgIOC4w5CbyGKBQyVdfPA+K33i+kqICjrlJTyibB6pW7aXR8Wj4t570pUKHalY4BpHSI8qSwfSaUXS7vCeKQ6QefRoigY8KVke00Z2PLjrJGtkMuxlkrbAFosgKjhFvd6CzOQdacW5XP7Ovlz35q2ycOeMPPSliTz+5zuy+QHzaAazjfK8JkZitXbZBtu2toytCI6Hn4lsv2NJPvvP++Qrf9uTjZua8nDU94xfnlXPSho440jakqRQRnVpsihJPsu5Vk8vTnL0NxEMVSJz+/TQZuJMssFAEpQ/ouDd5mDVVt7FT6ctmCKEKfrdxPjGv9iAgICAAny+Kh2DBmxsLks44iaMiZ3VO2JgqMpq2xhVooIRHMkdymmW5eHtPV/ZZAxSlCsTj9Y7Svq2EUN5Hy/rE5NEhWpYQIWuYQtcQcRJDjTMs/Cm+BQKelZWLz+KBnzHWWtRR7HEx8fhNmB8Bwnk3aEs5CA/1LX1xlyu+ItdcvuVuZx8RlOe9pttOfPZs9IEofCamL52BGX5RHaGlTEpbATIcLrU4S6/Ieq/5aNL8qE/3yF3fKcjpz8slx/8wzVyzsWz8MiWpN3o6Fb4NO6CCDrkZB0zGauPTicNbsFH/1UYySAjQbl+IB27HTVHBMO+9NB+k9fzyKDpIhzHNua/iT7VTEJAQECAwmwwyarfG8piN5MoSWCzaLhoy4gSISHCKAmj/qnqVqZMLCOi4kYNjRflysQzbqv8NTL2bYVENfHeKdewBb4y6iGeZ3rfFI10o7jIM9aA7zhvPrOQgyFRoTiM/mCItkhU7Cw3+tHG39mQd/3WvbJ/i8hjfiKWh79wVtad0ZYGN2s41vBNsC3XxARUjEzV4T/EyfTsaq/flT3bIrnm3QO54p+WZM0Jubz0TSfKiQ8b4DsDEQ0SGTRTEBW+SLiufOLGMAMJgRhzkMVQlzi1eu2TPvwRUrq5+obNIwUQfMqXTcJt1x07HCRdaxy65T4gICCgBmaDaQdxcg2Tv7AImxbZSXdhsktxRBil/eTyYJlczMab4fX23myxyY4EUU2c/vvGxmEyzcPBkMtuNMxGUsR4xeNgHg0+Db1WIRkIazDgLbx8PiB5DyQCkvjSe7bJ7lsG8tL/ryNP+a1YOqfFKMWt7/vRFgeAdINXlRIQBI0zhzB58DwAPpceLM9Xj5BQ8qgvSbMj85t78vRfF3nlmzfI1i1L8sm37ZRG2gaJQhf/lRQ9wfJsRCMcAZcs2VeoYey8JZnPFuTD9qN8SfWPFOhF8brcEKwexSBVnCT0de2ZZ0vaw4CAgIAaeAKAzcIJN89rzZ67UDFpQ44VuzLyqNghRvyrMcwL0QxN0/j7gZFkuB19foYEwk0ULENS4ERooPCDZEiCsi3ofF8U6kCxnJsd4B0kWV/6fT72KJL/eMXN0srm5Xn/d4PImpbMRgPwBSYX7A/zrPURrJmsS+KYBuYo1yjBsWP0jXq6Q7AJQ9/NEnhKubzzF/bLzt0L8poPnSYpSKBNLwnuir7pBeSZRV1U0VYPJkWfv3jNbtm3nx5aX1qtlvS7uTSToVz0sFPl5HVseRyr9WVzw0mcNeQjn7lNnvzEU2XPnr5868YFedLjNvFeaEX1TCQgICDATBBtNW1xrB5VClsCzoLR8J6MczpoV2kz1a7D8jNfxZb2trSIW+jt3BFb+vMN8HOMqMguI5SJSh8SAaICcTRwZg+TTk+nCl9vBrYgYZCouOynx4BpGH5UmAyW4FHNgThS+fArdsmuhYF83xtOkng96oaHMwBDJFwmpAdHzwj12m4SPsYeA7WHC46BO0u41Gf95sSrLwSy6aPNFkIQUHOPRN1Z+fAv75ckyeW/fWiNZG20Re8uoScGpCjX7qKOFkgikh7G+3f/dp1cfOHJsmFjW69JDflakWFPTj5tTtbPzLHUGPw8HC7of8Z5T667pSvnnrVG7rk3lSuuukNe+Kxzpd30JwrjX3BAQEAAQZtIGyjDRBZwct1PuSoEe1ElKoCXPKpERVDPdM2meXvD0Nu5I7L0x0xWyS7C/EPBGTxthJ1i2nkyIAnG9R/K6fZGXsdRHatB69NOGhinPglGxfCguMw3RN3kwRis1R3O6waLBHX1Bg3p3RbL1W/bIU0QTGu+CXkEQ8wbdBsgyFxaTfQD/zutIf0ceEeQV45O3pQOjHee9EBCQ3s3FsrHUSIzICk4QjLXWCeX/91u2X4T6BL96HOLetqUnM8GHKABfEHC27OG6APKDFAHCTOP5uS009fIeWdskPNOWyfnP3CdnHvuiSDuhvQFnhrIEzyMn8RQesMFzMyiLHVBqoNMFuHA7tizKLsWScI8u2nIjYs92d7tS9boivQx841UGv2hLPa6ctPdu/UlaI0evEqSMvp45lnrpR2nmDv+gLjjz1D9cgMCAgIMJAScfMPG0m6r/aYRpfVQu06Y/edlD9p/gmlqmnU3e04w8Md0GMGRmBj6+DQsZ798D48oOBjdqAHDTOPNwfLVyRy5H6zfycfrMMNkSbZ9aFE+9HN75LYP7bedfs2mblnHyYBESVdm4qEMMKHZPAgMsuqRrQVlQGeu0QFRsXwOAsMpRKehGyVu+9SC/OdP7ZQ7391DN+wGYW0f3eIVKR5MV6FETK1BX68TSbyIsaQSwatKBvCw+EhC6ERkFxBTMpiRPbtj+c/P3Spf+Oou+Y/LviMf+OQW+bt/v1G+ccd2+eTH75BrPrdL3vOOW+Vjl++TvNWXbbt68p7P3S6Xfe4uufnWJfn7//qmXP7tvRhvLCk8vA9+8NuyuMgvtoX5Aum7vgUEBAR8L+KIEZUadH+AjhHg4D5+EoHPp7uINPMpd3FQCoglkXRbT678y33yydfslO4Ni9LqRDKDLvNp6MOZnszCQ1oDD4gva6we82mCfHgxbbA0CG4G5rw1A5f35iX50O/ulE+/fr/svq0rg6SF9jrq2fhraHqwjzqSGiDjM1fskv/64D3y7svulfd+/G75+rf2wCNCeZAjThuEV/54oqK7FeGVbd3SlSaI5vnPPEV+7IfPhEe2Tj7ykXvl3AtOkB965lr5vh/YLN+46W7ppbHMz83Ikx59ivzIk8+RH3j8RnnR958j3752u+zck0kD/e1z0we8vByknsOdDwgICPhexlHxqIyYuMkRpEEDzoPOJUJ9EgVsrW6uYAjlRarlqfQHPZSER/K1vlz2S9vl6/+woE+e4H1DM7xmNFyUpD2EpwQvpnLEbXhaWSSz5KmkgaMr33hLX/7jZxZkx1ciGPs56aYpvJI+2ktlQG+PfXTk6cmKIKlWcdpZc3LmuevlnAdvltPPXiNrT0Tno0XZtieXb920INdcu09uuGVRtu/rKvmeOHeCXPjgNbIubstML5KzTunIaSetkdNOzqU1mJVN6+ek1eLyHh+P29cdhd+8dbd85ts75G7enJfk0u+l+nppuHLqATZAwBFvRJtOqQEBAQHHPY7a0h+XyzSk1wEy4IYMTY+IgZ6XKkorayLgRoU5idIFmG2RftyRq968R/7rlXtk5xWQpA1pzM3LMEn1yRjVg+1Ec5Euwe28ckne/QtL8rm/2is91E1b30C9UTQnKQgv4Z3HvBkY7ZtnZ9fPlKDwvw7nnz4nj3zQjDzsgQ25+EHr5exNG6XRb8nC/iW5885tsmt3T267bZsMBpF6V4MYHleUy6DRlqgN8mqCYJqRJAl8PZBNgrz2cBYeVU9uur0rl316i3S7TdnUSGTnzr2yB+TGteUmWDjDmGIufaZdSfh8RV39DQgICPjexBElKlveMwLSJT09uFyFPMQLHUt7L0t4r1DekH6jJwsyQCcTGXYzyeJE7r1hUf7zf2yVT75+QdItoLO5DMQEr6lyzM7nkm3P5RNvWJB3/MY+ufMatNvMpJn3Je93QXy5LOVdyXiXMdrkMhqb1r6wC+yLOYC1yFy/kkZHiSKPMhm2BnLO6fPyjO87S572lJPkGU99oJy8vg3KbaBdfoJs4n1grVkcXYn5dMIs5g54zAkIdzAvvKD2nVu78vgnbpTHPmwoFzzwBLn0wpNktt0Huff0C2N7wyF3WyKe+4fxBgQEBHxvYmThig0X3jTbFkNuaYQZNZHe3MsHxsIoR7ESjtB7mbhOAhmNPCrlnn2/m0Mf+4MMFJGYXgsqIDFw3wFfCsU7pml+B3mij6TPMj5bL5F0kIEIIiW6tJ/rBoVr3rtT/unFt8p1b4ahR7lOcyhN9Jk7ATmE6/99KH/zotvkc2/bifyWpFkP5VuyOICRh3eW963uDJX2Yez7gzZox7a7c/kth4cTg0T0sYKNFJQCksMwSWh81t6Oe/ty19ZFufXO/XL3PV255669stSFp9dAGYyhiTEnOLjNM+f4MdMcXxx1dPdgJ1qnYx42e7qrcRjNoOx+nen184lcfc0WuWtXJNsWevK5L2+TfXu5MxH9BNG14P018lmQsci2XV259Z59sthLMV98+zG+nwFImu86CQgICHBQO632mjaNlw9ot5EYPbSBDw6AbVcvwlMD8gE14SOOOPqIX/OaP3ytxrQTvjfWuXEUvaTnA96QVsLtjH4gvizBwZt3pEt7GDdJjdef6Cmp9+Q8KyoNSAgIeY3oWx9YlMWdmEAtj0lFnbpMCNUGGY6+DHfWJfOyuJjKTVctyT3XiMxvbEqW9GXLNxvysdftk8+/Y6d0F+DNJGul3+/ppga2Z7sLI62TX4fWn0Uyd0JDnvLT9vLERmzj43Z4/JcMbBVxRwQKcd8iqFK2LzRk+54F2bkvk63b+7Jjb186a9bL+ln7gse3WqIx/BhO3TQrCV+Jj/YbjUxmZ5py0onwtEiYfNoEyP+kE3GcNCMLC0257eb9sm9fKqefOS+nnDYvaztNmV8D4gOBn7xpRjqdPjcWyr1b7pXNJ67RZy9yzmPeV4Zu+Dd5BgQE3N9B22mg/enjZJYn/rpdnP/VXpkO495+FaHL07jJCNOdlBlgXTW/Ls/DdKqoyhoLiyltG2I2AEaKZ/NZ5yw0D4tjKZ5MwT35ZGVW7MtSF8yMtG6UQFV8Q+8AkRSqeg8VyIp59DC4g2KJO/cyvtNf5D9+frvsuCXTnX0DsDs7TM+Lngpf/zHMutKMZ1GsA8oA4p6kOTddgJRgyJeW4FUM++gJPaZ5SVFpkvBW2T7qxyBRD5fgjLQ4ThBVGsvm82J57afXINWQ2D1ot0migsaw2YcHCKKi55ekaK9FvpRIH1/OCfVz1pWkOYsQEjfRSrY4OA98VqAWVHBDB3rJlzbC68wjbuhIpMUlxF6CNhcwP5xfPnCWrMMxoYU8RT2JNHn/WhyjL5w3eHAJe9GXRF97wnsfhvYjDAgICKBFcHadj55bWBrUPpnC260iVAuI0MqSr4obek2Pqgy9rMjnZq8DEVXRZhlVGXuxAlghLYyDIXfo0TuhUTRMNjYVbkCEGXITWdw8K5pz2ynIdhDqAWsctaWfpeCHJXhYII0evJ0hCCaPZGlxD4gMQ8rmlRx76YIMo770YNxTeG0iIDcuKdKj4vIeDm2LdZM83RjYO+0PE+QIXkRiml4ZCLWR9yXiOmCE3iUgTxAWHS69gQsoTzLjPBuJY/QZRfRZgsjmY6FaqIMeG0mFDUbDrj6VvkEeHM5Ko42x8/UiaBffvs7BTHOeFKxLipItCR88P9OKlFSTyNondGNKQEBAgII2iQdXXezE2ey5CxU+PPawQqIqwKHQ69DBcv1MsXw1bj4s9BGAZGA5Fjcvxx8kJoQkECfj0yuynPcPNUE+8JFAWOSlPgqnA3wB8HSyrCkp+qMb+SDn040yEFwf+fxylPxIToiTDBnyehjr5zIgDxKWLhEyH7pKVKgHqvCiOuAMJCgHZfCJG+q5IG1LejaecaCTyOdyIltgS0rwrJBrwroxI4aXis+kjX5mwn2PTYylCa/LODFXTyobpFYH2uF1LRISfE+U4foyvwf0PUd97GNAQEDACGYTdEMbDlow/jsesDzDONTZXiUZHlNAIhuDVuIPj0rzrk4lDIYw7iQQuxEXVr2RKcmQlPIhSAnExFuAZbCo29R7Qxj5eCDDdAneSRtez7z0U5AWl9SaM9BPZYB67J4pHCBahiQltlNGOUmCI6twIwV8ICUubpTgImKe8voVdx7CQ0roVtUBehw/yvO5WaRIfX0ID5QVPjEDY+RjN7gBJUtiSeFJ5TFaaGX6Esc0hieJcnytimQY57CH8mg7ZpskU/7k6DXiE4RXnf6AgIAAQm1DjX2os/PHCuAM2HUY3adAW0lppcfe6PmlObvJFJ4MArvOk0IOg1safNmzoOei1fODdeg/vqiDOTCwMPINyPm6Dy7R2bUtvpSQXhvJKoInEdtBzwH/SB70sPq8tgXSGvRRmMQzICm0IcslTbnzjZ7WUJb6PcgSyZ1nxctj9E0GOdO51mW9RO0Dei9GorFucqA8hpdDgsJcgUjQaXZdmm1uwODz9opltyo4FTG8QH2GVkR666iM75CKGrOodc4eghvpop6wxpa2xibaiM/jEGnr+iJ0EMTwptgjnWa+eVjLsy0KeM8Vw4CAgACaXbPTOP3VvQC0aBHfTOFsuuloUAC2REW0VYjw8HadgT/KKPJh11287LT49srtelTTZZg1PkiwOnZCDbwu/5lJnWimMgjC+u4GQ26Bl0NPSScNTMaFLHIGCVC9HhxMc4GMU61eFklKdYysTN+HzCPxcEkP5ZlPfYaax/dYcVs6CRHElyFOGcpw230UDyVO6NPVdj8gICDgOAStGU/2YQdhHGm/l+GFYw4rIipHjMaQOkB6QTT6Q3gtJBcjKqOwcRiz+tBVBGh5OFRJksA7QGJEUol5O0outtFByYoeFo6UMl5T0jRCtGsERH2Skx0+rnUgpH6acSehqxttax76MkAb3CI/hGeiTM8bu5S4rK8e5f4HBAQEHE+gndZ7VWHjaH9px2m2vV07muatygcHwrJEVVeRSnSNiRESFQw9DtJMFeiKhU5XkyAk7oKjrAGC4j1EvAYlXMaKGyCRFKRhZOR356XwfnRzBAlGiYtyhiQY0+Fr7UlkIzniSk5I8+WMDEk8A1TCrfK82Y0Hr1n1QXfZ0G7U5eYIwdFMOJF25nGwkxoQEBBwLIH2eYDzb70awrUptcVq8SgYw5G2dYdS/7JERUytFGLyFY1/v0+PxWQGFykVZTVKUCXhkPdggQyaiV1TGTb6kswOQCQkFXo3MaaU15hAOrx2BQLhzjYjK+rQA3OeFchMCYsHl/QoZ77meYIDgaFOboigPuO8RsU9d9Ja0HuZEpBl0mhK2uc9XJPkGxAQEHC8gct8Kew0T/b11paSbS7jaJ+Qr7S9caJSu1xvnK0+y+MnbThFdB8zjF7vqSoV5S40DRGMd8W8KSJuctbotfD60UBm55py4SWbkQFPLaO3M9S66fWk2QCTjDjCAfN44BTB0pAPMnhNTq4yHMjPKKMHpWXhRYFZeWbBuulx8Rpbo9mQS55yosx2+NbLnl6najYTfKFc0gwICAg4XkGjTFtntlQv20DCw8y15dfzheU5xRHqNj2MybTYpI7HcpsmpkFfRe/iWgF9nuq1GV9x0UBxIc7u3zHDPjfDHYHkPh42OQz15lo4Tyl35cHD8dvC4cJINgCJcGffAHISSDqUb32iL3ff0pdmoyUpn5cURXo2EKEsOEvrtfbRDkKdeHwYN4L4KAb5waFCUe60o6ot3w31eliKJLdxt6U/7MopZ0fyxB/qyMwcZQ194gR3IPKRTQn1gaN9phEQEBBwKPB2Wu0dDCaPhS5sKLf7AbSJhNk0LoUV9q1q58z5IpGNy31yUs5d5GwXZWhDx7NHKNqzvlYxUW+ZqAhyS5WoCDZcEJUNlKCMZMWKO7DuzRZfXWFEQjl3mujNu6hUNzfoJgbkgay4LKdpdGHI61KYR+ql+RKEM3C2GtLtd9FILFk/QciHxkIX5fWwDvATzfCGWjsafIAFSMbiIB8eSkCU44DH1IgyabUSlWVxTzpijypK4F3FmDy+VZhEFY8mdMqMBwQEBBxD8I9Kosni7Tr9fi5dGF/aaj1xH7NlXtdO5KsgUfEoo6xWLcP0USMqelUFKRnG00Y8GnMVKlnlMYx/Q1ptGnoyCQnNyIicxcPvuNPt5PSkUA8JirdhqZzb9/ogJL2fKmNL8LIQx4QP4ZYZMaJac5+MWLl8SFKCiMTDeAym4b1Q6kCRoNAfJTJeg2qif03WJZKArEB9SmQkNN4ixVuouJFCSU3dsWKcAQEBAcc2eK8pV6oikFRDV6PyBp9WY7bM23LaQ6Q0TkyQA9L0pqYRVVm/HCdRKUBClSpH8PorJSrreQ20k+6ooiwvExj5oz/IlMEzEE1Rlh2GHj0ViChmjs9W5lUPCAe8nWGrKYMmCKotMmjFMuC9tDOR5B0QVieRvI3QHdKGFwSdpIkDYYyQR8R7ofgMvoQHCA8hn8/XAEmBT3Gg8SbIEb2O4QnqCxchsi+FXw6/JNfBgICAgOMAZo/pHMTSgx3up7RwhY329vpAtr0ub6Uoc8JqobHUzVBvaSAYpHOWRvD5hR4HQW+I1GRgHstyTmjg2yCLdovEw+U6e6SPej85GJ7LfvSgEFePCnGynMUR6fNRQphe7uDj1nc4fWTU1F0MLJb9UC/ID2pKLFQywqN3xLah42T69AvKqYszCz4OqdlmXQNpRom0eV1KPTB4XawKZdiKf1XG4XxxAQEBAUcDfKEqSYqeVA8kpVaZBg1Gs2zDzLsyG0f4vKqdM7NqOoTlj5chGOdBHlCfRNOMOIUKfNkVL/0tdQdlnnJdtwYNRdyHJBQO1JL8cDqOXLgsR/evCaJqwmtJMFGkNL9VnO9Q0hCHXatCEUdarEdf/oeQ91PlA5AHy+q6oLWpZOWW/vw4Oe/2pUCGLD0Q51KfynRJjySUo1/wxtAmyQy9kFaSmMdFfRRkyAks5oqT7qIBAQEBhwwakhpjYsZ0CmjMqOJ1aKFhpDycEaT94w29vFdKbxmC2J+k86TejL/pMk5HQ/lK0xYpCIL2jy4H2yrgsyeIpJTm4/CoSFFFzcHqJhj4cY3VUSmoRMVIdZ5YGByM2CRRlWEiq7Ssx4ON8ZjpYJLI6gB4QreIc5J4j5Tu9GOaOwGVsECCev8TyQk6JCfKWTVCzrMRlWuLB6q2cVmbuvaKhvTaFOLM8yREmfes+DJFXe6DrMkNFsx3up6ophB+QEBAwCGARgVHFc6eVaG3/QDjhpuUxOv3dAfM31F7Cd2FJdpMGkorw4O20l+fMhvpolrS18/lp6IdWOBR3KOcnMyzdNlDoqSsV8StfwRl3pYXdRRlPEZEheioAME4hgQxvRiTV0MDy1mMct8I437CQAe6sYEv9+NuOpvaofR73AlIUrNJJAHxLICPZSJxec9JiUr13AHvy/StPSMj9hX/lWBIjAh52BBGhMVDSYv9QFz744iLaZ9PWJVclwwICAhYDdC4wLAAMF8OsGkMTOzklulMkc+CXXQRblaDlA9F4Atp+z2c8HOJim9jAEhM3hab52Q1mcg3bPaRGCMq2tUKUVncyk3KC4wRFfLKuYXuOFERZe6o1kkcgKgwOBTy8mq+gfkW44TUNZKCbNh/aCoJ8N4kIwde9AMpIU/PCBBhnKTEL4T1ksRGHhUGqP1SOdOcCAxQ40zaYNkF5T4c9oVZu5YH2lS5LQUqUUHOa1Is5w8DvzBWFBAQELByqElydqmwJ4Q3VoiZETOMKVGOg4ZNT8qdUeLSEeNAjzYSB8lJHzTr8rgprAq2U0dUZVvt4xpC/1CIyuJGQl5e5JZ1x3WqqJNPJSoCXcXnyomKDZCsmFdubBjx2hXqA/noq+g5qfSUoj5ySRIJ9GM3DZhURLw+ZRqnjHGGjDjwu9ReuuaM0ZHg9+IIiXl6IK5LfU5OD8oTlve+WJSBB4kwICAg4OBgJ9TEmOFVQjGMxNCjquo7meUZAdFe6iV62NYMESWoYQu2j84EH/VGj8lsLqhKy5dtNUnKp329Fi/3hXFnAwGYxTH4/CJumIwfIaLq9rjrz6WAcoJE5ZNjSg4mY6XUs4liWNbVtMaUozHJmHQISD68VqXvl4KMjznSTRYZtHI+XBblcFBflwT55bA+jpHlXZ2MsIymkCThqFwFlJEILa7Lf1GmN/HyOhX1SY+mgzqo78t6DPkOqICAgICVw+yT2RYPi8OKNUguJvch31Lnl80oMjvGOG/zYZoJnlwzYXTEMjxT5wk3rTVv9I10q3MBs2285u89JNZb7peXUdeH4+tIhS7jLgKMy33ct2MoqY/pEGW9MurkyxIVoz41JtdPIyWGZXBCKGNjmq8qdlWKF/uUgBDnwSefI4kyPPgkdOTzIDHpGYQRFXVGXpU/WAc/CJ51qMR6MzZRmHF+AUZMbvOEIymVa4jD1xUQEBCwKvB2xqUQqp1SGfKcjOCbv41wGHdyHHYi7fRhy4yoeNUfBlJ1QSrIYG0kF334AcsCtL++7DgKorJPZztLatqOw5g9RdTqNdl4Pfx07Y/JDU4EFOXrUJc3QVQeFFYzfBpdwWdRWVnP4qV8ko6bCGZx8wTzGNddfqPQvKaU5MRdf7x2hbiSlnpVTEOPB+ty9Wk7JCpLKDhQUpeOF4d+8XpGwi+YXyy/dP8lokICxakeEBAQcPgw42M2xkkYgd2hpVI5Q81BCDlXfnjC7G0X9Y20zLYpKdGOAXqSPZIh5uwXyxVn3QzHSWGcBNCm6lTllq7KCIq8rR3pjNrmJ+wpgvqy9W15TJMTY9eoPHxHysaf8OnliIqwpMsniaCDlPHQZT+Xb0uAICDE1WNiHKG9ksPSJi95VawSFbAOrt9qK1rfOGzMJCSLjw5+OZrHtCMzxmvqCAgICDhUeMOrAT4YkqZGNsfEapNogBgnD9mKj9k2fyLNtJ5gqx5zcrVjJmMd1MEHbGKZqFRWwjgZLE9U5dAwrsuQtpgp9tbk6C+C8XI+XYylDtPkxBEhKuaNREpUXD9lAgREkfVXiUbvE9CQaebxZl/oKWlRjvLQZxE+D5C0pt4XdXXi8NUycJNocF+e66IGmuZ0cmKpS52iDHMCAgICVgtqf5zdoX3y9khJydkf5yABls/DyIdHVe7rQsgn7SDURT+XrzmwjZ6oTLVsFylTocOhE5WXH4ioxssfAaKaJB+TEwdNVHxBItL60kOKmKdpPb/QtIowDn39B2R+6c/IDIeOkbrWN01SVWXsiyYcOG3QgGhswjRqX7xLAL4cywQEBAQcBMZsSRm0M4WN8VG9BME0PhkdqTgdlvGEZOVpxGBxEVUCg4RxXSlCvFyHBqtEVETRB49xXYa0xUyxZyaH3UVQ1imgVrsiKzBNTkzdTDEmdPCylRAVD5Vz4mLnUSHO+6ktbuX0oIwin6YnhbS/l4rtcYkQX6F6UvTCVI/fFtJ8SSPTHhywURll1cm2fI9quYCAgIBDRWFDaFfMtpgIcZfFNKMFyThjH9E/8vn8hzJ+NzKEXp9xJTzYLhKNprUMbScy6LFRwPJ6FCj6RxyYqMohwai3mZRrHpLUML2jSFSFwIc6ZUoQjBuKSscqKEHFvgg6wTS9I4JlSDqjONuggv5HHJk6jZCpeBS6fKZZll8fhbUoD9zHqVuWBwQEBBwqYE9qzImJ8FnxbhiMDi9DqMSESHnDgWaTqFyaOwNNB3E2q+WsvAG66lFZqpAXYNkC1hZD760VskLPt2lxaDh7O5Jr2vpmGS7PUoryuMrly6imyxgjqlEEsLhPm4djMlL5OMrlyvBy/3gOpseICvV6HfWSNM1MR0SaVcS9ricwgkuJ1JmAtjN94AEBAQGHCztdrvEUzDypCTK508FhflNRhtl6qNwRl5ahgqV1OZBJOkwQJGrf0IgjL7OHVicxKg8U+ePyAlxaNI/Nd9w/pNbDl6sWN/nk+Ef6+sl00T77UtYlqukq9BqVG8ME/Jsi2RxjprhyoiKsU24KoOa9KK0TAiYppx7zoM0PzafMrj+ZjkfZs/Nlq2A9WldAQEDAEQNtj7c/hb1hbNz60A66qMYtoQEOF4x0GHqu8HIeRli8zQaZI+OPGtUG+jRLFPDk4OOTWJ6oxssXdRRyG1u57pGOfjJdtM8ydbrL4YgT1ThIToV+mYS4iULlOhAclLvmTR26DBEYURE26FHSTTLh6w4ICAi4r2A22BkuNejFkpi3z2aoCyIzr8nF/YEP245uNo5LdR6eBGgL64w+Zd7m1pNCPVGVdYvyVofPM/nBEVUVdbIqxnb9+c4QvgOG1SIq86gKdXbQ2iX5mEdFUXFtyi8DlgpBrxiYcplmWX6hduDBBwQEBBwOzN7YGfW4wbUlvREQ90lSlc+zMqxkeaIaLf3B4DOPccLr+Trq7HMZ9aRw4KU/D227VIfFJ8fv414yjaiq6WmovUY1ErhOs7mDIapq4+aZmUzrsXFBAhJiGh+sg2JdGnSTpBsqPClpG5qppGb1FeRa7YOlVjYJAQEBAYeC5Wyfj42bw3ECs7j3hBA68+rlo/ukKMNhT6bg1X2n78rZwXLjz/o7kG02TBKVtWZgni/HwNdZyM2gex1ipK+fTBdlyqimp+EARFWAU1MW1+n4Dk+CnbEOaSlXlNvQNYrOsj7vUY2W9vwSoKbdN4i4yYoBlvsyFndhQEBAwJGGWSR8MuKMT9kOjxtyKjjScnEW0iQ+eIy8KByELvshw1lNoExUHuV4Gc5+ljDeH2rUl6We12XgbayXOyttmQ6MlZKVeEmvnLEMpi79lUH5yojq4JBnbsrRWWuD9RZ1T5CRLgn6fOYt3+eAgICAo41pxtfktEtmm9TIu6ekl0FKoaptGfdkpNZO5Rp3HsrhoNxPba/UVhVF36vlfB+doATK6uUmnNZWHQ5IVF52eERV3yF9lp/G7JqUEhWT+PD1e7LSFKIqpqelEV/veP0H17eAgICA1cV0I6wGzOUjLDk6KoPtMsPfcERFuctXuYsfIaKyeCH38P0t4hbS1rIvlFTLMVkRKcp61TLTsCxRldOHR1STbifBOoodfHy8kt/Bhw/+d1kjsnJjUrmXjcoHBAQEHF2M7JUCxDLV7lbyECfxMNSky1QZKuVridSz4j+vgzzGTXea3Zsmn8Q4YRRERVQJpNwm4z6f9ne8XwaL27WvKib1DowSUVmjZZSTfJo51DVO1BME81fWMMFNFqzFV6VkaFGFbaZwcT1KdStRQd8pBMIKCAg4FlE1xuoNOVHZM1I9ZiHgoRspXB5B3fK29IPD5P6B8X7Zu/o8qs1MIxeL03IbmC7yizaXL39guM0U9ca+nDwsovKuUAV8Z6/ysatqgqiYgbIMi+YLfRnakmFAQEDAsYyRQVZiogfCtMUJn89PZ+aOSaJi6G0u4ya/z4jKF6ZHY15N0WRBDpONlEhkDEXpog3WXiwJluVsg/D3VhFj5SYamVxaVI2VzUFAQEDA6gI2avy02+xl1XaVbai+AJH/ocKos2IjjBn4KSRQZwstf5yofD/KebrUiKTJfJ1lPQvLZfWAjssegy9D6HWsOiVgmryMKUt/VtA/mYJiP8zyTrwqpufx6emjZkYoExVR6Jh8vN3J8oSJJ9udIg4ICAg48qBhgv1czgiPG3IafUbwH0U1qt5XPcpE5WH1TRIVsWxdLs8TFVHc8Gt51b56aL9XSFQWGtFNq28aliWqXF8CxUr5eg1bflueqPhZl19cayqjKlqOqMook1ZdvSMcePwBAQEBqw8YpqpB9phmpDWKw4iKhs2MW20dLizD1OpymDfdUDKPpWxZ0Wx15N95X9MHH2fIMaojWGQrqn2uEpWPe1T1q1g1orKy9Wxe1FtAZTWdM1WTU6dY/ZxEXb0BAQEBxwMmjTk/8J+m0aytypmaMJWwfXXGfZpsOMxq84hJogL5RP4JF9aHclkft3q5LjZeL+WmogNx+nUuR1EXUY5XUc8sDiznO+OnrA7TCEPLuTwfX05m8lJatSZR6AYEBAQcH6ga4pXYMDoGVLOwOCyvZCtdXdU0Uc6bBub4/OUIowzqKz+49AQcf6wGlt1MYWkOusyHflmu6F5RfkqnuDuvZjg5WL4erg09xusst2uYrNdjdaYoICAg4OBgVunAFqhsyDWKQ1fJ1M7x2n45v4jX7f7j1SK+tr4O5aU3jyJuZWh1TUSPyOeNl2PobTDjKkfSaxMmZ4Rxkx2uRzX1hl+N6ySRMe2pEYSKqKa6Lt/p6kKda4zLhpTzIYm6fAd5Q8s4tscRx5nudEmSeLTjhYhdxPpTECOXIE1WgH2r48eqXkBAQMBRg5qfScNEiScZCyzOpTkWqhpub8cY8Ek+WZZpmGaxVmD60GMIJXUJnAMQx8ULa/X2YS7xqT7rxMG4/dekEpWmmDfZlwIsPy5j3NLGFD6Pn+NliYK0JvOmyEhUVZtenhyygFaLsiQFxUhfu2H6ZAv8LwiKQ7aJMs/JCiUxiSnCJCJ0FG5bMX39oDvfIFNazCkA1c5qiSI7ICAg4BjBpGHiybqXmj22VL3Hw09v70yuphYfGWxklg1lMMhlYDe5ArSljpz4nB+2hUriGPRFm1olKsI1pwQFkbkFSLtnEFZJoyg/nse4pY2EfJ7XKOuuClGVE6PXxuvneJ6BJOWiSmjoANJkbzbGPJ4BJFEuEYip2YyliZBzyYkpXsxYwE+u1o1j1DgijFp7IyEAnZqBBQQEBBxzqNhQb7o0KNkxHx3m9ZsgdHWJ/+ADpEpYmWQDhDmdgFjLsykSFiuPnEdlZflZ7Ye14VvyL2gkyu1b3NczLrd0PVERhf5qE5U2UxTiI400dB01VZcPosowa9wtoiREzmIaA263wepRBE/K1wWvy9ymUaesLuNzPueKsL4wTtLCP9XxIctaaDoBAQEBxzqc8SqBNtBZPP2sR2Hc9WQeYUO3kJvNHICkMtjUXo8PSSBpOLKC/c1BdrF6B0X9Iw/OtextrsGWED3KxOHjJVFJxvAoERXhBZyOHIU4Jp0cihFqM6jL1FylJCq6i3zHFAiN09ds5tJqeoKiMgsxqh+lyfHXnixtk2jxog0rM9FZ5NnXFhAQEHAMoUQMHnadHmGNMZ4Ob/9YzkJzGiBnPVqVpbkMmPZz6aeR2mm1sbDLMexy0R9YTJZBUmkOCS6esU8aQhS51a5qP5kui8r5Fp9OVERZhyiX96iVLbeZgiSlJOA8qYYL64iK48qgz2tU3FdPguq0BZ4UXU8qskD16VVVMI+6bIFxr+vlhnGyqieqSUlAQEDA0YKuAbl4gZFFqzHG0zFu/6rQdnS3H0IwTZ7H0u0LyCqXDLYyiiMQFR0D06eeNg91Lxp6pwEhLWqEcuU+jsddBJjUMRLy8pLqCJ5siXJ5j1rZUrfYnk7Q6HvDT7nPK4fRkG6kuwmYcgxOdTOUw4SRoDodkFJR7RSwHa/E0MdHM6oYtQ0StF2EmV37arbR5kDyAb6UBUzRoCFRMpTWLGpucaITFOLyI768DK5wlOLwt6fx08WQ79sICAgIOF6hjgD+05p1e5l0u9zclkgjdsRDwkIQkbXgXeSN4hpYOfRx1jS5DGjpcb2ivAd3LdTnG5kRlHnb6/Or9RDLEpU9mcIwIguEjNpWcQqgD3XNx8HrUW14U1GMTjLD1VUP5hVtW5yHXwp09QKYbsnhwjaGC+jXjCQykGzrnHz94wty+3VLsnRbV5I0lkEzk84ZbTnjwjXy8Gfk0j61SVqTOO5IKkso10TttjMmICAg4HsJ5g/RWuJzGEm/P1TComNBAjDnAXaUPAWiIifUEUT5EUrLEVVd6LGqRLW4VDxCifBEZYRUZI2nydIcKQdjlZLUWk14U50mSAG66v1wcvyAl4evmxPsW7E2GdHzBHhRuaTNWFrpgnz17R356F9dK9GOjZj8TAZohi8NwbmDNOn+DgeSbGrJ418+L0/6+Rnpt5ekPThBYjhZrsuK8hjrJiggICDg+IEaTLXHjShBCM+qm0qv3xgjH658NXS50GS0fWX7V6THiYrwavX6BY4oUfEylPeoRuRRDbUhDJBPnNA2MRg4KXMztmefQupyByCL1DVsYH3jpMhPS5tX5cS2zMh7A3Ym8qm/2CPXX7ZP8mROTn7Eojzw4nWy8UEdiebQ7mIsO2/qya1X7ZZ7vz4rvX175YJnzcszf3ejtE5KJUpsVyJRTIwGwLR+BgQEBBz78M/0U6Kik4CDJ/iL3VyyATVIKAgiGm7olIiqNqRtr5hFl6Uo6/PwdlzT9z1RMTSiyjEJvDlsphNLuzneQF2D4yChMbSJZcgjQyfsmVYIIdY4svp7UvnIf9sjt31hUebOFnnqb2yS0y6BDzXTFPCP6tC15RjyxYFsv64nH3rDftl/86KceOGM/MQ/rJXOiTNu4Q+jRP/YReumtR0QEBBwvMJsNI/ClnHzQi8VWepmsNfOsxoRlelVSWIUoq6VElUZls51f4BHoXPwRGV06mDqFvrCE4BYiSOnx8MK6TkNlSgUkLEhHiQffd08CcfV5+M8+CiQInQEgzLkrGEG/wmTyokdICPviVz1jiW59fIFmTsnkme98VQ57QdakrciSRupLGWZ9MG5XRROeYFwtiFrLo7lhX9/osw9aEa2f6Mnn/n7VPIu6tI22R7b9f2zvgUEBAQczzC77Iy9s2kJ2IZ22v6RHJz9nmLy1Cb6uAs9ppnJOvtZlpmd5eEEFXjdunpAeI5TkaccSzZzYxwHOc0O7pvTAbM+MDO9Kf8a4/IlKTJ3/TUqliVBgIjcAbpT8ujjGHAwvYaAU5DIZb+ksvuOvtz8/n2Sz0TyyJ87QTac3ZDeEkqhbCNrimT07lCAT2sasK5IEhydTZE8+dc2yhK6cfNHe3LPdX0QGYgKen26xcOBkiMk2q+AgICA4xW053xuqppx2na9LgWbDZvX6SRI0+4aGZhlpodhOhNAHeQDWkaaRpp474QshwPlW01FmyupM1qO4coosxxJSslqmEkTrlRM33CZhiY7wjjL04PiQe9pqDer8TEg2SBTr6iHvBQ6nUZTbvpsKlvvHMhpj5uVi76/I1EWw+uKJc0GKOvrKQ7wGwbXkmF/KA96ksi5T5uXbXdl8s1PZNLil8MLiSjHkRRnINPHEBAQEHDcAvaXzgTttT4xiPbXZRF1XkwVVFmJ3pFADY0WnTESG+8YU15E7mk3+agOM/AHYkWCZe0wL4pxIxZem+JyIQ6SFZify34pGCdKRW67YgGe05xc/OJY9jeWZMC7r7soO4xVn/dSDQcsywMcNEz1kSKSRtJDO9z5N2wkcuuVS5KBAbMBKlU9fHFKmv4oxhcQEBDwvQLa5w7stX+On9q6MbqirLD5Vdt/X6KWqKZBO67/bUdeE54Ur02NuHmZcZUngPxhmyR4vQhkQXLS61FcviNhcacKXNgMZAWd/pLI9psXZG5TX+ZO68Dz6mi5vAFvqheDdFCGpAMPyULU1U8kzTMZoKE+PLT1Z7dkzaah7LhlSfo9PryxiQpIkBgLD3pXpT4GBAQEfC+Bdpr2OuHT1GnruIIEc3ewNq+sf7Ts5RhRTWt0XMzhYchgm2aTS3rMhMVfBv79KKyHJGWTY3GSlBIMl/2Qpkc1yGMZpIlEA7JOQxZBVHkXZwIzqXTabcmQ7qHQUh8T7ckJhz6YUdMgwLQhSz0QH76YwVIq7VZT4rlcGmlTFruZpMME3RioJ8clR93QgfbZLztIWtPHZfmTR0BAQECdbfDHfQe0DXvdSrhyVGxN95jWtfu2zwbXU0wgB2FRO6ZAs+BCcvMB3yk1IilkjOoowQ/SviSNmjfE61JKTEYSJrM8sg85Ihpw+Q90kqJJEE4vnZWlpb0SwQPqZwtwYUlofehAzy3/UZ9HQ3oSR3zmVVfi4bykg0V72ZikKOPazFIN+YBH9o1tMyx+UAzREZX53YEZ9CxfZarl+w0Z5sMOfkLOmNbhUloGY3f14QMpK2l5TkcPzXYHvUu6ffiv/dVaNJP5LMl/dr+ZxpyOxT0La2rY1zLDIW+RRmhSyO2w+q28KgQE3N/BvwP/d+GS/Ptgim+NsL87fbiby6M69YuDaV+YdkQfLAtbpX+HJR3+4wML8GH6q4FRPfbKJRUc6FINy7hy7FOpEvTVRaaAYympj8ZXRZ2sDkpU3EvAgwxLb2my+9aIVkldxHlXs93ZTOOPA0w9fdw+g1+A1mZfsCMVG4TVS4+IXhS3mmfoVD+LpNNqSHt9S/q7UulvmYPH1BNZmpFkcSgpSCsHkeUpjCwfwggSyhD2+/DI+pk0uon0h0uyuKUpC1syiedjac+1tX0+Aj9dQgyd4vUs/kjYvwLw9kgG+J/T+2In0UEuJ1KRPyaK0gENP2TkDfRb+YRTw8rIDwj1H+IDsi4K6Y+Utef2gjPdscjKKEeYZYsuzgqgP0xxdPW6HGUDbZNy1swOIsRvW9vrI855RZz3pHGe2VbxB4G6WI/2lXq8Xse3htrmFeG1Pz6iSitDOiDgfg/8IeBMmJZL/3T514E/omHe078hZvOdUGZLcALcgBx/U729Q1na1ZDuHpSDPbKTQ9gQxAd5n392CPHXxr9BnEDm3ByGOqCNuvD3t1p/gLryRXPPZ57CVuvuP8jGNsKNt0Wp8UE04ohxmAar8dA6S6jbt7CSvQxV6A2/MFXaRX0skjbMCSoaNeNGL8pAPVCIrJ1v6zgNJCrreBlFHWY0dbME7R/ifZ40UIa6VQ5DmeGLGg6W8MWtlaUEX3Y/lTWdRD73+h1y3fuGcsFPzsgzfnle9i/AWxokEuMLSFzHSDwNnC1we+awOZB+L5P16xKZmenLp/+hIZ/8823yiOetlx/9m6Es7Mul3Vovs02SxH5JpC1J3NRHLHEYvODIUA/0M4th3BuJNNDHL1+3Te7Yvl2a8Njy3rxs3jSUh5y/SebWdKWdz2JsTfSGlZBcSOiJDPHjEEH9soBfZhtjpKwrDZAwOou/Acz9cI8kSQeNoTzGPtCH7PZR05x6hHHcQr8S/LjRiUZT+wgl5Dd17NLoY465s6eFOV1CPJNmPKv18GVqnHfyZLu9D31cI8N4B7zTefyG27KU7ZHvfhd/JPguLnrQCchDd0hUKBAnbZ3fgID7K2ghM8HfwhB/WyCkOMbfBo0DbSVsF/+2aT7T/anc+YU9cu1723Lbtbtk9704uezBRsGurNvUklMeNC8P+aFEznnaWulsRBX4W+52GzLTiSTrL+FvjVvI25Km+NtvpaAIPklH/YnDgtl02naOpCH7FkCKsDt26YYSDsfbcMZ9yLYp51IhazA5USYctbnO1vO2JMbJGGo/nZ7KEC+X4ylxNZ8Y10H6UIkqhvVeM0eDPNSOsUGWtcNQLg8+UkPJg9el7LoQiYky1M24ervoLLen41Qjw5e2+N2e7N8ylO1fXZCr3gMP5MSGPPVlMNg06EoymBRuCyQ4OP5HSIPOl4Vxq3uEs5sP/l0qg7v7cskLZuScZ7Rk4+aGzJ81g7yuJPoQXei7zSF64zbPOnQo/JmgLw0uE0KQJ/I3/3qVnPPAs2Xdmo60QDY7dvRky5auPP05J8np62D4uckD41IyYRChDxj/gE9wT5YwH/ZgXJ558SG5PDNr8HFT6HOGsyr8fDBpIDMyJMtrR1ATpzjeC68HxAFPks81jPgaFZCsen78HlEPnyyvJIq5aQx7KM8RQDvmtlTU2W9Lv4nKUG+T3wPO8gaY669/c5csLfblKRefADJs65lXwi9JH5AYEHD/BS0Z//wi/j3gbJW7he2h2zlsVSa3X79fbnxPLnd8bkGGnTlZf0EiJ58TyQmbYmnBVPV7Iru25bLlzlTu/Trs3Z69ctIjErnox06Qcx8N2zOLv1d9Rio3qZEUEr2HSR0e2oPDRJmoGO5bhD2EPVLTjdFZC2bzaG8KwqAC5YdPVB7j6VUkKno9KteU6SUwevOzICroHoio+E4UVsnvmPc32RMnkEb2iKzKRx+2sblXtl2fyCf/YrdsuwukksF7y7uyf3FGWuv2YJLhdLS6MuiuRQtmSPV3o/3nJKGt4T58dmC8+zjT2SztZCfOiYaSzqyVjZv2ywv/aLOc/pgIZ0j4wlAFJ5s2OcFweHYBWw+3Hj+ZhGvPmFB4JkOM9U1vv1F++Mmb5LTT1oAMcUaE9r7wpT1y29a+vPxHTtEp2HpPX/bsTWXDpo5sOCGS1pDLAR3pghi2bF+U3bv2yumnnSgbZ1o64LyVy+3b9kt3/6ys64BIT8Tcghx7mIv5WS4V5NJfamPsS9JD2ETeTGtWeilIvTuU9iwIB1/u3n2R7Nq5T07Y2JT5tdADuSYYyL27d8rMmln8xSSyr7cgJ61rYZ7acvuuvvQXMjnv9I585aa90u925UkPX4u65jB3OIMcoB88HwkIuB+DlozXlRo8m46b+JvPpIWT3MEuka+8fUGu+beGbDwvk4f+eFtOe8i8rN2Mk9EZlqPRt/J0XobpUPbtGMrWG3vyzfcsynUfb8i5P9yXH/yN9TKzmc/p6+g1eP5988SVF+cLi3o4oH3mbmqcrMIe7AdR9Qc4QT+iRGUkNEE6Y+mVEVX8mt//w9e6OMBMHtYg4Rs3eQF6HO0WvAAwje8YUW2AUCKEwdSlXJAcyYj6fhlQr1N5ktKlwAEIIZEr37xbtn4enkU7l7y7KIu8Jqbuagt1NWXQS1APjgxfKgoPuakCXwSPIb7ghaWBtNuboAc/Iu/JEsrPJ2tkz8KCyI4NMN6L8ogXNCVL+/gR8UfBMxgS8hDeFTqOXxa9LDr9OX0ffGm9wUC++I2d8uAL5mVurgNpS9K4L/ulL1d942658PyT5b/ed4Nc+50F2Ysf5We+fJ30sw1y1qnz+GE05CMf3io3fmen9LoY3xfuldZcW046qSmXfx4e4zV7Zc/OPci/R+7Zvkdm1q2RL3x2pzzwvPUyBMF86OO3yKkXbJArLr9b1naaMremIVd+c6fcdvedcsoZJ8tnvnS7fOCjN4MIZ+VLV94hi7JHHnD6Rj0re9t7voS+nyEfeN8XZU83k5Mgf+d/3iJf+OpWuWvLfvnG17bImrVrMOhMzjplvQx4/1q8JBFOEHgJMiDg/g6ulKjBanDNoyfRjhn5+BsW5Zp3NOUpv3KCPO0P18j682eltaEnLd5fClvGlRTaRHpiXOaLWhDM9WXt2TPyoGfNygWP78hH/zKVm77Ylcc8dZ3kHfzNgaD8445w6kyztAqgfXYn8bDXKWwuHQZft29ilHaRImRfqOc1izyiPm7EM03PUJAT4eNVvfh/vOYPXktPxHiGmTyYUAHgZYDXQUhD3mo55lRaZqbTA3xDzPc30iopeXKCjB4VPS09HEnRg+E1Fdb19XcuydL2FF5Ipnv/BZ4PmgQRwQNJoTHsII4fD85CBjj714UtNjSckUHaQ5kZyfpQhH6L9w5kifRT/BCa0Ef+zAmxPOqF8zjLQRU4y+Brm9lv/kho3DXNMfDXxnutEJDIvnLdHrnoAfCG1sIr4aaDfiRfu3IXvJST5MFnt+S0U9bJk55wkpx7bkfOO/sB8pnP3Cqnn57Izl2pfOvmW+THXniRXHBBUy688CRpzfQkRj+/8NXt8gPPPEUe84h55J0KbyiWDevXyE237ZYTN8ayfl0se5dEvnnzIuZrKBddsFH6aPfL39wuj3/4aXLTdxdk6509edGPnCePfUxHLnjQevnc5/v4ngZyyuYZufKGhiwu7pYffv75csn5J8nHv7RF1s225GXPP1see/EJsum0OfnqV7fICSeukwec0gJJcYMMr49xCVC/yoCA+y/wx89HrWW8Bs6HBPRy+eSbFuX6z6fyrP83kYe8gJ4KPCHYrqTRlizqwVg0JYfd4Xv0hghpJ2nzWrArrTTD32YmcycvysOePidf+1gqX/nUfrn46WvJgxLjj04tKMOK0T4UkPRQmdpjJSrdUV3QjjXhSYVhOU2gPKMMSv3x8ToZlRmvz/NYGVGZCeIYRvAVm5CuH9N6QJ2f/GcDL1XIYLxunRSLcIJYhjLYfJbnhClD4j+JipkaksVQVTrAlzWH8xa42CAJ3pjLL62HzAH8mCHaJTlxzS7N9uG8Yw4/IG4rmIPnshdy/Fjwq+DetQxnKD16dGgsw4+I92f1oAvqseU8vacK/9g3lCGRMt5AGWjgEL25mWvI9DiazUQ+8uU75B0f/q68FV7JP737O7IzTeWJ379eWm3MztqefPHqu+VLV98r27bulmSmLTt2RSCfOdmzOC9XgtTugLzdiWTzull4912MpCtXfH6v3HznkmTNSM7YNC9r4OSdfCq9rX0Y75I8/CHr5eOfukNO3jynz+3atT3Hjz2XdWtJRDvk7ItmZOMMzvbgtW5YOysv+uEz5PrvbJG0n8nuhb3yiPM3ysY5nAvibOqePUvymMdukg7GxVGdtXGNPPTBmxDvYZq54wgjzVvBmwoIAGjaYA4Ef4Z6orhn9x754r8uyOOe35EHPXFe4oU55O+DjeirMq8J0x7FQ1irHCejWapPbaMVynHCPEyQ4CpiY51sOCeX5/78GvnUB3py902wc3EmKepSb8qaXzV4e632bfSvZONHxOgJpNQDGgrA1+FRSR4yqvWWcYjnyq7Hy8CTlHpU+E44M+ZZMaSABpJxHk6PRfhrQDaXCinjGYiG6CpLcXnQtm8yn5syuK4bw7tYlLTHRy7BY0pAXiAjem1wh5R4UpZBPbr8iLrVs2M+YP0yj8ng5Dh4b5aeQdHtwhkQt4320Nbpp7blnLOa8vhHnS3PuPSB8qNPP1vWtXbJnfcuyfv+6054hS1Zs2YGP+ih7N63IJ1mS05a35AX/cTpsh+u0Uc/vEPe+vYb5bt37JKZbFZ+/HmnyubNDfnEFX35v2+/Tq65Hp4TfvOXXHSy3Lp1n+zYF8nWLQvyoAesR3neqLwgn4IX9qDTNkgTP/r+vjbaa+LMjcsNIGoQjq7kgZi7eV/Wxjl8I5GkCS8TY0pAQlHMCOi+t0fH2m4uSlOXN/AfgghnhAEBAWYLGrADet0J5LN+8wny+J85UT7x1l3y3S/vkaUZ3u+5XmL8XfUXuRKBvyFeZ+JJtV4n598mbBK35SIzw18jNzBRb9ctXXn73/TlIY8fyCln0mPj0mILNotb2Y8UWPORq321cUhEVRh0xg882BHh4IPqJAZd5iMhQaAyLq3RQJJQ/LUqyEgm9gxAEhRC1Kc3CqMMD73PanNbnv5rG+Un/2qjPPNVG2X+FPwIcv5ASG5cDjRiAqfZwbTKrI6x74t90QM/IYRccdSb7xAO8UONGy2J47Y8/AGnysUXnCgXnBXLeWe2Zb6Fn1a+SW66db889lFnyVMfMyePPm+tPP7xG2XtBm4/XwTPwYOamZXnPXuz/OzLzpOHPXKjfP5ru9VTm01mUGaD/OIL1skLnn6mfPJz2+WepX26q/CRD1svX756p3z1ph3y0887WxbhId1wV1/uXVyUC885AV2DB3ZiKnvvhs8Ilz6R9dIctuQr39wta+ZieF/4Qxmuwx8Gxof8Nvo6C/Latx1zgLO7mWSDNMDg23dj3hozOscRiI3f13H0Ww4IOGIgodC/yRBJo6HcdW0k5zxmSR7zI2vlvb+/JF/+3zsk3wFPiBaVL3CF/eBWdl7TGA57CHkCyLefN0FoSyCuXNKlgVz1wUz+18901bv6yVeeIt/55oIMFjOJYASTuIUW2fLqoWyvS9FjHofoUbkBr2CgNjFm9BnTpCsHihqRlZKG93RURjKBB4Q4dw3qAcNJj0i9K3hAzGvNR/LS122UZ/1ORx7yIpFnvLoprwBhddbTq8JZjhKUeV85fmokKX1sk7aBg6Ee9uOijB+eQBX4UfFnmnErPMt2F/TJGEO4yXxEUx9kksIz6SULsm6uKV+59h7ZDULb2luSz316u+ze0pf9OLu64qtb5aOf3CF7lzK+lUT66UBJYxdcnP/66A65czsbnJHFPfx5phjbDH7nQ/m+izfJd29eAuHGsn7jQE4/YU7+4wN3yjMu3iBRuyu9Rl8e9bgTQWY75BoQ5d393fKlb+6Uj3ziennixadLGy4116UXs64Sb9bqy4UXnSRve9d35Ftb98q9vf3y2avvluu/s1X27IOHGieYq65dp9MJCAgI4CatxmIi2y9P5E0vuE0uf38qT/7tNfKMV54kn/zrXP78Bbvl6vd0pdVvwWTA3ugfTwxSaiPO7ebko0ia8Yzc+ukledNLF+RPXrIkD7honfzaX7flllub8qoX7pQPvQVeVYPPM90HC4kz69UG7Z63bccJGguLqdlmTZK3eNBo80yAM80lMculkSbo7cRJJmvnWoiD/XnhXc/DkV+aAHtxIj0k3jPEJx+QNPBl4WCVfEVyzidJwGpnKfRxVsHn9A363Bo+kA/+t4Hcfu1uvbCY0WqiCa5jsv1GlAjvBD/r4qH80j9tkJkT0Bd0Y8inUyz15e9+iVs/7QIn20bE+oIx0Nfqoq3zLonll991Aognk7hlWzU5FBrzJrycJMZZEZuN2blYcigk+ZJ87Mqtcsn5J8oJen0JYxryYYRzkkQDkEEun7vqbtl6Oxz+mVguOm+N9EBGg8VIzj+/IV+4ekl23rEoWdyTde0T5UmPm5P5dX256ts75Pbvcl54020s3/f4U+XkTTwjsx2IV359UTasFznnrDWyc/de+cJXd8vzn7ZR73filUM+Xum7dy/JlVfu0CdztNuJPOEJZ8npm+1xSZ/+7G1y/oUnyekb5vRr6jd68p1bBnLll7dKAlLduHkgF55/ktx1z055/EUnS9Iegowb0kz4Lhu6YgEB91/wpJq2LoMt2vqN/XLP5Zlc+DNrZKYVy46tPVm4N5cv/uuifOWTIJfhvDziiSKbLkxk8+ktmZ1vSLcbyZZ7Urnz5p5cd3lDdty1JOddtEZ+8OUNOfnBiZx6bkvSfi6fec9Q1qwTecIzYW+SFH/7nWWv3awU6D0+cWINA8zt6XofFW8qptEDeM+khtoWr09x2zjtuvEBD+bwqO7yZhGGXlbkw6XQ/KL/k2NhO1XZpJ4SFSOgFPxjx6Dg3AwlKiZVAx2hwUdodj+3G35hWCNYUuoUbqrTgyKrMg+Gj/0BaSBLl98gzwcgFXrEMIjcxUeyInnxCUkCcvjg72Zyxzf2gixQnlVrtZxsDA5n/Sk8krMeE8mv/ONGmdsIBUw2n8YwWIzlb39xr3zjowMQDwhNdwaiLKvgnDeauuvlgZdE8hvvXK8/kLgZGUnhICe2EnuWId+MmTUGCEFv+PKiYSpduPQttMXNILwQqY+rALk04NnQ28tAzLobEWiBa/BzU1c+5qYO6g5i6cEj67Q6IAnMX4YzrhikjSLdXl+STkvaGH8ja/ESm35pAy2PONrhDc55zhuUQUJ5G33gJKJ/sf0h2Z3wQ2lhMLrswB+cLoVyNyMq4deLvuWoh9v8eXLQaqE99J1P1eDTPqjBDSs8o2O/AwLuz+DfDo09LxkMYPP4Tjv+ie/dkslbf3uXXPjEDfL9L4/lXpxsfverfbnl2lTuvXEo+3ZF0oPNiPE33lnblQ0PgM166Fp5wMOGctZFsdxwdVv+9n/uklf9+Yw8+NE45eQfPEDi4N8470+q2OxDAp/hqX/6NLz4e+Z9VFn5PioaPYYWIOQHM2mAIIcd4AkxsVKiglV3+VbOYzy9MqLSN/yWYV8IUZabxEQcAA0YB28DG6+BcPoKU6COr5vjUQ0SIeM6KEa9BgdN6mQbICYQHTV4zYll+Wp6zjdl227LZc8W/IBAlnoGEDdl//ah3HUDL0RyiRDkh8NCej+Z9FEflxdTeoiQj/rjQbGT8eATLhjT77TRlhm0RRm/EH6XbFe/U3gm3KnDp1u0WokevBmZl0Zj3lGMetvIh7Mja9tz0mId3OJAcsS/BN7L/FxHOhyLyosvmTft6vjYHmrUl1VCx35LqJDVI5+XZ2fbkZIU0UB/6UNSjz969oHtsaoYhM3t/jPw+GL+6SGtr23hHwfGRlILJBUQYH82/KvkdaoW/9j4F4u/zy13DGXHzkQufUEuyexOOfV8kRtu2S+Pev6M/Op/xPLfPxrL7763Ka/5WEd++70dee5vbJJv3xjLgx7dkpl1kVx4CTyomTVy07U9GfR5Ez5tiv2RGomsHlgrzcnomabaDoUWjFtBs/Fmjwt4e6R23x3TsWzmQUGnwhqrVlpm8vE8pmyzA4kKZ+oYC7TxUa2jDGpMz69OCMH6dYs53Ck4QEpOfXzoBgmEvKl3152JXP2xHmrO4JGQ9XO55mNd2XITSI162k8SFD0d1oG4HmhzssnDBr/I4/UICAhYDuW/FzN358EL+qP3rJXZk9uwMyfI1jt68pb/Z1buvnEJJ4Nt2QcS+51nxXLXjSnOJ2dk+7375V1v7sqVn+WJNU5HN+yW1787k2f9+Iy027BYegsMAYu4igYKPTY7DXutK12Mu7wCTqJBNdfGfF9hxNkH3wkYe7oqAAdtRGPpqVhhG2R8OltKUiAUXU4D0fBJw7oLEGk+6ZvXurgk+Km34WN/Kikf8trN5cP/wGfm5TjoNUEHDevmCz14vQwy1MPe+h/cCD6u8nJGQEDA/Re0BWYPCrJqSLMdSzLP5QrYpkZP4k4kz3lFT57wnBkQAryiuC8tFoNtipOGXPjoeXnhKzM54WRuXefT0teiTEtafCgtt6OPyMmIbLVMEO2zr5p2e9TMgeDaX61+HCrGnEt2hsxb7dNkJ8H8DRAHWESX7Q5yFKZefNnlY5SP+nPokFRsXbihmzF44695SEjTW0oinK3skg/+9aLkS7Py0b9bklu/uU3yVox8eF8kJejTKzOisrK6HIj6ER216zGeCggICBiHJxQ+VilqcMNSV69jb4Rn9Xv/d4O0ToR1afVl/Slz8r8/25EHXLjOrnWv6cvv/Nl6efCjIomjti3hx4uwQ7CpurxP62PXePyxWtC6UR+Jiva76lhUzKDaQVjlCfl9gTGiOhB0oDg4PK6j2ksKLe/Q4UjKTQjj/MJiXpBDLr0rXb5DOwj00F182nWQZY/PHGzJv78hkt96wh75lz9But3iU5NM1x0pGI9PbCdJ2TIiL4yyHjvbCAgICDgQCt4gifBEPYYd4bVp7oAGOUUD2Jq+xM1E2tzolPVkONuXZpxLaxCrrUlT2s+u6LNJYaS4m5ovgS3vslabeAQIQk/cYQBpv3UozuaWcQSaPWyMiIqda3BnSPFNjMy3sbpnd25hwGgR0tPpcm2NQFkoqNwPVXesoAVN4YPzYQ3q/jKNcacey/B5evpMvRj1Jz1ppU1JhRsiSDA9bjyBKvLIPgj5I+GXjKmXPoIMbvS2W/gj6WmafdVrUQx1GZCEl+kGijznMmEPfe9IG+0NGyl+KKyLXUGou1x83I1PcVC8HhAQ8D0LEomdLPvHDkVRB+JEmondMqLmAl5W3GgjRCJuSBNeVKL7k3hrS1MJI4lRDjByYj3ezqgVOmjQ9pmttrhFzI71+jxBR70j2+Z1S2X000A+0MOlDwQlPVbt0qxLL+W4eLnuKkZ9rYGbEUwQ/0Fv1KFleuY7w+7TS+G1IpVRouWKwnqWgbAQUweykZBlLe5f4qVPS5hNJYv6+vp5fdwIjt6gKb2sKf2shTgOxFPE86wDUuqAstpwa2eRRhnkcY1YQ76IEGc9Q5z1KEVyH/jgZGnNgsBAbHoHuGufnrju/SfJMlS5dtOlXSIgIOB+h6otKA6SlZcjVAIj6SRKWiqnTUHKtpzbTmEr5w+rmyjqPTh7Uzb25Tjr4Xb6wYCERCtL479M3eW+oAB7PiZcBqa5Mt2VwlO3oTIpfpIsLCZtFGLCyZa93gCkQJeV0vEq9eQA6valYMBlAoCM+RrXg1+sSLMFjydNpNHk87HgosLTSjO+usMOPpaWIc8I4C+BePpoHzK+7gPfBuMkSF2ahNelT7uAuj4/cNAhFeLffhnwHiNBG6iP7dsPiB0Z7xPhw4CAgIBjHVV7xc1kvT4fJsBrYY6ixmzbpH0foZq+D0AaWRZF5zUoDcIGTPThUtkOwMkB6aSo2JETDyUE875YH0MlLBzUH/I5981ILrhkRha7e6WRzoFgFoUvOByk8JJw5Cn0eECWwXPi2ypHB/V4TQqExbfo8l1UuiSIY/dgn2TNXBYge9CjY2l2eL8CPTzXfx2SMm4pDAgICDj2YfYUdqwCrnzRTquJU7tttm26fT+2oG/4dXHtOxfqKJh0ISF3Ik0zHvECIDwceC+tOJHZGXpERjxWhm4m10RBLDk3NHApEC4ovRzEeV8T5XyeHd1SS2fwplAW8nhB5BP/nMvXL98vSbOlz+5jvXYfgE0om+H2c0b0H9lO+8q+wSsjAeGgOkvkMfqCEhc9Lpef+e8zMoiH8OD4SCjewCf62CR+jwm8OP9a+uLLtDAgICDgWAVtJA896aeBBPYtDnECzx2KdBzMbtMgjhMVnYfCxjHOFGpRXQ/TsXqL8rS5Vt4vKXLlypfzeoQ+HWcEOglO35UnyvrEioiKsKR1hlbfAu56cRWCPGbaIKwWH/vhGZsbHnjBLlFy0nuict6si1zE9Vl/CDln2QAExjRIi08Az4Re0V6J+uukD4br9zJ9+jj1VYftoz/KQ5wNdgOHEgvIUhJ8UY5o+Hr5KDECyqNM2nDY2iDVBggqHzal0wRLwoujPreL0sNqalk+UQL1OlQnLyAgIOBYA200D9phvnq+3+/LYr+p9kstGFezhmbY+Kgms2sMVTSC1z9GiArui7UJkKS0ehQaV1SCctBXcmhEk1qG//nYHTg+0mrCG+ETx3UyUCc9JeTzIGGlJBzE6Y7Sm9JHJDHEwSVEIyMUZ7nMb4PnARn64cMybFyYWDTpvboGyEmJJ0aFJCGm1WNy67RJjhD6kCWIMC8GwfFZdypn2dI0VCcvICAg4L4Ard/IGtFge8BuqbcE4QAa/X6s2+G5Fd4KeLKyJF+S6jFBDrSDDFXT2VuWK+mViaUgGro7TscHkPtSdpmlHuX6yhgnKteYdZ1dNHhSKEJ+WkVlwqCnxKUzvuW2A6+FGiQ8tkk1zhWJiDfucoukkg8Yq9jsQI/KdLgMyOfiq7fFPBxGUDzgyaEuTIsJdBKQQpdHu29INHCH+EgSEpMoSamqkhC9LD7vTkmLBIUMW/qjV2U6nKzRtnWgOnkBAQEB9wVolUbWqGSDubmNdopGvQfT3utzyc/smkdhx6hrMS8bt3F8JpCT+TYQndQ1G1+g8JLK9RWe1Dg5eg6pK+PRWOrafkXVdQrcGYJqNU5MEtV4RSM56QLEQy+k1YrVs+Iymi4VIp+k5J+1p+QEoRET67A4yYrLgLokyEMJCv1jHB4a29L7p/iflQKjcSFk27ZZA3ESE+MkJB7q5lKGOK9JMY3+xSQ0yCFSMjM9khTrcY0AdRMYEBAQcLRBq0RrZLbXH/yEfRzG0u/Bm0oztbFqAx05VG2Yt2/1JAHb6NNoR6Ol/LIu4zysP0eMqCzhAq2mTEYjInIhiulRpB0waH3NO8iFbSUtPjWCmxLsCdzU51Iel/w4gXyhoZIVPnSJjyEaV2IiQSk5oSDyircDm04BEqoJbIAkRyMqEhKX/PhlkIx4c7Eu58GDYr55W+ZBJRAoSak+ziSQXm7iAgICAo4FmBVWitKTfnpRaZ/2mSfjsF+wc2ZIC3hb6UvX2Tq/9KdxF/rIuE109nYkKwx0We+wiKrbIys4EnBCVrM8URUoy4ygYOmVxHLdbMHBznWaNmGuU0pGIB6+fdfH8V/LGzmR7NzynuZbO3ptjKEe1uYI6K72GG0YyaBttKntcrZBULwGxTlgP7yHFSt5kayQrwfzrXLq1U1aQEBAwH0J2ldYKBoptYW0obz+v9RNkYYcXpXZLthKWHTaOI86m+Zl5bwqUWlWTVnmUlyUZd8M5fruU6IiRnLdEo6gwQ3j3HBhRBQPU33XUrMVK1lQn3I+d8+ICgfK6TIgK9AHzxohyYi8mLYvxeJssDwgt6ynByeOy3q2hKeuL2ac3hSLMCg2VTiiotwRFVrU/hO6gzAgICDgGIJtL7fbfrhbutsfSMrH2XH3MmyaboeGkaQdM8OPPKCOBAgvL+cfU0SlS38VeDIgrErrrj3ElXFIXT7hdenxjME1qM96curciZdwY0Mi0kQ1eiagBMVHfHC7OnThDfkm9LoU4/C+bO6NsHjdawQ9uwAg4iD5j21r8zhIRP6Mgg6fek2U0atCPkkqhnusZV2ZAsU4AwICAqoYMxcOpIj6HKBWzFtkCltDe0fgVB4fvoCd/LN2fdURiqR9PhYJBhRQYtEVLcAbXAe/u2+MBDROw2iXOgy2gYIY2cMKynWM1Qf41SiCOdV8YkynNr9GRo/KEw1RGZ+RjDWpeZbNSLmMj/shlmXU9p4QJpWnAJDQHW3qW2itbuuc6emOQJITyzDUuJWxeqCL0IC4G7jWwHpwcOmPj1hSGUkJh4aa7b0phPxyVU5N5Gl9Gg0ICAg4IGrNRflEugS1VGNZluBnWezMkbN3ZodpE/WFsYjTi9K6cCLvTJ4dWsowbvBRGBiTaVwtnkVRIyxwibQM40WqedW02WKCOfX61heimk/UynTpz8FuziXGFTkxzuRjGJy5Qj4OIxoPn2+fvL7kl/uMcPiqDZIQe6DXqfhFMORyH4T65eCL0DQryd3Soh7oD8vhwzw9ACJOu42Tt50xjsORFOVKTIjQiyLBMc7dfhKl+MAXZYVHgIaLBQQEBEyiZJsLQEhrOQHaI2di1Da5RKORQh8G0MmMLHiN3wyXark8Qi9V8MAHRSZWw6j5RFE3w4IcCJ/Hiq12WrpJ+6d1AvYQh0lU9aveUjm30C36MtneFFmZqNRrcSkqG9HwwBQyT5v18gIjQhoXj0CS8de8dKER5EPQYbUNFEN9MaLe7IuDbi/vuaJnxVAfuYSjuEaFQ8c62Rd2UaeHE4ZA59cREj0spS/1pJDHLKfjXW0Fo67a6mpmQEBAgIczMxPw9rpqc9UMwaZoyDSvJwHeFqlxR2ELKeQDs02ZNszkONH2+iQzNVZmnfU6fA2oa+F4vqWNVI0cWZe14W0rxdVyRH1dRkI+r6xR6K8CURmsk6auPhRAWdFEmR8KoiqE5caGkiDPXNYBDiMF8jfJCAdJCDJ6U0pK7j4qJTIlLXpN9J0y1ME8khZrNi+tDphqCxHokp9+gY5qmaZc/0Hm8jzGUv4XFxAQEFAFzAPtRS1oY0p20OKwN5RrQRfnwdfW0zBBrpcpqKp59KosPbJZSPg0V4j0dhr8QxIKhb2qs8fj/bHQk6T2jQE+WdL3VyWlcsT0NPtb5PnYuP4hEpUfEBX82CijOg9SlR/CSjwrD5/O1C2xCeV+QFu2I+HY5gmryx6rRILyS31KUtRDPfSu6EVRzpBV66E1G3xI+MuOdrMbQ7YPHX6xTOs/hBCiZqc9iXppQEBAwDKA4aC9GdmPUlzlTPgQ1of2akQYSlS0SCQtu46vJMWD2fjgM0sZ8nFvlEHV3oPo9lIQZYNfNf6Wdm24PMbNGpot9WUYlDmiHHoU6UmiqupSx2Myb4qs7FGVUZAOOu7iPqSzSXkZhX6BQkbPx5Ul4bg4W2acxKXb0jUPci7/IeT1KV0G1Diy8UF9dXa1HIQ1fSF4YmHjpQ7j+BIo0P+mb/kWDwgICFg10M6MTAttj4uqHWI2yMfJzTA7q4q4l5m9InkwTYNm16Y0VCnliOvyodm5MqxeC2krfbqAESRR1i1sZlXfUJUbqRYo5xdxIyefNttt8LJqvWWsGlF5lDtQxHmuYGklHCcuExWHUfaUiPLuP/W0mEc9ltF8aqEfJDRfCNABozLtpQ7efhAKHwLLTUxAQEDA4aFkdwBPNgQJh1HaIFhYxMx+aZp5GvJwdeCIuAzIf4y7kPn0rHz5Mrx98+EkDp+oLG621mMynzhCREWU6hqr2BNVWVZFXZ4SEuSWBU8JE2Lk5LwkHUtRL4lIyYihjVNhy4emQ49LlxKXwbQJWGZeAgICAg4dsE92ek6AbEaJgryMZCxhNop5li5vstPHuiHUQy9hcDOF2T/CHlIwiWUNv2vPExVR1l+maEWP8YKoqm0W6XGiqsOyeb2++SX1xOIiDnU6xIhYRtM5jqIcicrSPOyFh0zbMOzaFSPcOEECgpz5LMoQCY37PKRYhte3qECZAtXw5IXaPAPBDLgMwisFBAQEHBnQ7oy/eaEc56eRlBnngqAIRu1gPsoh7pcJtYzqwNqqEvMKTDP20QGIoiqvU6sra7LyDcPjKMqsElER9URU8l5q8wtw48NyYHklJOtz4RnR06LcV4+EihFlvveYCqIigTkZDwzQ+laQlft+HdxXyTL6g3FKAQEBAUcIZnjN3pTjhJGU6cB6QaIJzfdyijxB8dANFdSEDfPb2qnn9vupDbR2JsFNF8vBl7NwUreu3lEZ18c6FOWWJ6ppco9Gr+eIyumZwR+HicblNWroSn1jowcoAuohKcnYVnX9KpCtw9A6kefqNl0mSEQmGJES6mA19uVYON53tsGD8GFAQEDA0YIZZ9qfskdFc+Stk95T5YRmrD0x8QNxSMxb4QO0jdQ0a/TCQxKVA5qY9mzS8hKfh1Y7BiPPKkYk4qtwSfbG/i9HVC7iCrMub6fL5FSO16HRB1FpMac3buwLTMqLBg8EaumBjyIOYsnZqO3q0zx3eJR3CPIro3ZVR+txoYfFlx94QEBAwJGEGXC1WpbWOKWM4xNptVJKSFwqNJtFb8l7Sf62GpIRdTzhNSK9cKJ6urGCQmS5ZykcEOV+eUwji5GcXS6nAYu6jAm45UmgXMbbasrK8uWgRMVGyl0uG32PSZk1UKdbBTW8ll5T0n+I60YIyrgMSIHFi7pV5HQYo5yek5Xz8NFyX1bSr4CAgIAjAVqqwgh7wipgaSOhUZqEhdBzjYpIVIh7mTpMyGjwiRX4NyIwzUWNPrIMyv0qo9pHoizTGIqMyUZCTY5gOt7rGy9D2+zTZflyaKSpvc9XncODMPTT8ycbHlv607SLow6rxjZZ+OtOBOsvkxo//JKhL+Nhaf0Yi9f1JSAgIOBoYmTMNe5tEtMkHHw6FtK4/vMERi/LbVFjHj4sj+WsPiUqZjJJ4zdl6a+wiQUORBLlfIuTNMfrqaujkBlRLdfOcnlljBEVUUdAh05aDsx2/dHrThaV0VMpeFCuxAQgYcRlmvbJ0CpRsQpZzum4kLD4yiYgICAg4MjAiMhgBEN4Y18mKNOlhUMC/8k3dq8UjL2JVM9CarE+S9tnYf+Ww4GIoS6/kKmldnHD8vqTREXbXE7Xla+DEhUC7YJHHfHUyaqYpqPkj+ot14ZK3RERgaB0SG6BlWLmM7Qt6BBqefaRadRhRZG0fpfbXklfAwICAo4caJc8UZk9olFWTwj2yQw05Rb3BpvkpV6Ss3X+GpVZaKtP801dwbIHsnm+/uVQp1OWOcu9bF3jeeNE5fs47Unsy6ExGHDvHSsqGX/AKp3skG+Mja+UEJyXqsNklSzGIdiDak3IkP3QpJOpV+XSXADUf8zT9GTfTE4Fxm1Mk3D5AQEBAUcM3vaUDLvzmCxFuUaK0C3b0YwXK3jckMDazG7pO/QQLkcWK4HZb8ZK/RvDuNyi7H+d/SSBTq+jyhOHSFS6/qaoVshusRMT8kr6UDG2vIdwtL3dPRLJLwWScyzt2nVeFGHXrQzVftVNXlUnICAg4Ehj3OgXNkjFLos6jNq9U16fN9MyNJk+6w+os22Hgmo9lp4kpOXaK4+nCpYr21yml6trGsaIiihXevBEdTAdMO+INZWXAHmfFN0oStiOnzKfJjSwqMKJHcYSAQEBAfcRzB6aXS7bRrNR5dcLqQFH3Psa/t4pvW7lisbUGVVTrm8lqLeLVdKw9DhRLUcslmdLfHVgvrfbvp7l6puGCaIiRoSgn9MqPfjGqlAicm35Jw6azOoeeVROhyiipsPeexFpbZQICAgIuK8A8zRuIS1FbirLzWab0fL2myEtX2HY6WV5OWXIO4Tls0lMM5YkKsNypFLk1RPVtLKrRlTEOFmNo0wcYxj629TGUVqdGweqUXJhVOPuMNGYzEPbHhEZPxHHf4uXNaehfFYSEBAQsPqYtEeF3SnMDwnHRQGfbyIrq49aQliU9SRycEQ11JdVTaKONLzkQIQyjaiWK3coJEVMJSqimjGVoDym5Jel5Y4yZtNeuIfaG8Q5dJPZV+MJjVDxiKwKeRV1k3LAMQQEBAQcAYzZPo3DyiEYyWGbyp5U9XoUP/31oIO2Y6W261DuG7GcdlV3pUQ1Tb4SOKLioCcrqU6GT7HB+ibrWXtySu3sQpf4XOvWlNER454+GVcyKzXIfqm+0/GZ1f4ezsQcOgboRwIetb6Mxll01sB89FdfgMbNI5g7Xp/TmaXqMl3nODk2P16Nj+Qq0LqnfUsHA/eN4MAZnDWnrx3IMr5htPQ60UMEbz8geObIV7lY9+37Pdrfn41Uf20lWKquJ3ojOzPw/XElhm+stj7zu2HAvwek8f0f6aHob0F/U+Uzbfd7qPReTwPZP8itv7xVhBftWbb4XRGH+h3Y98d6+ZRw6xPvm+SuNXcaqv+jOJYcv6UGfkvl3/Pxj2IOPSbGhfkpZNQvPToJAWdNr1U5FfsrNyy3gaEe5d+FQVv0c66fBeq/A+rW/ZbL/aorZzic7xVENUArrGCykvIP9kigXLtvi5/4k9GIyXy//NfEDNPjp17HssQYDmNODg/DAdz5RP8U88ZAkiSSvA9DNtFH9J0/NnS0382kPRNLOuxLEkPe60gdB3BMaswR8kvnHz7jNK40hiQQGsx0kOsDLO1ZioePBvuEuvhHw7cvS2SP9V+N+of6iBjWZePiUPjAzWE++Yd1VMA+cE6Hmf6uYn0VONL8QiuIMC86HyQqjae69XYoKcbCU5BYYhhi1pOmfcxZy5Vcfei1D/yeBgOcQHDq9KuxOdQnvvAAOMfGG6ALjGmI32sc48RK/4gyCBgvdA8V/E5TzEerCSJCG7A0mMOOzqO+X4ld4tTxd8Xvu0Sw/u/5cNo/FmCEbPBGmp+cG4/CeHPQNnDK+Csi7HvVqMqPtE32KPpVhvWxnFevV4+D0a2igTNjN3L7oVQnoq7y1ZosX0u1PvfQkJLc4lU9SyOv2sdxtaOKxhBGKo5AFugTDXoO0mrsxB/jCV7BhSSdXBI1bH17/T50o4Q0DYNWYxgVbqgcMl97wgi/ucHAG0nI3B/9alxw1fq0LzzrtTPwfn8gzSb6WJn2Q0OmZEADyznogLB7fRIt+74qDawY/D3h14R+0HjHOp8DkD53ZzXKFxMcSGZZnsEYtwQ8pGi1MGPodsbvX7/qhgzynrTaIL5sRnWOBPRPAR9Jk7+rAQwcCBIkMMCcxgm/Rf4N2d+R/k7wnfoncOeZmU5OuXWZaUj4W1WBq/8gwLlJ8HeQoYkM/UmUsEnomfZPBB1FWucaJ3Psm578aFlrzHp1vAJjGHW/PBJ+EwXK9tVHlZwsqrJCY/VxcPadJOWiQF3Z5XCw+mWUiGq8kumdJTDxh95mCUUlvj2GFuMflUYUjBe22+mM8qt910+NH23wYZEZ/vCjJBb6Vfv3iNxyXSQ7t4HA2CdMnPYWRoAvVgOlqVexbv0aOetBDWlv7MHQtUZ8VgW/7PJcWRrkpsYURgF/+EkMI4BWMr9+epho0HNLaPT6evYdD0Es/NkcPg+ilzwt4Vk1yBZ1RjBudqbPsTqlowZ+J9ao/sL4H3NLkho3LwXoxdAQK7Gh7ABehJ06cBxDEDpJuPjOjzT4O8hznPjwJAi/QU5irn/ikZK/zS1/NxyXLbfBD8O8546w+Nth/yF3v7NDMTBD6aIgTm6GM5gXmwsSvt7kr14U2sB8sG72SScbsOXBiN1GnH08+LaPFdR13YvK42JUR4+QM285NjeM18/B4f+W7Outr2clbR7Md3MwunUoEdUk/A/1aIItaqtu+cG6oCa+hCLF/FWyx6sEklRXBoszsrSvL295Y1du+NqinHLSGnxZ9ofn759I8NmBMVkc7pXe3rZsPnUoL/sfa2TuZBIOf7KTYHn/vdAoWQhjiZPUbEiScl4Al54O88dBaA00GDjrpVPBleI8HUi71XLvEzs88EwaVUm/l0kTc8FrXyqv8WCOBnJ4Ajjvx1jZPo2FGU83E+NA35vwVkjgMmypAWa3+bWQvOg9RDFOGDBncYT5Ks60jgDQBvua2VKlEj/6oP2Bx8prUPzdKEHo3xYIdchfIMc5wOkCf0AgKfx+/M+GREGoB3aQ3zVJLwb58RoUnH3EUT5ekixNlBTpidKj+v/bew9AW6rybPiZsuvptxcu3EsHKQYViKAiAkZjiWhM0WhiookaE/1i4p8/ml9NMYnmS/2+JMbEir2iRkRFEKRJlS4IF26vp+82Zf/P866Zs/c591zCNZR7ZZ5zZs+atd5VZq0177PeNWtmUtZZpeLqzq5l5mllVBqHMlEtKLYd8lykyTRe2ee8skFM7mtyT+CpP1y9H0ibPFrt57EzzOuBTwQ5LYRK4Ea0OsmeYl4MupTYpO5gAZ6ITp7GurfRQbVUxn9d1MQ3PlrG298fYu1JvbLkN0I9nR+rP+Z+730RPvLn01h73AB+5U9CJNnFuhA6J9WH9qaMqP2asxGGhqpUmAnCkstHUzumpf6nYF5KRcOZ7bunsHL5sDoN9RlHwgeQfu91WfNBVYTtO/ZizYoxlhcoU9umPCed/+PdfspNU5CyjqQkRZrlCttClt4i7eHzhNqdJsolH7PTAaK289eUmhSw+q/OeclyKmQSoBc+dveoNA1Mo5dZsv+RoFoNYHoaqNXKqA56tK54bklGAmpTlY213+220W6W0aBsWE5QHaJsiWSSnW9+7R14W0yxDurYuS3F0DDPnclNj3Mwtja1egpDkrh4Milj+7YOlq8OM+szJ0dXd0/ENfxoYDGdpXPxZKFnx8K+56drWxrN+efXej8W83u88EjyfSzKxmutZ+IfLNBpUk3ZyFSXk/baFoOTlTLdd7NO8ThvQZii1K0i4ohx0x0+nnE2sP4UzcnzYrURdsyS6X4S1YTfxs69M7jsEmBkPXDas0rYdksH7UaAkCesEbL2UkDadOyxraRC9GnpLhVP1Ilx1U0PmUVV0sKNiG2pi51l0c19u1VCJRmonT3my33QoQytr4THIKl6VMSWLr0DrcBidLkZzXEdPdq0eG6+fQfSTgtl5hNFVHLJLKjSETBP2kLwlDcVpsUF02U5uiI1pZf6CDmCZlQ1GMrszKEIm+Hfv+lBdGJpeY7sSRSplK3IwUQ10u9Ymla/WvvDOPDaTJMyrANNdTEKw1V25skDXxYNy+N3I5ZNYBqU81knGgT5TF/l0j1Fm96Tm+lpmkx1vW17E3ffN275ltTLGC4CCChDelJz8oKMWRe0XJMq7r+rhSsumcSVl6T497+K8J2LZ3DlNxu48epJNYUtkrHPgZMY1AZp0qJb56a8Wf/sLypnN21yr2Me0C+NeW6qW5Yzr1u1GVuae1l/qo6myYh4RLAP3VfCf32uidtvnMK3vhiRIJQvz4sZpGbdaHpaVnGKW64Gvn5RhO9/u0HZNr76sQRTe1lG1RFazD9iffD8eb7yS5M2z0NtrzLpXpjSpuXmsZzcp2mDcjwvkpTKdsln2vjxnTF2k7B+cMWM9ZfLvpTSj2XvBhxkdXHj95pWD0lEP6YdkOjV1m5q3OWpttVoSf1CaXStbV29qE18NBnG/m3faWKbqn3YTv3X5uO55Tpo3qYw1slikL/Tc6Io/mnP48WU/uNBUi7/+ZvwRPGF+tI8LCzYEw0VIy9Kf9ny8un3YNqoYmw0mHZLSFspalVTKbyASU9tXmJJSIVR5nWpaa4SrvxKF5/78CbMNqWoqUVmOtJH1jDaRCB52rpwjbj5m/trJL1nxrepFRGS7gfo5nTMEX21G6LMNMtUAoFmp3iJt7hPKlRalK2yPCWShxe20PGbJE4qRkqFoe6TUXmUONr2ZpiWj3I9wI5JZsh0xSmlChUrNV+LhZwtdTEppqTBEHCUTD5GRCXklSKkYUT3DHymFfI4ScZJnhGaLIdItERWmGzWbXrMSmiLGEjUamM0SIg8b913p6YMpAzDht0va0R0k2m8EpWl8gxjqkcqKpuKU/1TgZVJlwlJVVVLoSBl3bPerZVY5ogk0E2Un6bwRD5TCHleabfB9MHzpZ8aQVNYVIQeRwrj3iTJtsRyUoDn6BbAdHHy02t44S8O4wWvDDl4qOBZzx/Gz9F97gvH7NzjqIzmDJNiejxFtlOCEg9KLL+RmM6QdVNiXp2mVovOso93eMxyttS2rD/Wlxdwz3PheIH8oMFcE5Wwwvgqi+5DtXDP7S2c8FTlPYKRJQm2bRRJ6pqhLOuEwwW7f7X5xyGuvSzCc19cwYt+uY6XvKqKUcpf9gXWldqCFF1mg0ZtEldp0vpbyGNN65Xs/Nskl5TlCtCeYSOQqEoey8L2SzhIKfFEZ6eUXw3rDq/jBa8YYDkCjO+M0ZhkDuyXwwMezn8565kEU+I5K063w7ORRc0+rhlCGwz4Clf9JWzfBq1YZqdBENOTTGe2wriqF/YHlrTM/sDaoAzJjOV+vLf8+u3f5sIX6DBBzt6W+/fCD3Ysdk6PJvaZ+uvHwWZpqcsvxMFWRvUtjwokJql86PcmMba6hl9+Z4C9ezsYGqpQQXDUSwWURnVsvLeND/xBExf+zhgueGkLl/1f4JpP7sbbvrYG9RHX4Gr4/BxtOXuXnYE7vf6f1zkJLsLnLn0Iv/4LR1FCI9lQg1/88M7dlt+PHtiD449egQoJ8+Y7N1GRhJiidXHK6sNw5BEpxhsV3HjTBJVdikYzxLHH13D8+jqmGl3ccOMkdo9PYmQgwtIVo7hjc4hfPW+MshqzSsmXcdu9s9iyYwezrqHdmcUzzxrD6qExXHrNdiwZrGLz7km0JjysXDWM554xiCaJ8bqbJzGxbRbdaoj1q8u44cdd/PL5yzFYI4GQCFOOqu/d0sD99+whF9TR6CR42mmDWLusZuW69pptYlvWQ4LB0RL8ehcnHTOEm+9oYO1oBfc+uBOnPX0Ntj40i207RV4tEm6MZ56yFmO1ALsb07jpjmn4LLPSWLWujZOOXosyBxcRiSGllfr172zEJFn4mBURTjltPWanPVxz/TTiMEE58nDKKWWsXzesEYi1hawyu6fCv/e9LcFv/kEdq9fR9iKhfvfiFJs3NmlN+xgZreLclwSoVEr42qebGFvexo9uT/Hcnx/EDy4LsOLwFh64u4Tt23bil9+wHHfd7GH7ZloLaQm/9KY2hodH8O2LG7RQpISbWLF6FBf80iStxTEaHFL0g7j12hS3XpfgzOfFtOpivPINXVQrgyiVtcCmRXKrsh8lePeb9+DlvzGC40/VasWKhQVBlcRE5c5zeuCeFF//FC2vqvIKcN6FwNEnBrQaE0xOtDGxJ+bGc2HcX/t9Doqqbdx4VYSrLglQrXs4+im0wq/u4vkvL6NSS3HD5T7OPM/HRf/kYWB0Cuf9QhlPOa2KT/yjh9e8laQ2k+LiT7QwOTnFwdAQfuaZPs66wMf4LhLqd9ip/Q6vmRYaUzVc+Bsxjjyuhmu+O4V7fsgBYa2OdsvDr/5OFeUBTX9qI3mxr2rw9URgvyq7T5n3nG7guRBPlH47UMJ5rAgqx76avw85Qx4smzONtZGy5rbc72DZxCJZ59L9qiihkuviw+9v4mufnFWt2lRRudzExRc1sXZDCc95Ia0XXlR6nkor6mxaxdJg5+Wep26bTQtoY6vp2OWj+yRu1KjwgKN+chF2T0a44ZYGTn3qMgyR9L733fvxtOPW4YJnrsN5p63D9i0zmJ6toUbF/LOnDePcZ63GqU8r4fa7Oeynwr37jr02ir3gglU484wjEXMIP00F0qUy03WvKaiQimPVSIALzjgMLzxnFU46eTVuvaVj99w2kYj2jk/g7DNX4nnnLsP2XbOIaN3cfd8ULYQGzr+ghnOfvZQj4wjjE+NWdk0X6nkkTYuO1n2c/czVeN5zh0hSY7ib5OZ3UnznigexbHkZ5543iDPPHsTEVAtTtEJZa7iPpNyhqXYmy7Np6wR2bOvgnDOHcd6zl5DIVuGOm3caWdx4dQMnrluO884ZwM8+Ywy7H/Sx+YHIlHOaRKiWfRy1fgVWrajh9NOPQWM2wFe//WPWpYeXnDuApzLNH9y+C7t2tcwy8VnhWiwR+npOKKTC5ECE1qAWDVzyOZZvnAr0jUP4tTcPY9nKEJd/PWLX6PKcUpQrHn7lDaMkri4u/+YubDi2jF9/q4cLXrwGF/1jiuNODvD6PxzCysMS3HNzHbu3eth2fwm/+LoSfvW3R/EzZ2k6klabT8uG1ojWdaw7OsKmB2bwz++dpFU1SOuCBE9iabenSGQ1syCb0yFlfCp7WXUlnnubfcc9uKzp6fvvAi7617142WvLeN0fBnj+L8X4xuca2LG1hd07Oyx7gHNfXMMb3hGiPhgbEW95oILrvxuSGAP85ttJ5MeS7O4OWSc+y1XBtu27ccxTgNVHxPjZ84GfObOOFutqz+4ZdNot/Ot7fF4Pbbz+D4bx2rcMYuOPUtx5Ay8jkv11l09jw9El1sUACTjBZ/8tIEkC15HcX/U7y/DK13u02GjhsV59j+dC875UZmVwgLLvNfr4bLpGF9v69Rb/5/aLYaEOfLy2R4oDlf9JMUdU/YU8eDeV05U1R8/v4NjyQmmCiUYKR7oeL2QPJ5wyin9+TxvXX0ZlEHbwg+/5HHmW8QuvqVBJ6eY141BZtMllJVte3ktvLm1aGu5Dar26EGlYkMiLf5qBSz3aO1GKc56xGutH69hBJbJzMsXW8XHcekcH9z1UwUNTU7jvwQZqFeCuu2bw6W9vxZ0/aGD77gkqFR+790zhhBNKGOjWMDZAC+IpSzkqbyMEI9CiCFmWRKu2Rmq45Nrd+Nolu7Ft1y40myQkEp0fDOG4o9egljI+R7t+tUFj0MOWrTGOPWoF6kEFw2GV1t4akkMbWmxAnW9Wo+g3GqU1cPVOfPub47if1sV4K8Qs0928dQ9Oe+oq1LsVLKkP47A1w+TrGekj1IZTPPXkJRgot7D5oSZH8T7uvy/FLTckuG/zDp5/ivvGZ3HvniZ2jU/j3vti3Hr3Doyzrq6+7XZaex3U/Aq6bZ/Kn+fI9quVQvxo0ziOO3Iljl29BNXuAA6v13D4hlXYsVeKkYVlibWi06e1VSp3aRm0UfIH0Wp6+NZnR9U6uOpSD9/+chfjk1tJVG0qpwZWH17BKc8YwSgHErJG1x89jBNODVEd5Hmc3cb64yKc9DOayg2w9ogStm5kewwntLam8S9/yba8YQbLVijfNvMnYbKtNPX6pY828LSzanjxq3xc8sUZlinAR99fx+TuIRJok2WO0UlpfVGRdzkw0nSrrHNZU3Hk27NYt17fxDM5+Fh/jBQ+rZdj6lh3xAB2bKqgXi/h5NO7WLW2jBrrYsnKLrZunsbOrSA5haybKq2wFMeeMIKnnD6LZmsGqT9OxlnK/DwOesooe8tYLQn71AD72wDJipblXeM4/yUkbQ5Slq30cPzJFdxyXcyyJTj+pCU49qktDmxKLAcHKOO0Lsf0oHyCP//9Bus0xeDwGIZGdX9tkIM1dgieW6p7sH2DvYNj69dl6j+538G95VjM77EGB7KPb4aPBhaaw/0V90Rv0rK8FllGXvi8UEJf8+spzn1pGy94ZYB//otd+MHlPj7wRxGecU6Eo0/WA5ABL96IshVusq6yE9sPlE0/4m7KUStHacy4RMIrwT1sOe3tMUXq18pIq7JYuA9pFXXHcdKxIzj6uEF848qNCElE5501TItoGKCCSUseIg6tWy2fCkflS0ikNVoKeuKGeYX27gXs3NPGxV+4EyccX8Wzzh7DyiVDLEPVFi2EJAvd56rpGVeWD16NPKuHO2kBtjnitRsOTSNnLc5Qm7rbVAGmJmN87YvbcMyxy3HW2cuwbg3rkESge1Dl8kq0aBlohOXRoou6kyS6McbXvQsqJiZSK1EhUznp7WCd0hQVX4DVSwdIcMsxXNcIn23FwYAWoowNjeGoI+p41pnHopyq5mIWgW1gU7SR3euqkASas23yc8x4tF4HEzRnaOGxzLJgWRKmSWUfMX4UouQtIYlPUsG3URucZlhMhRyhPtDF0uHD8drfHWZ5VVZNw9HqplUZ+mNUyFSuPM+AddWcIWGyPlLWoU/LttNO2RYelqyI8YfvW4rzXrycVo+P//NuklyTslB9J2i0xjE7VcVZ51XwnJ8bw+iSEj76j02UhnZQiUcsS4XpJRhbUsaGYyq0VFoc3LBd2G/0IK7Sufe2kq12FMEkpuhpLYYRLUvWC+tnZkL9mwRY0sCpzQOen7ecddFC1FYaKrMINsLereoTJKPWKNsptlWpXtBA4k2ZFdpp8zic5GkPMywwcve6ZebbtvO3WQLWR6vFumI9q35CEqcWvdSqId78rkFaoFV0Wry23juNm77Pek11nrqINAujDsiYfdfoE70dqngiyz9nURV4dKD7K34ipdFFSkVV1motKbtKBa//ozJWr6ni7985jcZMjF/6LR9ljvoD6iet2PNjWgHeiC1qEBZ2Cl52TEsu3Q9R4/GYyrhMBR1TlteuQcQnbgi7emYFOPqwOipRjJHhQTz1pFEcf8wooukUNXJFc/cgli+rYqRKC6DUQjoDJFS+K1bWcefds9gbJZhhZtffRELoUFkzTupLaVSoVEhiyTTWrhjjaDbAxBTQokDihfBaHSoJvb2CSpznVoqrmO50sWGtj1t/uB2TftXSvebOaXQaHHHTJLTnekg4jdYs2tMR1qyhBcHRNRorEVGmxrpdQQviph800WEdTTV9PLSRiqlExUdiDlkB5Aqm1cBTjh3E5u2TOHrDGJ5yUg1L6ySP1gSWD4Q4ikq6VgWOPWkIh68bRDxN62B4hGSh1XSsM27dtI1GJ8Usj1avq9m04v2bSYxBhI2bfGzZQmtmucjEVbosWnsDBMkiiXnAfRCU8fxXVLBnZ4rTzynj2T/voTpEsqUVoNbTK7ZEYsrP3nenZ7FopbrpKoYnJYaLpEtU/CTqZBbjOyp48MfTOPWMBBe+Vo+UtzAzRYuBlqtWI4beEK2iJsZ3M5/KFM6+oITvfHkWcZuDIFqxstxhBAy88Y+X49rLZ3HzNXrDRgsTu0N87O8TXP2dNk55eoDLvwpsvEeLg3zceaumE0OsXMeil/awbCPsb+zbLLue3+uw/CvXVnH3bS1sul8DjwB3/TDC/XeHtkDFU59m+0k+ilm3076tJHWkEmDpSh9raGFe+iUta09sef21V9B6Pkv3/xiN5Ka+pOlozVdEnSom9gK33zyN406JaT2Wsf6oOm69cRtlNHDTWk2ea3ZNFDi0EbybyNyHDHJmfyIZfn9I9Y46TTXw786v6ZVAvIA4uvVIFLWBKk44tYTLvtrE6962FKc/p4SOWUE+LRgP994U44EfbsEzXz2Mcp0X2oLz1J9u2NuqQttTSVM5b9y8C8edsARl6SCWocvwzdsnsHJZDUMcxQelJjYcdxi+d/mdePCuFLfeMo4jj1xO5dDmSD/AdVc/gHvuaWF6IsVgGGN4yKeC54j9vr247vs78OMf7cLoyCpySAPLltYwUKraNN3gcBkPbU5x8/U78OB9O1AdqNGKGceq1QOY3tPB0qVdjA7V0SEB79w5jvUblmD5SBXjU2V86cu34IE7fIwuHWaZJ7FyaYDhgSGbuhoYrGBydgQ3XXMPNt4/jZlmGVWOnleODuDEE+u45fYJXH7DFtyzaQKDowEJPsQx64awd+8erF2zAtXQw9jwAAm1jmu+vR33/ngPNj24FyedciQGBlIctmYM11yzAw/cN42773oIK1eO4vDDBqzePJKcZ+QwjGuv2Yof3TaFYw8bwtFHrMS3rnoQ194xQWW8DT//rA1Yu5psl/W/Xj/s2pL0M587wrYPceRJE9hy/wi+8JE2bvheiM0P7sHzXjKMKGljy71VHH1qg2UawK7de7FrWwdPP3uQ5BOZBfXQfcApp5Pw/BK2bNRCiNSeN/r0vya46tIurv5WipWHpTj7eXWea8PILaAlO1iv49//dhI3XjGG667ci9//06XYsqnJ9o2x5qhJlAPd0/JpPe7FMScM41P/GuHrnwxw2X/txPpjA7z6zXUsXeHjiGO6+Lf3tfCtL83iym9P4vV/OEoyKGHj3UO0lBl+rFYH+jynFANDJRx5Yoyh4Qr+7p1Ns9R2bfPxjHOAyfEOVh8eYsemATz9ORGqpQH885/vwdaHujjrnBpuuLrJ+irhggsTfPljMS7+1Ay++clhnPHcCs4410OHA5KtD/g48dQB+ByUTE228eC9nqV1yacH8LVPhrj6sp3YtnMj3vrHx9Ii1hJ3diS7bnS/V22Tt0+BQxEeR4TFmONRhKozkTnDAeTF/88EGhNVvPKDWlpdQsJRoOdH2PxQZPP9mvZJOQqOaZ2UaLlc8u4ZbLxxFr/9hcMQDPcrvwxsKY2E7RksTcfRctGiTeo0EkfMPERlzJoyWlKuufnA3hBAo4QjV91Tak8ClaEUlbKeLyKBcpTbaJTQTiYxOjhgbxGohCVTlkpsclrTUSHqdU3/sQi0mGwBAUe2tOv0ohw0J1PUSzyHAT1fpWmsBJ2ohoqWXlORxV6beZN4Uy0bVlk6aMc87nQwQALqsm60NF/vp7MFIyTvJkfF7WlabixzbbhmI/4yR+n3b46xYjkTYfEC8sQPrt+NcNDHs05ZgVbSQVXrlrXunefeYZ1ELZax2UV9wK1sg9744c8gpvU2Pt6lwg2o2GWrKl9aorToVIdatTndpkVMktADvWpQvS1kmpbwMJWxjktUhjYd1Qe1f6vZJLGSPGhp6JVTMdt2apLWWKuKZatdu8FnnXRKHEToXoosT5a1EaJUUzPLCmd/0RLvSsw966g7y61qCx86URsTu8pmLY8upVJmcja7yqLobeU6mzYbZs+eSSxdMkoLzj0rpnRsBR/P0eTDNlK2kxZPjO9J7A0R9UFZPZo+05QeS9Kps+xNLFvhHlZ2q01lNQasz9T6WNShBU1/e7cfLSs9UjC5t4slun+GKuXbVu5ms830tViobAuM9IBxuaz7Yw3WkztffXlgfJeHgeGIsrQkSb6xnjnTowUlLZnhII0dvMO+o3u7Kuv4ntj67egY+25NhC4p1Y/ORc94qX/Nb6cChxYKonqUoQcS9TBqlJRw9zeb+NDvjuMX37AS657XhfSkpnz0uiBNEwU2l19Dx6tg8/dn8K3/M43z31TGM960zD0zswhR2UUoiy0L016r5ZCWFGyb1KqmdyIqiFBz9Lz4RSq6w6TnTjwqf1JdtmeaIrMSL2pLgApbr7rRs1denQTDfOhvI1Mqar1wV3eLqKqYj14LpFcfMY4Ro8okDSgSY55dPSxaZpIiO5aZaSUd5k/9IhWikus+j86Hudl0qd1r45HuIUEPbFImstfu0FrwO7jhth245+4YS9dW0aRijxqzOOe5R2D5oBQolR+JhaUxkrDnwqhEtRouz9HVl3sfn9Soka+dn97TpwdndZ9QYfxjQNzhWUpH0y1ZpRG7mVkjiH5Y2kqM/514mgQ3yDJp8rCuUP6J3maoaGmRkqC6evqW9eOz/RUiAhFBqe28rpaLs4/ombZUy8k19SflznhiGd3HISmI2BHowetRix93J0igwyQaN10oUpF1kXRJ+txLoZMzKMv2Yr/QQ+ACs2Icvb2/SrembVVnqqc6T0fWu3scQR/goyhlZ22aUe2q+0m+7wgpgAYV6hvsWyTjLq8DPQSvB8TLGkQoNfVhDtj0kl7rM6wH9as4jtnOPFYePBfX//QgMYmT7ak3ZkQdkZ7qi0Sve416HJtkZnXHOtT9NFv5R5LSrEPAumWwy6fAIYuCqB5ldKmcTZFQibdnO7jm35u44l92kLuo7dIBu3GsG7y60ZxQUUSs/qqUJhXXGReuxvP+hBddVQo0V/z90Hy9m7NX+FzT8WJOY6bPi1MKxt5IzYtdD6iKnKT6pfgUUZ9e0FNQoWkr3QOhgqSFoXhS3Bp96h6XVICUW8iRMgvOI5okOi0qLClNCvJA93JEgh0qQ503lRvzMcWh/FU+3a8pkTBINl0qTr3/jZGprBtUILQwpZip6Dy/QtLTS2+lzKR0mIbIT0pG581oUkxxsIeW0DB27W7SFzhqQxnVEhUfy6JN0Jvk7YWs9PHM5lNZxTJKk7FYdjclFCCirPGYyTI8cyW5v0bjZoWxXjkA0ao5UMHSzrIk+99Q338p6WFWLYQI/AHWZ4t5aaHGDEuoZ69YRm5Spqp3ayMSh4jFlZPhJMiwrAUFeoUTa5oDG71TUAtuBFl3eshZSjkIKiQCWW+Mrbpn+4pcQEIMwg7jiaxIliyfCFgDA3sxbNCiHOuNpKc2VC3ZS41DkhPHFmC4iFtL7T32Ut1LkhWnAYi6RZd9QUSW0oL1dKNV9SeSoyx8pa03Q4wYYaiatLJTlpGmrrs+09QbXOImiUdT2RUrv70Yl/WswU4SDcPn9ZImgzwPpa22URk5sApF6hrckGiNpNRvVALVJ/s001DZ8kgFUR3aKIjqUYaUUkwlYiNdKkON9CbvrWBmSjewpdA1UuZFnWpqQhcuL1SOgCsjMYYP53GlxJGqRon7XlxKS37594JyuGtRzZhdsJ6edSJh8M+mIUkaVPmUkCB/9TaGgCNkKgd4etaEij6hm4pCqkzxLA/6SwmIcBIpVB5SxzAbKjkqHr31PemQBvV+QeahKZnApiN5LCUn5SsisrcYSBlSIbNOAi0aoIyUSUrNpzfIe7Qa9CaGlIpZ7ETVxb0sI6pS2+uYZWDeIkuN1I2YRWaS1jkySLVgxKw9FbRG6gxkklKkSof50tKSdaeb8qpP6lEXl+dKG8QsEBaMCph1wXNLWGYteFB1KF2ViSdq9SJiyNG7lNQOOmcqdyOALA9ae/YuPil6m44SYagMdFExdxNZjrIEWG9aecg6EUmJHCSrBtIgKO9bNqBgntav7D2CLbpVn+oDjozcpzzUsJLjeZsipwVEc7AbMz7bxhYeaLED20t1L1lRv6yohGVSebUwROelhSJ6O4YGKHobiqwjWVNRspft5Kw6DaJ0UqqrhMd6U4UWUAR60Fh9U6THPFT37vMpqivVhwYfzMfKobKqLzQoy3jWL1V21ov6NtvT+q+tklXfETmrPXR9sX553nn/1iChIKpDGwVRPcroVSf3/NdEibtk5S8/XYSa2uAFn3kbJ1i4kPkT+xKVLm7tM485uISctFKScsqUtfn1RcgTMBJyMQSVsSeVu/J0FaY4djgPc/EsWUdyDk4wj9tLQ4IWRPQnlieex+9h8XPuweWZCSwq2xc+59Y+R3+99vxN0uopP8pj0yOL0N9G/ZfSXL2YgpXbxVyInq9+87S4l6JmH8ljuOzmnSlBl3m49hbm6vlhQSkRmbV/lgb39pLkvvh5njoHl7JJ9/kvnk9WNRZDablji8lNe/XxPH8hD1Nc+ZuTyOX7kclakH5c2XI5ZxXncZy/8nfuAocqCqJ6jLCwWhcb0T1c1RcjwAIFChRwKIjqMcIjIaoCBQoUKPDfw80XFHjUURBTgQIFCjw6KCyqAgUKFChwUKOwqAoUKFCgwEGNgqgKFChQoMBBjYKoChQoUKDAQY2CqAoUKFCgwEGNgqgKFChQoMBBjYKoChQoUKDAQY2CqAoUKFCgwEGNgqgKFChQoMBBjYKoChQoUKDAQY2CqAoUKFCgwEGNgqgKFChQoMBBjYKoChQoUKDAQY2CqAoUKFCgwEGN4u3pPwXIm3Dhp0W6+uS9vmxq3vrJvt76ZGrxRT+3ojrYTyUsIm81t1gyjzEWLeHDtd2iZdxfBDsr55yHh8tgX+grxIqjLyHnfUspBJ59P38O++ujBQo8EhRE9VMMfaHc1II+fW+f7JYqSZF6Zfke1Hi0euWjwFO8SJ6YqYcDpRF9xn0h9i+vT7QvJv9wOewLr7uQkPijfhcWkzUFHj0URPVTjG63yY0Kg6NbD6Hz4+YjMveTG4vQwH6uhC5FtT12WDxj2b8Lsf+r1Ztr40eE/aZzgPBktQukOKapUojtPe8AylKgwH+Dgqh+CpE3aZq1rE23yLzqJvRL4fkHv0Xl8D9lh0evaz+mPLWfcu6/9IuVRtKymh8plMYi6Rxglamr+T7TYR9Tv8st93zqr5jqK/BooCCqnyLs25QdenJkm9Kqkv6wqR4qk2D+dM2TDwfW5b2H1f+PpSI+gHJaMQ5E3vWFfWD3nA4AHq1zmptdFkBWlFmf/PMX1EtBWAX+JyiI6hBCyqbS9c5GM8VgyoH+2uSjPzFSN/EQNUhT48DMngh7t3e4B+ImJVPFOVim/lzJ59CnzBbtlvLqiTjMyc0PyH1dnSyE6mBfsjbJRfJllXFbmDFFU937exg8bKCDicjYtSPlIZfLK/F77jlY2/clPOf06dQ55Wloly2eMbfbzYesoMyZQRb3Qlkd5qVwQb0jr1tjNhFqwymWrgmwbHWA4WUhaqMpKnWKyNqaiyUSlJs0RqLsNZ16cnFPq8D+URDVIYSomyCUkkg1hZfQMqpwtE+la6smPCrTGFM7Wth4JbDpmhZ23xFhcm8LnUYAPy2jGzNOlyS1YEXWT4xcXz0SWC/Tz/xIIoF5mDum4lrQM6V0pY4XU75pH/H0enSX6bsDqcI5mFfvuF/eYb4Cd+KUp2d33s2qnpCTd2G98okotNdPFmaCTik7N/1ZxrQvT7fT+ZsZrKGHedrgxISchOWTlUc+Vpd9x+Zh55+XQ7+qQYc8fp6vkPCgv67SLD0lY07t3c423YmKE5aVVroXdlAdSrB0ZQXrz/BwwjPLeOo5NdSXx0yAZ5hU4AcRu2+F4jHI8/B8DZrKrN4nu5Vf4OFQENWhhLTDrYwmVVeFVpEu7g7aiHwflYaPGz7SwXWfaNOSaiLgaLxjo2PaDgyXsiJToRQGiPObV48BXMr7pu/uk2UHxFy3o39urPR3xb7gDE5OVmWO+V23n6h6/jlROYWc+zuiWAinlHthPVISYWgT+hU7w7OpMpd25vYSt88EXToiTTukk2QxryyOkOTlRPM89OMi6by7rADnv7AsDLNFM+ZJdx6P4Tq2X/nTzzlt5+zBLA395OdiG389lTNzm8OlyeGO7V3cDmLxkCcS4mCIcvpLk4R+Qxg5fBa/8vY6fvYVAdJwloJVkpTyicnDJDf2YV9t57IuUGBRFER1CKGbUAX404i7g6a0fRIPOj52/xD4+t/twPbrgGEqgbgUYSbooI4xKpEWWzmlEqFiIkGptRdblvyTQcpqIRZPe19fF9dUqfsn9Ov895V30BSc67ELJXpl2adL87DnJbn55c7l3W+WvynlfmQyff7y6U83T8doRGI8nAsmzN/8sjSycE3lqkHlljPPw5LQMR0KM/ksqsFk5XBxBbdXBKMXt1kiYgLX/oJZZ1kG/QSWT2bKdhXcwEBWe1Z+QvKZOPvUAIKQsVJaShxIufQ99s0S+1wTUZyilQ7h9Bd38er/z8Oao4aR+FNMq4yApOWzT3rsq55Xs/QKFFgMBVEdQminCcpUaGkao8PhedDu4vavRLjqHybQnuHI1tSHFIBPBRDSyJDy4Oh+bt4mpEIIqUxomT1m6CnDebB7FQ7qciJak+sT7r/hnivrudBMTlbJounPG5LPL4M5s/SkRLX1gvtl5XAH7rJwsm4zSf7k8fXXu0dl4nNlzqbX7KeXV9Jn3SlwjpBo+c7FmfN3MubDnXPl6feQl92IZ86tn56slTWPRP85Z/YzF0bkxral55zmVoAe6nXxtSmUhOSnSDQVzS3wSmzDMhKOn6KAx7SYAp5bounmcoihFVX81vuA0y6gVVVhGj6tLjZolz03CKouswIFFkFBVIcSyDnNdDfK/jISEXD9f87ga+/fjErdh5eEqJGIapUQM61ZxCFHqVEVYVhB4IdIEipDa2qRxP98nsU6jdOF87C/7iRRLWFQeL71AhZJaD9IMgUs9OclkluYtw5Nyc7BnbeT27cOHPEoUn+Y0u2fasvz8NkcborPVUY+nSfFyzz576ItXt4+Z0a+zsMIqz/Q4EhMZbOgnIT6xHLvheEmQoLJSVHoMsP+opmcCWagOz9jwayrTEBly60tuaNOSpIhIYWsjyTiFltzppoGTAISmZ7l82jZ8xxo1XdJYO/66AB+5oWDiDhgKrF/2grBXvEKFNgHBVEdxMibZs7SoBJISUZR3MIdn/Rw8V9vxIg3TMWhMSnlghLa0QxKpRB+lyNUv2H3AaQwlYRvI3op132V9IFCKeX2hIq5X64xxbYvcvGFYXlvnE8wknfHUqBOZkHMeYdZXO7yxQBWij5lLfTyyiCReXWTx7VcnXyWhjv3zAqyeEK/vMBjyrt2FIE5qd4l5/LSAgbBkqYzJ7q8gNq5culY6TlPyYt0BCfp0LsFqTwlmsWTl/1kREW4MKZte8XNS+nycW7B5SOIeDJx9imf1pTkHMGabUjrWbPSXb/N9IYolSLuNhD6w9b94voe/NlnVuHE5zDEa7NHD+p2WIEC+0VBVAcx8qaZI6o0QQcBtl4zgy+/fSeiaY5aNcevsP0yxWMDqbP9dRy755JB5zB3tN8yOv/+rpgrUgeFSznyXPs02jz5fQqzuFy/W9BRv7XRj1w0j2OcYLK5os/T6pVP4anUdZ/snFhWSP0qaK4sPJgjJx1K6duvS1MrAi2SwrK98reaVdzMT2esLNyh0pS8S8PclqfLJItijjl3hrxcc7I69jjgMW+XnsuX6faKZiTXdxL875VN5bI66ybswXWMHjeBd35sFdYdz2Of5xpUTK5AgcVQjGMOYoigcpKSUkgSqi7uv/cvezA7HiNOS5KissiUw2MAU0aLbpkAkZcx1XNF9mwRy5RtGiqLXBzB9Mqp+EpHyi3flGSefp5B7jS/ecfzt35IwaostjFQwbbl7iyOU+JOmZr/nFym8G0v4qHVIPLQ/RT56dwsvBffFqpk4fzvydI/Pz9dbpaW4li4CEl+dM/ly/zocHGzPGzvbGEp+5ykeuVxm6ZFHVG5vTuH7JxZ9ZaWxZXbbXleClN+Lk9ZR1naWTlj+ruN1rs23XtiSnkeeVnzfO08zM/Fyy3b1I+RxD42317BF/6BZ850PBJV3r4FCiyGgqgOEehC1qMmt39hG7ZcW8KQP2QXeGrPoTxxcEqK5JQrGpGWdJIU47w/HWuTsnRKK3fnYabQtc+O99VdmSwD8vzseM5PeynWvjA7zjaRje3d5pSsk0v4M7fx2JRtll8OiyM/es7brMB9/jlhcbN4mTvmjxGDibMO5l49lMs4t2OVntJXDNF/LmcE0EdSub9tPM7Lri2ZK3N/Pv1bzz/P09WDz01x3bEF928WT/Juc3G0d5sILnfncon80jLTTFEPA3zvi+P48c1a3HOovNKrwBOFYurvEIHIoLEzwT+9+H6Up0fgpRyZlhIkQRdB8ui8APRAuoJTWIvJu+edXFK9cKdwF4MjLaE/jvvNw7SXwpNvT74fOQEYzKFC5Ok4zD8/l468pIzdsQt3Yi7PfshbYb04PVgU++EuW92Xp2NEZk43LpT3vLpjuPllXkakzNpTpRE5OeawMsy5XRl1/rqPRy4gnLzJaJ+lI1GXDsPNxyH3kyNlGfN6dv5O0p7hconPhQu2nISH8pJ/NztHNbhKJFiY5anlJzFCDDB8lq4STjy3i//9tSVzj8HNTXMXKNCHwqI6RCAlcPel05jdOgyELXTKZQ7I2/ATKZbHrhlN+Syy8cfC8+nJfBM03eWg42zrCxfyJCTplJiTMWVum9z9si7NuXjZ5oSYtq/pxTwP1Yfiz89zfv46j5wE+jYdy/LKZGS9JDyfmCaDm8piuPLiZjL5xp88DeXtlHReDu0ya25uc1OAZn1YXMoQ2vWsJ6p2k1WI0lSe2mdymVXlpgRFUjrO0pOMfgidt5sezqZg5+phfplUHstXeWjPLbVyZlN/ZFxZhTH93Z51wsxVL8rTTY/mxy4Nc6tsOmA6AcqI/TbjDtrZXPfNMn74fb0xheEFCuwHupIKHHRw91bs4ueVr+XRnUaC+6+MMTCiZ1YCREmEwF6hpAv8wC5yp6T33UyB8T9P0VLlse5G+HoGS69tokfcjan4VC4pGCqkiBJtjpZjKV6qH58qKwmQRBG6bSq0dox2xHQaHsJ2yeUXtKhhQ0SdBBHDkxbTalUQNWLEHU0RRUbCpBoWK2B81kena28p7PpUfHRETLTN+B3mHTdLAPOKOm10mhygJx4alGnTL4l8ps86azLdKEAc6Tx5dqmmnCLWMYfztEy7XolpshxRyeoeejVQSiWtN3swvZA10WbcqOUzzxaVctsUceS7ciF1CwLiKLb2StqBhcddpqs2VX4kiiTpMMxjGhFl1R5S5XpjCPOOS2g3u8xHy9/VB1iulHXPcii9DutKhetQttlWWgGT1LNKrBNZ1sxPdRW1WRCWuaW60bm3mJ/qldXOoqPVqSKOHct0dZ5q54w81RVc31PZ3D7vDI7UnL8288s3+WWivS33d30jZV209Sov9jXlV/YDXPqpDstAP8lZJPYb1onqrkABoZj6OyhBJceLWEpaX+n12UQ7HurgS789juktbDSRCf3ym9DuhZ70/G/w3za1lhX3yTg3NyqNEBUqFirmIORhagomblGhDFax9IRRDK2YQWdrCQ/eNsF0OPZPaxg92cPwcBVlEtpsEMCnkt1xfxvTOzsYZIrhUmDVMXSVqIDjCfhBnXq2SYXqY8fNVaRxh1WRYpqK96izeH4NH3vv0LNk01h2+ABG17FMJJcAU4i9KhlBlqbHMfsANl3bwNITSxgaLDEJjuCZrh/qfYce9m5OMLGRpxXXgNI0leYgWq29qNVGcdjJCcJKC/feVEItqaFFjZ/4EWokr1kWZ/R44Ih1TBNDuPdOnte2WZTKbZQ4aEhmZzFbGsS6p5SwbH2Iqb0T2PQDts1MlzI8x2AGSYP1Ua/isKcFGFxSw8TWCPfcOoNSXEZInikNNXDY8cOI6w08eCVJHVVT4p10Asc8vQ6v3sHmG0bs7Q4bTg+w+bYumttp6ZQr1O9V+KUmNvxsB609w9hy3wSOfvog20ov3Oog4uCgFo2gW2K5Ox1Mbfaw84E2ew6tnCRG4IsaScckIweRCeuJhxoQ9U9Bym19I/eTnP314goK0/0r56YsvbUc33qsSJ4xTjijjL++uIT6aJmDL8Ukk7IcKkvfc+IFnsQoiOoghEaTugnO8bgGyAg4mn7ghia++JbtSGb0Ak/JsNnsXsj+iepAm1ZTTovBlAWDtLBYSqQajGCy1cGRz6nj+W+tYelxsoymqKyHsO3qCBf/zf2YfGgYL3r/GI59oQ9/hgnoLQQBSWJLCV997zQmruhi2TnAK/73ICqDZZISz1UvLmUe0Uwb/3DudjRJKiGtk+q6EfzB58fMSns//cebPl70jjGc/iqWh3UVMN1uhVZKs45IynA6xod+fwt+6Y+WYtWpJNQOFb6WV9sZ+Ljus9P46rtmaZnRAvI78Fk2mUQjh1fwm/85jMFlIT70phk8ePWkrXDTO+z8wRbOecNKPPfXAlTCJpJylaTj4Vv/3MKV/zFLEyVEda2Pl78nxEnnD9Ia8FBis4xvi/Cp90zgR5fQomF7rT/Tx6veuQyrT2B5E6ZbncHd36jhor94EO1tS5AMR3jrh0ex7ugK3nbqbjRnpLmpuAeB93x2CWrM4+9f04HHOn3v1RXcekmCD/wKTcj6OOunxnKF+KdrRrGLA5t3/2qMD18/gGAgRhrSKtajdbS0YlpetMlwyb8M4N/+dBuGBlj/tNb8mBZPIOpw5CNSMXJR84uxsn6gPtnrWiZkfnL3/NUnHSmZvx0RPNaUobqupiFjho2tj/C3XxrC4Sdw8ELLVgM0e6Ld+psyLfBkR/BuInMXOGigi5OXqJ6apILVO0533B7jrm80ePnnz7MIlLN/J38gWEhidh8jc+ewezrGilIYHJFzdB/Qqoo7Adac7uFl76ujMtTCNf8R4a7Pd7Cd1t6G5/kYWb4St/7XFE45bwgr1wPf/YcGbvpKjHuvLeH4Z4e0OIAffi1AdWUHT3n+ILbf1cbl/9zEvd8Zx93fDvGjyxqYujdEu1uC1ynj2a8bwbpnkmZIFu0dMX58A9XsLK2eG2dxx+VN1AcqGFwa4uoPT+DWLya465vT2HxLGU99/hCCmo9v/OMk7rzYx53fmcI93/Zw75UzmN7NSi2pHkhicUTrtIITn1fFKS+N0Q1FlgF+RLnQCxFUKnj1X47grF/2cM/3U1z6r8BdV7UxtryL018xhE13ppiabuP1H19OZdvF9z8OXPPxcWy6I8bqn/Fx/OkjuOWSJlZsaON1/7gCaW0GV3woxpUXNTC+s45TXxjjmFPGcNWXpuHV6jjzFQHKQyEu+eAkEhJ4ieQRpwM4+5dpZwyn+P4XJtgeZTznNV0OEhKsPayM677ZRSUp0bKcwfmvG8TUOHDJR6exY1MHP7gkwEZaf0c/rY47rgY++Vcd3PjNCHdeWcbENhKCR6uxG7IOEiMckay7r5SRlOsNtjkSc/t5ftzM+mIP7bk1bagwWf7OT9a57vG5cParEsvMAcSzXlDByg2MTYJyXyqWdceUdE+twJMeRS84CKHLX/d/zKEfXtyz47xwo7y5dAFbIJ1SHJKXMpi/SWZOrg8KW4h+v/548ta9gq7eisFhcOhTubUm8KzXrMTQkho+9Ft7cBmJ4I7vdPC9D+zFJW+dwqV/cweWDujluC2O5Cu486oWNpJ87vjoDG744gxWnVJG/YgZeLSWlEtjp4crqdhv+Txw0+c6uO1iWldxE2nSRnm0hbNfU8bWWz1MbQzw9NcsxcjSLvbc5OOhLw7h7s9EaG6eRLdDq/P7Xdz2+Wls/E4Nk3tpjdAUbLW6uOLT07jmM9vwg8838L1PNLGDxKh7bBHzUDWHYQ0P7t2MU86vYfNtZdxGxX7M6RzF1UOSRBfHnFXDST9XxqZbgX9/s8iwhdsu8vHR32zho388hau+OYkXv24Yy4/3cO1HS/jSOydx/cWz+NwHEnzw11N86U8nsHd7CRf+xXKMDnTxiXc08dm/2YW7Lwnx6bdtwZf+pYkNZ6d4weuWszwyeWTFbWf59NaRCtIoQEkWYSdBPaii6o9gqqO34leo2Ks449VtvOwtZUw1JzFSW4vAa7DRWLeNQdz8VeCGz/i46cstBFGTlm6Cqz4Z4epPdXH/TTtQL7MO4hrregCdxIctIVebZ22f0GGkkvmJeLSXxe+Wn8tfJCSCcgRkMrZ3Wyw5xbW0KceBj4urRSpsh5aPll6srvhMJYebKShQoCCqgxa67PVvSqLk0YqRUteqrUzgESB/6LWfvBYjqYXI4yWJ+3S9FJOtHk4Te2fbwMoBrH56hAduSbH1jgQDtQrtLSonKtM7ryZx7F2Gmc4sorRk04Z+pDskHXTrbaw6kpaSFk50OIrX/RDms+aoCl789iU4+y0hnvv7XRz1TA/ttM64NRzzs2OIhklgX5zCXSSwYCWw+uQQU2EHjeo4Ir9GQhpAUkrRLnUxG7Yx3Z3mqJ0kUwGGh3xc+Lur8II/WIJzfm8Av/CHZUTdCuuBgVSaIeuj3Y5x+KnLsOGMAD/4wgxu+sw0Vh7p46jTB2gpJVjzdJIHxW/4Bgl8lgqdFpHymNyT4JaLSlhSr2LDs2gFzDZww6UkzYEmkmApKtUI2++cxI2XNjGyto3DnlHBpgdSPHRziqHqKKaTJkpjw7j9Y1Xs2lrGyS/YZS8TDvVi1+5yWq8ttrfuT9XQRoPtEJjSb8VthHUSDC2gH10VY+LBGp7/xgpOe9Hh2DGzi/4DaGvRSLdDomGb+6x79qGUxDabzDKdGH61ResrQDse5FHEttjLOtHCEpESBz9sdJGQrCMdGyEZadGy1WpDuW1juibbzY61Vz/rkZWWtRtJsQslzDOSjPVm9nJ9DkR9h5FDP7D0Gcu2gqgK5Ch6wkEJXqi8oPUZeXv7OS9ZKRxN7OuDiUJOONrJtdi2P1CH7CtPP6ceepspKe6tlwQlDaMtIKiUUSlzNDzOkTEJJ4g7qCQdlChfChmjVEUaxKilUrjTeOn71+KVH1qJ3/z4KI47q467/ivBrh/zdEgu+pZWdXWKU18yjJMvLOHUl9UxSsukWWmzCiKc8PwAnUaMmy9t47qLd6NOZXY0LZ9KyEKxPFpoojWJekt3l5ZIpSz1RyspqdOCoMBghKe+IMSpPz+M0y4cwUnPr6MTlngaVI+0TFIRQTvABa8qYWomwo+u6OLBm2bw0H3AmS8jqdFiCQf07kSS7Q5ZOzHTDewWilcmidN6SWl1JVWmk9CqaTQRJEPokozDpAIv8VCtBhhiGnW00J4i3XTq6LZrJOKUcWbRac0gbkRYsnSpq/s0UjYMZ5poouXTMvWqKAciWPYBTZ01mDYLsfGWEj7wup085xC//r42xo4JOajx2Q6z6AZlxCSIuNtkYmwTkoFPgo7YUu1OjfEHzEoWqfioMeOqkYrlYQ3PPmBunh+P3VL6fGpPfaNHRk5GbcF+wbMQocaUtSXrlFMf1qY/QW/4Vxa+Vk8ImvLzInZxHWsNpe6jFSjgUBDVwQgRia5SXsx2HUspUIGIOtyWg5d9bmI5PeDi5n9yZ5szbbJN0K5/M0hJub1tWdoptWabI98g0AJtjr9nY0xv9zF2ZJuKhpZEuY7ZyhCmyyU0oxpmpnZwdHwElTxH9eEwDjuS5HJsHYc93ce9903gK385g5pXMbIhleG+707jL5+/GR94boy/On8vbvwwMNQIsXw5cNgJdaBdwavfvQQv/qP1rIdZHPn0Cmp1KrJQH98jTaUz1KIkFCpzLVvXfR1Q8bbbJI4HA7znJRvx1y/Yi788dwv+6sK7UO9Q8XdpQUQ+2s1J1Nd0cd4vriYhlfCy947h1/52Fa1GH6c8r4rlq4cw+YA+WFnDyIkhWtUS8yyjVR5AszmCXbNTiKZJZNvL1jJrDluCJJyQzQKvPoNZ1sfE7mGM02KaZRkry1NM1WV1tVm+YdTKK2glDmJwBNj2IC3JeMa+4TSyNGB5WD/dUQySmMrlGEl9C43aBMk0M+rSIiURdkliN1wR4ZN/08DKNTW868MpKkMRyzjEcBJywhZLW2QGWi4c/CQJrbGAxMSm1edebOCTahk9SddW/emPaoFtr77gLCP1A90b7fm5fS88vzflwnSc9aG8H3HLaSp3KSf526BI/duLzapSv7fXOGnFRYECREFUByHcRS64aRFdzyURgpqLF7DgLKrsQs7FidzSWgj551s/dPhwYWI5KQ9TYbTwEiqTaLqLG748hdE1Pi5853paP7MoxxMYrvp46Tt8XPDWpWi2dlEZciTPmO//xS34s5/bgq0/JPmsGcBRJ5LAfCr9TteeC6rXh0COwNJqjCXVQZRqHbSoXA87bykG1wNbbm9glqPtmWgcW+4uY816D8ue0kWLil9Lxytejbq2wZz0bFOV1cHE/A4tHpIR9d7Q0ADqXgsjIa2sdBUJVFObK3huIS2PKo4730M0wvQ3t6jIwbz3YnzjNJJSB89+dYDbvtPFzK4Iz3hZgGPPmMVAnGCQFtxx50d478XrseHUGF/7tyaGR0I863UpBkZGSUBtREz/5/5XGW/4SILZWoRrPrYbG44ZwEt/c5jKeQr1Sgvh4DRe/icJ6yDAVz7UwMzeCrbeRyIlaZz+ykF4lWnKVnHqC8pYfeRqbL/Px46Neit5ldxBKyQMMeiN4PKPR/juF/biiONIbMtIKrRIo+4EyXuA/YO2XJttx9aISbIRzaNYHzpk+8pglzVkbpKFLCA3vSdZN+WnbuCm89ia9E9IanZ/SXHYPzQVmNJyVHz3nsADVSvq5Xq1EhNUX9ZzY+YrCitQoCCqgxQc8dqQl5euJv6Jsr45ZdMjjpVyUtFS9v0Rjc+ReP/CCEEimvaSYrL7DvSzY1MN6g5SNG5UbFpDex1zNK5nujyaeCGVys2fm8bmaxs4/bU1vPY/V+MXP7AOv/WJERz/q2UMrNN3iLoI0zYqSYAyLSJ/2yC+8ic8piRRWUgAABkJSURBVNV1zltGMKGVZjzHbiXA0Mk+XvPhJfiVj5fw8n9L8SsfHEA6OICTz0/R3gl8+vd24rNvnsZXfpfud02RBFOc8aoAUYd2i1+FPhShssbMq0tySZh3J66gREuvRMvo1/5+DL9x0Qq85mODeOPnRvDsNy6n1RMhqDZJcD6e9sIq+d/DxX+W4iOv346PvS3FZ99RwczuMo57fgeTO0Nc9K49WDbaxW/90zL8wgeH8FsXDeC1/zCII88kSQ8HuPr7bXz+A7tw4tmDeMsXxvDaf63jHZ9egpe9rY6jjq9iqBvjC39Rx23XtPDzbxrAn3xxKd788QG8/YtjOP3cOr7zkRi3fLODCtvk0g+ShCa7eNkftPC/PrQMv896ec17BlEtlfCp9+1Ga3aAAwY97M02FLF2G4hnffzHH9dw+xUl9hMtFtEzSBWS1SzbkvtIFlWLlpnIxw061PY2fSdy4t6m95Qm29uIi+GOiLR3/UVkZ+8BFDlJJu8n3MyiytwHgoCEG5SUsh605pCIaR9gEgV+ylEQ1UEJKhL9iWBoeaiVqmNUAaHeSkHtkMERE7cFBJUjsmkfjZ7zewxO+RipORFDP9G5NOdDXw7WwgfdM4lIBipPvHsYF/2/Ddzwie20WNpYc5oeUG7j+v9bwtffoyXsNUxPlDG1XbfqG2h7W7Hjh1tw+UdpeR3exXNeOoZEb2/YWUKFZLxsg4/Rw0ew+rghLKXVtf5pwIq1Zdx42V7sImEktDg61Qjj91Rw27c72HDkKFYs76LZCNCYnsT0phBBWw/iAs2kSSuwjYnN1Hd7ulixjtba0QlWHss81qQYXak3z09hZjbCiiOWYWzIx6ZrE9z3wzY6JK5mO8XWB/fijitJQiEtuCN93PDVBH/5iilsuquLY86oY+36EjaSqN//kjJu+EbCcwC++b4IH3n7FCKmfdRpZYwuDfG9z7Xwvtc1Mb7NQ2v3BP7pjbO47D+B0eUBDj+RecUNfOy9KT71XpJmPG33y+65fi/efsEE7ru+jjUneTj8tBAP/qiJd7x0G+65YpDWVgutVgOTW5poTc+StPQZ9yqa01N4z2u348EbS5jeIiIh4eujmV0SYNBifYSY3qFpP7VomW3tFmfYGylSTd3JmmIfEVmJnIyg1Hc4CJB1JYtJG3OzgYvi8SjfbECUbweASo1WqE1X6gFnli9QDprWLdiqgEPxwO9BCFME/NFzVClHxikVzfabU3z+TdvRmpC1JauH42BZJE5FMEbvos6b1FlJDv3NvNDCcpBj33GL4mmxgiyOcruFKNSXWVsY9DT1VkInaWHJyiF4pVnErTqmdrTgVUoIGB4MpAhLVXQmphF5tAiiFC2aDPVhER5V0bjexEALjQTcZVqasuuS1GTBxbTCdB+nM1MS81BZ0kILPJJehMpAjXmQiKc66HRCVAZZ0CqtiD0VtCnnd9sodQbRXtXEYOLOVW/o1gPFqqe4o1culWlltOHpTRZDtPiSEJPjkzRdfZRNIVO+1kS1OohOKyYhcNSflBEMxRw0dOC3q5jd42MmbiEs099ey8TzTOuoj/qoD4WYmWmhMc6BBi1R1V+JZK9VlFHSwdCyEVSqKWYnW9g11cTS7hDarBvdXivFPMtk0FbmDS4jSXvjJLkxtJudjAN4juUAA8M+CQuYnaa1xPP2PNXfNGpDgySgkHXXthV2ZeYZiszGGLMdojE7Qzm9Ekv9yA1auDPk/UQ71ZbrWzrO+gwLkPsZ8ohCX7/qk+iBohJRW/pKR3HDACuPTPB3XylhzdGazmS/sUczmDvbrHiMqoBQENVBCDWIKQoOaz0/ZiN5mHgowZffsgvbfkzFFzQQxlRKFY5qO1oYTj9bveXiuxT6iUpKIXPug55KyUVcl+hpCJGhyWmeydeKOVKXRDSqViwG2/0JWwqnqSTLkfJu2lEyGhzrfXVaE6aDRETGcuvelz3RTMVqN9g1lalMrVwpFbuIWelThF5WNGXJYz/QVJFWilluEqen4lGV0k9vQHCRlbIjd1kNGq27hFh+5q2y696fnq1SXbJ0lq+di8xQaVfFV2mVl6a+bLmEoski6U9fapznm+XpakPPDTEuicQe3CJivV9PpVHaqjfWlR63Vfm0hsCRAdOh1WNTrlbXdio8dkVKrGxMx5S6UqW1y8FNojgWn3Uj8mJ8ycl6skpkfnl/cAsfmK78tWcGORH1qwZrG+2tPfvQJ+PqyaHn6gNl9WcrDNHh+fJcy7M46ewAH/hSjVYViYrhKcurQZjeUtKfZoEnL3S1FDjIoJVsNkLWPSZd8tRMwyurGOOI0/MbKCc18kWXI+yAylovOu0pHgdd3I/0AqfiYdz+zRRen3/OEG66h+Xise5rJCyXTQ8pipjL5FzOUoBa+izlK/Vr8aXolS6Vjz1D444Y5pS2CFHZWTp2zD1l7X6IpSnfPD8pVTc9pOkq+SsZ2zO+6MDVnfnwT6N0uV2I0rYX/pI8daycrcz8c/dopDAVpLJIkbtzVXL2qicqftGaFiPo9UJ6jMDKZ5viKA8tOHCEKVm1q8VXuMrCndUR01DNGGnQ26ZoFcfSYaZGMm4KV8RpMjpplk15WBuoHuhwy8cZxnj2YC39RFz5uyN1Sk7WbSI92zOvlOSZl11b72OX3JhXbon3JOTt/G3r818MLmmlqenjWRlTaEURnnrmEGoDNJFZbqXj+xwsSM7aq0CBgqgOSpg+4KaBskaVUlxBpYsTfr6OPeM+iUrLmDsIeEE75SQFxI1ycxuPpdDyzUEJ95rcKUYJ6MCpFycvZShPKUJtWXpZmsrPgufFMeecO09XitDua2TKMNNW5paIymqidJgSljw9TPkqXP5MaE6W/lagvAwGuvk7V1bJMVyilgb39oyP0uWxlLzzJ6FpL/m+uHlYvhouX0yQp+OUu/JQPKH/XPoXGmTlMLf2Lj+Xf1aGPG3bZ3laOUTQLDMPNB1oMvK3sKw+lA49VHYXpvRdforn3C7MjiVrceinTVacuXWPyskx6mOHLPGuN8tyldDpNu0FvS96VWiGb97vHCHmW4ECBVEdlHCXqNQG9xxZhmHIizvB4WcEWH9ajYorRBAE8AJe8BTTGwsUwynbbDOl0LvYc2IwEuBeCkwiblsYx+3tmFtOMBbfBbo0tJ/bVOJM2dlPnrfKplG+NhduwQxXGiZnaefyDk7GuR15yZHL7LuZTL5RNt/cuUoBMr+MQPLztXj8ddOBCnPhjqS4ac8QbZJzcfP4bm9pUNYtydaeO6ZnRGNp5PJZHLN43LHJWBx37IglIw0KuzSy+C5DJysZi+Pq1eWTxbG9s/byPFz6JCpuc+dksrmcJb0ocmvpUYGlo7bQWddtEciLXj2INcc16bewBK5uCxQQintUByFkJXk27UHlJ62iXdfdp9h2/V588HWzqDO8HbcQeMO8yHNVOh/ZRBqD9r3oXbPP9+/J98Yveffo7yV5VFuVaIqwJ2OubMpGCtJBe2cFGCzOnHOu5HNl4o7Szi8rn9tLqWb+2mXpu7TyEIKO3K2a6cm5veDOVeVwabr0ue+TmSujpZfLyy1QzhyKn8tmbv05IZe/oHwyP+1EEHKYvFhDx3LnW+7Ids6Zp+FkHXFm8bLEtZMrz0uYIyN65vWYJWiQ81Ejo4eBlZFdy0MVcXcSSw6r4j+vDLD0MB+BX2IZXL/Lz+XxKFOBQwM9jVTg4IGv+xpyZPdV+G83lpMUa582iqf9whDilt4JV+dFLQJzanfhZjBH74I3xdyvxeaQyWRBptRsk9v5CU6RKw1u1MKLy2Xh8pdMtrmCzVc+Lp5Lw5S5pakAuufKrW5KN//npWnxnISzFvo2xtfWIynbGczCytJQzZnC5+bi6FhTbm6fb/znPoubyVv8zK1z65eVl4VJhpvuMclf5TQriX75VKTJK8yOuVFgfp4u3NysBO3zKcs8T3Pzx9y2d3nZQ7nMy+Xn4iitfrhBUf/2GMGagxZa2EFQreCX3ljCktWaGdAHLHW+bA0Wrjf1V6CAQ2FRHUqIE3RCD80HEvznqzchnaxhIp5GPa4DQQcdv4HUq9i75jy9Hsem3aSIHGkI8xVB5m9BmhKiNsv9DJpacsowx7zuYivsKJP5uede6Kbic+n25TEH+eXp+Eh0I65vvJRbNAplKubOLbxeOi5NHRkZZejPx4gyc1s+duTKk8Pk9Z8JKkU583TcjvL5eciZ+VlN0a294JJyacsiFlw6mt5zCPhnBKS0TD4H/ezAESUbyNxzZM+j/vMU5G/DE/27HcuntjCHyVjb2N/jj67XYfcooZvQesIkB1VaiJPQT59vGcKJZ+/BP148hPpQFX6oqcAwi1mgwL4oiOoQQqJVxt4UL/hBbLyug8++dTu6E3W0qjHSdoI6BtAlmenVP50gQSl2RLUQGrnnyixXpkI+1dLzc4oyV8ZC3l3027N46DaS4l4klXtnitallStjuixyJq8fOvMwJ9sjgF45bTcHHedK345dSoQjAQPjmgVBp0uPYdr1xzPh+eU04jQZHToiVjFyGZtKM7fQK598nHdGrPyzfFUP2rMwPRn58c/cQn6cyRLu3pmso/l56LdHYsojJ3L9Otm5ctnv4jiQqbXe+c6He6ZvkTD2A+Nrvb/PG0DEgVPJ76KdeDjuaV382UUVrNlQgs++6um7Y1pNUaDAflAQ1aGErr7RFCDR2yq8Fh64KsHX3jWNqe16bxvVmkhCzyrRwtJXb+Hpa61Sar0m1iLi+RZS5iAyrrFpIkkaGN7fQZy889E0zlzapjhtt4h87pfJ20FPIedwsi5fEUwPvXzm3dvJNqF3jnkeSseRijBfNnMQuduizB2LqPSvn6w82jHQgpWH/rI8XN5a+OD2Rm4SU3T7k0zmod9MTjvn45DL5ffPcsIzQs4E873CXH7yU3kWwpXb0Od8vKCHif2gbSSqZfL2vBq3E8708Yd/l+KYU8dspXqczqJcKjGGlqcXKLA4CqI6hKCW6nQ6KIddjlB5lQchdt8a4zNvGsfUniYCv85RcsKLfyf8eJm9S8/Fk6LrNbNUZ669ejfypdSlIunORJ0i5t7tFqTRB2rx/Fj7OUWrHbc56yVLR45cXjC3/UhRu5Dczx0RWZzc0pLblc+djSNfHSsN7uSfTRka6JfHdejLS+nQqXLm03R9pzonp+TlyuWFnCR6lhOPcj8T1r8cIr+sBCT4nIhd0n2EZOfg/BWU562YeVg2s0goH+fnkLvpa9aS6sD5LIbFLKr+Nj5Q9KeXosHSlEimZXgcNKXBOE44ZS3ec1EXazcwHw2iugnCUA/5amWhi1egwGIoiOoQgl4fVOqIBkKkIS9uvWKJF3ljo4fLPzGFW77SQLxXy9k9xJr3t7cfOPQ3c+9+Df1NYy4mJ0XuXNLLtu9LQy6nJCXXF8f+JKufnvYxCdNGmXwficxLN3NaGV2kOT/B3Yfp5TGnvOelkRfYbXmZXPn6y9uTdWm68PzY7W1n8eU2GYrM+csvT8N+8zBXbjnz8uqelgUxTNWeu/vju3zzuC6eK7M7dv9O3sHVo+T6fZ3iZwwFzAtx2N+0X3/dPBIoHcVZmJ7nVTmYaqIbBFi5IcWLfz3EK19fweASPQQ9hVDfAkvbLJniVTTmKlBgvyiI6hCCbtLrW7mBLmy60lQ3qD10eJEnjQiTd6X4/kWzuOOSCMlkDL/mlMdCJZJbDQZNU+VdIBPrV27mprO/mzh337TaXBiVFn9NkWZe85S4nHTkfjnmxc/cWqHmIii8z82dZNx9IvOy/OxukKXbS8My5ebiZPG19eWfp6048rYFJaoTi2gimbyL4+ouS0sism542J9unr/5ZccS8zNy1lBDz0rlyC0/JyuX6paOjASE+YtGskzVrvLuI317Slw7S01gWF/cRxv5Pap8E7SPvBhLVnXxotcM4AWvDrDqyC6CSgslr04Btp4nZmJtmmWlB341/VegwOIoiOoQhi07ZvPpNT4RWzENaXFRAey+p4vrv7EX93+ri8mdHUSTAcK4TGWnDwbqa69DjOcUWg71Auk9ped6RK4kpeScopunvLktXIkmWJRF/CU7X9m6hOaTWuYg3Jv0erC8zZErdR67fzuKszLOg/JMeirbyetIftlCE+aZh2uv9Wfmnisf65deOSn3w157lLn74c4zS6dPIs72C2HTuBn65edbTo8tnGXTQ14OLY6x+5pWmp6MQt1RiTKpfVRTK0/rwxFWrS3j2S8v4YILS1h9eAedtoiIW6nJWi/bwEkEV6DAI0VBVIcwcqJK9FnbbhmtWO+DixEGVNtpF+3ZGqZ2tTCzO0FrEmg0RBZSpFRDdCiuWl/P3dix3hhufu5YsF/P2RH0zTzczh74XQgLX0wJMYDiyk9ut5dkXxr0szwMTKPPosjRf9Qf5lbIPRx6eTosIs9we9muoV9eZdz3XN29uH3RX5Z5ZcweaF2I/jHDfPlF6vdRgvIx4tkni17+CjJCMWLhWdEtktFzV45sKOFHNm03MBRgaMzH0hUelq70Uak1mActflr9YcitpE+L6Au+lSzuf9deBQr0UBDVIYycqPTZjW4c0q1XLQHthCRFE0tTg/qMfJfHHs0CfVPIDzwkbRIW49qWpEZUmlbUS0+Vnr2AldxkpMEEu+n8GwjWZaTj9qtIF/G3Kan+ruaIwJfyXrQHLp52nmWv1+aO/cnPT/zhurutYpQCpYidewalvJhaNS5fJL28Xhbm5VGpLwbZKznmxeif0nu0obIt1n5sJ3kbmbBt/IAbj30/MXKxt5qTtPQKL7353SdLWflZz2FYQlCidRUmqFu7Up5dp+s3KVtGJfRZxznJPYbnVuCnDgVRHcLIiUpTSklMBZLokxWxfUJCn4eQItUbuzVkFxl1IoUpUp1eIidtSod7uykkAhOBSF5pc7N8ODKWSwdz0Ih8nkcGKb9FFOCisgJTWVScBRAWU6aLYAEf9WERhWhdft8IKofOaiFYO9z2ldcrfxYr3vwpsr54tHoXR3aui9bb4wcRSH4+4hlxiY61D7k3ggl4zMqWn0grDRoolRyB6T5TIDKjBR7oXiotKSM0RrJ0We8hiasgqgIHioKoDmHkREVbCPqcQ0qysnsGdCeJll2UjICShApF92qMlKh0uyK0PL5egkp1yi1JGJfpWZrsFTYdqL/sG0r0yfY/KTIt2If9p5iHLIiTa9IF2B9RLUY8lnYmL6WZgxfDoumY1+LZLor9liVb6LAQC9PPie6xvDL7z7sf8jbCotXk3G4LZUnRYeRl04AK9+xTHfY5GhEX42saMCxF8LsV+un1XvrgJQmMcuqpIjKXTkFUBR45CqI6hOGIhs3X5kHJ7TrOgHJko8/ocmyrt0bE2UvfPAa2E1pbJCG76c8w5xYlicS4zU37MdjMncXfcOFrlcECOKtkX2h6aDELzFJYLMJCS4jKTbL7uy+0fyxODiKThcpaZSef74v9Mo/V0r4g+S+WzH6k552/K5KL/VhfmnNl7MtTe7lEPCpYTkiBJ8uon6i4l6B1jQRlMpbIR1XlBylKgWQCIzJNJcPvoFwmi6UFURU4cBREdYhCzZZv7tMQclNlcLPPRGREZC84tbDsA366X5XtnVUlS4tb1gu0dy8HzY9FMQWeLNC03hxl0SFScRv9M3LKScoWUwQiMeeWjPaBCI1klcvk4Yqn9F3aLt0CBR4JCqI6RNFPVFQPGel0SVSOdBw5+UgSRzoK1yt39FZwzUCZH8nKiEhMlMVzabo8BDkP3IopcKiCxtIcnNEjQuGvkZOzrnJCMnIS+WgvMjJCcseOqBw5iahyd0FUBX4SFER1iCInKYHcY2SjQ/uIXubWjIsRGA+cX29vBJVZW4LJ04+/ZmHlfja8diIFnkwwUtKmqToRi+sMcotwPCMnRz4unIRk7szPT7nXIgsNo3J/uk2WP5lfgQKPBAVRHcKY+5wEFYhN9YmUzD+3jujOp/h4IE6yBRJ5WEZaIiL+ZwSVhxdK5MmN3jL1OT7hXkvSe1OAGXHxR+QkiKx0DLtH5eI7i8oRnIhKKEiqwIGgIKpDGGo62+h2pCNCImkZ0chT/o6gLJx/mvpz03yOwASTzfbWHSzc+RV4soLDHyOfnKjc3m3ZFKBZSyKpXlg+zYe5qT9ujO1IqyCqAj8ZCqI6hJE3nXvThPbiJpJM5tZsjfnNhYvEdM9KMlncbC+Yvx3yh+452LRPgScFrA+wvdn8RkbWDdwUoMDQOYvKEY9knFwwR2BKxk39ya2FgU7W7S2d3FGgwCNAQVSHMPKm014uHdq9J5ESj/OpPUdAIiu3733HiFsm447dvsCTGW75+EKwVzkSsjARkiObuT2tK3fs9qHjtWy6z/UryRbL0gv8JCiI6hBGP8HIpUO3OcsoccHmzqcGzbKitIvr5PSTk1mBJzv2JSnBWUOuzzhykm/mJvc4Esr98ylAbfkCCudfEFWBnwQFUR3C6G+6nHg0kye3WVbmn205UWWycusgj2e7AgUeBkY2Ih1zy5FZUVnY3JQgj3NiU7i7L5VbXHZQoMABAPj/ARR08aB7GriHAAAAAElFTkSuQmCC;" vertex="1" parent="1">
          <mxGeometry x="300" y="210" width="106" height="96.55" as="geometry" />
        </mxCell>
        <mxCell id="qCqPiDa-gBpwzuSDS2H7-23" value="" style="shape=image;verticalLabelPosition=bottom;labelBackgroundColor=default;verticalAlign=top;aspect=fixed;imageAspect=0;image=https://o.remove.bg/downloads/56ff76df-cbbc-4baa-ab75-29125c1036af/image-removebg-preview.png;" vertex="1" parent="1">
          <mxGeometry x="55" y="150" width="70" height="75.38" as="geometry" />
        </mxCell>
        <mxCell id="qCqPiDa-gBpwzuSDS2H7-24" value="Success/Unsuccess" style="edgeStyle=orthogonalEdgeStyle;fontSize=12;html=1;endArrow=blockThin;endFill=1;rounded=0;strokeWidth=2;endSize=4;startSize=4;dashed=0;strokeColor=#4284F3;exitX=0.5;exitY=1;exitDx=0;exitDy=0;entryX=0.5;entryY=0;entryDx=0;entryDy=0;" edge="1" parent="1" source="qCqPiDa-gBpwzuSDS2H7-23" target="qCqPiDa-gBpwzuSDS2H7-2">
          <mxGeometry width="100" relative="1" as="geometry">
            <mxPoint x="300" y="340" as="sourcePoint" />
            <mxPoint x="400" y="340" as="targetPoint" />
          </mxGeometry>
        </mxCell>
        <mxCell id="qCqPiDa-gBpwzuSDS2H7-25" value="" style="edgeStyle=orthogonalEdgeStyle;fontSize=12;html=1;endArrow=blockThin;endFill=1;rounded=0;strokeWidth=2;endSize=4;startSize=4;dashed=0;strokeColor=#4284F3;exitX=1;exitY=0.5;exitDx=0;exitDy=0;entryX=0.01;entryY=0.462;entryDx=0;entryDy=0;entryPerimeter=0;" edge="1" parent="1" source="qCqPiDa-gBpwzuSDS2H7-19" target="qCqPiDa-gBpwzuSDS2H7-28">
          <mxGeometry width="100" relative="1" as="geometry">
            <mxPoint x="300" y="340" as="sourcePoint" />
            <mxPoint x="400" y="340" as="targetPoint" />
          </mxGeometry>
        </mxCell>
        <mxCell id="qCqPiDa-gBpwzuSDS2H7-88" value="Username&lt;br&gt;Pass" style="edgeLabel;html=1;align=center;verticalAlign=middle;resizable=0;points=[];fontSize=10;" vertex="1" connectable="0" parent="qCqPiDa-gBpwzuSDS2H7-25">
          <mxGeometry x="-0.2998" y="1" relative="1" as="geometry">
            <mxPoint as="offset" />
          </mxGeometry>
        </mxCell>
        <mxCell id="qCqPiDa-gBpwzuSDS2H7-26" value="Username/Pass" style="edgeStyle=orthogonalEdgeStyle;fontSize=12;html=1;endArrow=blockThin;endFill=1;rounded=0;strokeWidth=2;endSize=4;startSize=4;dashed=0;strokeColor=#4284F3;exitX=1;exitY=0.25;exitDx=0;exitDy=0;entryX=0;entryY=0.5;entryDx=0;entryDy=0;" edge="1" parent="1" source="qCqPiDa-gBpwzuSDS2H7-2" target="qCqPiDa-gBpwzuSDS2H7-20">
          <mxGeometry width="100" relative="1" as="geometry">
            <mxPoint x="300" y="340" as="sourcePoint" />
            <mxPoint x="400" y="340" as="targetPoint" />
          </mxGeometry>
        </mxCell>
        <mxCell id="qCqPiDa-gBpwzuSDS2H7-27" value="Invalid username/password" style="edgeStyle=orthogonalEdgeStyle;fontSize=12;html=1;endArrow=blockThin;endFill=1;rounded=0;strokeWidth=2;endSize=4;startSize=4;strokeColor=#EA4335;dashed=0;exitX=0.5;exitY=0;exitDx=0;exitDy=0;entryX=1;entryY=0.5;entryDx=0;entryDy=0;" edge="1" parent="1" source="qCqPiDa-gBpwzuSDS2H7-19" target="qCqPiDa-gBpwzuSDS2H7-23">
          <mxGeometry width="100" relative="1" as="geometry">
            <mxPoint x="530" y="250" as="sourcePoint" />
            <mxPoint x="630" y="250" as="targetPoint" />
          </mxGeometry>
        </mxCell>
        <mxCell id="qCqPiDa-gBpwzuSDS2H7-28" value="&lt;b&gt;Password check&lt;br&gt;( &amp;gt;8 letters&lt;br&gt;, uppercase, &lt;br&gt;special character&lt;br&gt;, number)&lt;/b&gt;" style="verticalLabelPosition=middle;verticalAlign=middle;html=1;shape=mxgraph.basic.rect;fillColor2=none;strokeWidth=1;size=17.33;indent=5;fontSize=10;labelPosition=center;align=center;" vertex="1" parent="1">
          <mxGeometry x="660" y="220" width="140" height="70" as="geometry" />
        </mxCell>
        <mxCell id="qCqPiDa-gBpwzuSDS2H7-29" value="Weak password" style="edgeStyle=orthogonalEdgeStyle;fontSize=12;html=1;endArrow=blockThin;endFill=1;rounded=0;strokeWidth=2;endSize=4;startSize=4;strokeColor=#EA4335;dashed=0;exitX=0.438;exitY=0.014;exitDx=0;exitDy=0;exitPerimeter=0;entryX=1;entryY=0.25;entryDx=0;entryDy=0;" edge="1" parent="1" source="qCqPiDa-gBpwzuSDS2H7-28" target="qCqPiDa-gBpwzuSDS2H7-23">
          <mxGeometry width="100" relative="1" as="geometry">
            <mxPoint x="430" y="280" as="sourcePoint" />
            <mxPoint x="530" y="280" as="targetPoint" />
          </mxGeometry>
        </mxCell>
        <mxCell id="qCqPiDa-gBpwzuSDS2H7-35" value="&lt;b&gt;App server&lt;/b&gt;" style="rounded=0;whiteSpace=wrap;html=1;fontSize=24;labelPosition=center;verticalLabelPosition=bottom;align=center;verticalAlign=top;" vertex="1" parent="1">
          <mxGeometry x="1060" y="70" width="380" height="520" as="geometry" />
        </mxCell>
        <mxCell id="qCqPiDa-gBpwzuSDS2H7-37" value="Get Log" style="edgeStyle=orthogonalEdgeStyle;fontSize=12;html=1;endArrow=blockThin;endFill=1;rounded=0;strokeWidth=2;endSize=4;startSize=4;dashed=0;strokeColor=#9E9E9E;exitX=0.75;exitY=0;exitDx=0;exitDy=0;entryX=0;entryY=0.5;entryDx=0;entryDy=0;" edge="1" parent="1" source="qCqPiDa-gBpwzuSDS2H7-19" target="qCqPiDa-gBpwzuSDS2H7-18">
          <mxGeometry width="100" relative="1" as="geometry">
            <mxPoint x="800" y="170" as="sourcePoint" />
            <mxPoint x="900" y="170" as="targetPoint" />
            <Array as="points">
              <mxPoint x="565" y="30" />
              <mxPoint x="1520" y="30" />
              <mxPoint x="1520" y="170" />
              <mxPoint x="1600" y="170" />
            </Array>
          </mxGeometry>
        </mxCell>
        <mxCell id="qCqPiDa-gBpwzuSDS2H7-40" value="&lt;b&gt;Salt + Hash password&lt;br&gt;(SHA254)&lt;br&gt;&lt;/b&gt;" style="rounded=0;whiteSpace=wrap;html=1;fontSize=10;" vertex="1" parent="1">
          <mxGeometry x="1310" y="165.38" width="110" height="60" as="geometry" />
        </mxCell>
        <mxCell id="qCqPiDa-gBpwzuSDS2H7-41" value="Verify gmail" style="edgeStyle=orthogonalEdgeStyle;fontSize=12;html=1;endArrow=blockThin;endFill=1;rounded=0;strokeWidth=2;endSize=4;startSize=4;dashed=0;strokeColor=#4284F3;exitX=1;exitY=0.5;exitDx=0;exitDy=0;entryX=-0.019;entryY=0.469;entryDx=0;entryDy=0;entryPerimeter=0;" edge="1" parent="1" source="qCqPiDa-gBpwzuSDS2H7-54" target="qCqPiDa-gBpwzuSDS2H7-57">
          <mxGeometry width="100" relative="1" as="geometry">
            <mxPoint x="1000" y="280" as="sourcePoint" />
            <mxPoint x="1100" y="280" as="targetPoint" />
            <Array as="points">
              <mxPoint x="970" y="383" />
              <mxPoint x="970" y="198" />
              <mxPoint x="1060" y="198" />
            </Array>
          </mxGeometry>
        </mxCell>
        <mxCell id="qCqPiDa-gBpwzuSDS2H7-42" value="Create SQL query" style="rounded=0;whiteSpace=wrap;html=1;fontSize=10;fontStyle=1" vertex="1" parent="1">
          <mxGeometry x="1200" y="300" width="120" height="60" as="geometry" />
        </mxCell>
        <mxCell id="qCqPiDa-gBpwzuSDS2H7-43" value="XML/JMS" style="edgeStyle=orthogonalEdgeStyle;fontSize=12;html=1;endArrow=blockThin;endFill=1;rounded=0;strokeWidth=2;endSize=4;startSize=4;dashed=0;strokeColor=#4284F3;exitX=0.638;exitY=1.009;exitDx=0;exitDy=0;exitPerimeter=0;" edge="1" parent="1" source="qCqPiDa-gBpwzuSDS2H7-40" target="qCqPiDa-gBpwzuSDS2H7-42">
          <mxGeometry width="100" relative="1" as="geometry">
            <mxPoint x="940" y="300" as="sourcePoint" />
            <mxPoint x="1040" y="300" as="targetPoint" />
          </mxGeometry>
        </mxCell>
        <mxCell id="qCqPiDa-gBpwzuSDS2H7-47" value="&lt;b&gt;Check valid query&lt;/b&gt;" style="rounded=0;whiteSpace=wrap;html=1;fontSize=10;" vertex="1" parent="1">
          <mxGeometry x="1460" y="387.11" width="110" height="60" as="geometry" />
        </mxCell>
        <mxCell id="qCqPiDa-gBpwzuSDS2H7-48" value="SQL query" style="edgeStyle=orthogonalEdgeStyle;fontSize=12;html=1;endArrow=blockThin;endFill=1;rounded=0;strokeWidth=2;endSize=4;startSize=4;dashed=0;strokeColor=#4284F3;exitX=1;exitY=0.5;exitDx=0;exitDy=0;entryX=0;entryY=0.5;entryDx=0;entryDy=0;" edge="1" parent="1" source="qCqPiDa-gBpwzuSDS2H7-42" target="qCqPiDa-gBpwzuSDS2H7-47">
          <mxGeometry width="100" relative="1" as="geometry">
            <mxPoint x="1390" y="380" as="sourcePoint" />
            <mxPoint x="1490" y="380" as="targetPoint" />
          </mxGeometry>
        </mxCell>
        <mxCell id="qCqPiDa-gBpwzuSDS2H7-50" value="SQL query" style="edgeStyle=orthogonalEdgeStyle;fontSize=12;html=1;endArrow=blockThin;endFill=1;rounded=0;strokeWidth=2;endSize=4;startSize=4;dashed=0;strokeColor=#4284F3;entryX=0.455;entryY=0;entryDx=0;entryDy=0;entryPerimeter=0;exitX=1;exitY=0.5;exitDx=0;exitDy=0;" edge="1" parent="1" source="qCqPiDa-gBpwzuSDS2H7-47" target="qCqPiDa-gBpwzuSDS2H7-5">
          <mxGeometry width="100" relative="1" as="geometry">
            <mxPoint x="1500" y="450" as="sourcePoint" />
            <mxPoint x="1600" y="450" as="targetPoint" />
          </mxGeometry>
        </mxCell>
        <mxCell id="qCqPiDa-gBpwzuSDS2H7-51" value="Sign up success" style="edgeStyle=orthogonalEdgeStyle;fontSize=12;html=1;endArrow=blockThin;endFill=1;rounded=0;strokeWidth=2;endSize=4;startSize=4;strokeColor=#34A853;dashed=0;exitX=0.636;exitY=0;exitDx=0;exitDy=0;exitPerimeter=0;entryX=0.5;entryY=0;entryDx=0;entryDy=0;" edge="1" parent="1" source="qCqPiDa-gBpwzuSDS2H7-5" target="qCqPiDa-gBpwzuSDS2H7-23">
          <mxGeometry width="100" relative="1" as="geometry">
            <mxPoint x="1640" y="327.11" as="sourcePoint" />
            <mxPoint x="120" y="150" as="targetPoint" />
            <Array as="points">
              <mxPoint x="1680" y="330" />
              <mxPoint x="1480" y="330" />
              <mxPoint x="1480" y="100" />
              <mxPoint x="90" y="100" />
            </Array>
          </mxGeometry>
        </mxCell>
        <mxCell id="qCqPiDa-gBpwzuSDS2H7-52" value="&lt;b&gt;Gmail&lt;/b&gt;" style="dashed=0;outlineConnect=0;html=1;align=center;labelPosition=center;verticalLabelPosition=bottom;verticalAlign=top;shape=mxgraph.weblogos.gmail;fontSize=10;" vertex="1" parent="1">
          <mxGeometry x="-10" y="480" width="70" height="50" as="geometry" />
        </mxCell>
        <mxCell id="qCqPiDa-gBpwzuSDS2H7-53" value="Check gmail" style="edgeStyle=orthogonalEdgeStyle;fontSize=12;html=1;endArrow=blockThin;endFill=1;rounded=0;strokeWidth=2;endSize=4;startSize=4;dashed=0;strokeColor=#4284F3;entryX=0;entryY=0.5;entryDx=0;entryDy=0;" edge="1" parent="1" source="qCqPiDa-gBpwzuSDS2H7-52" target="qCqPiDa-gBpwzuSDS2H7-2">
          <mxGeometry width="100" relative="1" as="geometry">
            <mxPoint x="60" y="520" as="sourcePoint" />
            <mxPoint x="590" y="550" as="targetPoint" />
            <Array as="points">
              <mxPoint x="20" y="510" />
              <mxPoint x="20" y="380" />
            </Array>
          </mxGeometry>
        </mxCell>
        <mxCell id="qCqPiDa-gBpwzuSDS2H7-54" value="&lt;b&gt;Retype password&lt;/b&gt;" style="rounded=0;whiteSpace=wrap;html=1;fontSize=10;" vertex="1" parent="1">
          <mxGeometry x="650" y="352.89" width="140" height="60" as="geometry" />
        </mxCell>
        <mxCell id="qCqPiDa-gBpwzuSDS2H7-55" value="Confirm" style="edgeStyle=orthogonalEdgeStyle;fontSize=12;html=1;endArrow=blockThin;endFill=1;rounded=0;strokeWidth=2;endSize=4;startSize=4;dashed=0;strokeColor=#4284F3;exitX=0.395;exitY=1.012;exitDx=0;exitDy=0;exitPerimeter=0;entryX=0.461;entryY=-0.02;entryDx=0;entryDy=0;entryPerimeter=0;" edge="1" parent="1" source="qCqPiDa-gBpwzuSDS2H7-28" target="qCqPiDa-gBpwzuSDS2H7-54">
          <mxGeometry width="100" relative="1" as="geometry">
            <mxPoint x="870" y="370" as="sourcePoint" />
            <mxPoint x="970" y="370" as="targetPoint" />
            <Array as="points">
              <mxPoint x="715" y="291" />
            </Array>
          </mxGeometry>
        </mxCell>
        <mxCell id="qCqPiDa-gBpwzuSDS2H7-56" value="Re-type" style="edgeStyle=orthogonalEdgeStyle;fontSize=12;html=1;endArrow=blockThin;endFill=1;rounded=0;strokeWidth=2;endSize=4;startSize=4;strokeColor=#EA4335;dashed=0;exitX=1;exitY=0.25;exitDx=0;exitDy=0;entryX=1.002;entryY=0.531;entryDx=0;entryDy=0;entryPerimeter=0;" edge="1" parent="1" source="qCqPiDa-gBpwzuSDS2H7-54" target="qCqPiDa-gBpwzuSDS2H7-28">
          <mxGeometry width="100" relative="1" as="geometry">
            <mxPoint x="820" y="350" as="sourcePoint" />
            <mxPoint x="920" y="350" as="targetPoint" />
            <Array as="points">
              <mxPoint x="790" y="370" />
              <mxPoint x="850" y="370" />
              <mxPoint x="850" y="257" />
            </Array>
          </mxGeometry>
        </mxCell>
        <mxCell id="qCqPiDa-gBpwzuSDS2H7-57" value="&lt;b&gt;Create Gmail &lt;br&gt;verify sign up&lt;/b&gt;" style="verticalLabelPosition=middle;verticalAlign=middle;html=1;shape=mxgraph.basic.rect;fillColor2=none;strokeWidth=1;size=20;indent=5;fontSize=10;labelPosition=center;align=center;" vertex="1" parent="1">
          <mxGeometry x="1080" y="170" width="120" height="60" as="geometry" />
        </mxCell>
        <mxCell id="qCqPiDa-gBpwzuSDS2H7-70" value="Send verify gmail" style="edgeStyle=orthogonalEdgeStyle;fontSize=12;html=1;endArrow=blockThin;endFill=1;rounded=0;strokeWidth=2;endSize=4;startSize=4;dashed=0;strokeColor=#4284F3;exitX=0.573;exitY=0.988;exitDx=0;exitDy=0;exitPerimeter=0;" edge="1" parent="1">
          <mxGeometry width="100" relative="1" as="geometry">
            <mxPoint x="1149.7599999999998" y="229.27999999999997" as="sourcePoint" />
            <mxPoint x="71" y="510" as="targetPoint" />
            <Array as="points">
              <mxPoint x="1150" y="690" />
              <mxPoint x="101" y="690" />
              <mxPoint x="101" y="510" />
            </Array>
          </mxGeometry>
        </mxCell>
        <mxCell id="qCqPiDa-gBpwzuSDS2H7-71" value="New user" style="edgeStyle=orthogonalEdgeStyle;fontSize=12;html=1;endArrow=blockThin;endFill=1;rounded=0;strokeWidth=2;endSize=4;startSize=4;dashed=0;strokeColor=#4284F3;exitX=1.034;exitY=0.519;exitDx=0;exitDy=0;exitPerimeter=0;entryX=-0.001;entryY=0.611;entryDx=0;entryDy=0;entryPerimeter=0;" edge="1" parent="1" source="qCqPiDa-gBpwzuSDS2H7-57" target="qCqPiDa-gBpwzuSDS2H7-40">
          <mxGeometry width="100" relative="1" as="geometry">
            <mxPoint x="890" y="470" as="sourcePoint" />
            <mxPoint x="990" y="470" as="targetPoint" />
          </mxGeometry>
        </mxCell>
        <mxCell id="qCqPiDa-gBpwzuSDS2H7-72" value="HTTPS POST" style="edgeStyle=orthogonalEdgeStyle;fontSize=12;html=1;endArrow=blockThin;endFill=1;rounded=0;strokeWidth=2;endSize=4;startSize=4;dashed=0;strokeColor=#4284F3;exitX=1;exitY=0.5;exitDx=0;exitDy=0;" edge="1" parent="1">
          <mxGeometry width="100" relative="1" as="geometry">
            <mxPoint x="419" y="258.275" as="sourcePoint" />
            <mxPoint x="533" y="230" as="targetPoint" />
            <Array as="points">
              <mxPoint x="419" y="260" />
              <mxPoint x="503" y="260" />
              <mxPoint x="503" y="230" />
            </Array>
          </mxGeometry>
        </mxCell>
        <mxCell id="qCqPiDa-gBpwzuSDS2H7-73" value="Google" style="shape=image;verticalLabelPosition=bottom;labelBackgroundColor=default;verticalAlign=top;aspect=fixed;imageAspect=0;image=https://upload.wikimedia.org/wikipedia/commons/thumb/5/53/Google_%22G%22_Logo.svg/1024px-Google_%22G%22_Logo.svg.png;fontStyle=1" vertex="1" parent="1">
          <mxGeometry x="170" y="475" width="60" height="60" as="geometry" />
        </mxCell>
        <mxCell id="qCqPiDa-gBpwzuSDS2H7-76" value="" style="edgeStyle=orthogonalEdgeStyle;fontSize=12;html=1;endArrow=blockThin;endFill=1;rounded=0;strokeWidth=2;endSize=4;startSize=4;dashed=0;strokeColor=#9E9E9E;" edge="1" parent="1">
          <mxGeometry width="100" relative="1" as="geometry">
            <mxPoint x="1520" y="380" as="sourcePoint" />
            <mxPoint x="1610" y="180" as="targetPoint" />
            <Array as="points">
              <mxPoint x="1520" y="270" />
              <mxPoint x="1520" y="180" />
            </Array>
          </mxGeometry>
        </mxCell>
        <mxCell id="qCqPiDa-gBpwzuSDS2H7-79" value="Sign up/Sign in &lt;br&gt;using Google account" style="edgeStyle=orthogonalEdgeStyle;fontSize=12;html=1;endArrow=blockThin;endFill=1;rounded=0;strokeWidth=2;endSize=4;startSize=4;dashed=0;strokeColor=#4284F3;" edge="1" parent="1">
          <mxGeometry x="0.2922" y="-10" width="100" relative="1" as="geometry">
            <mxPoint x="150" y="387" as="sourcePoint" />
            <mxPoint x="205" y="470" as="targetPoint" />
            <mxPoint as="offset" />
          </mxGeometry>
        </mxCell>
        <mxCell id="qCqPiDa-gBpwzuSDS2H7-81" value="" style="strokeColor=#dddddd;shadow=1;strokeWidth=1;rounded=1;absoluteArcSize=1;arcSize=2;fontSize=10;" vertex="1" parent="1">
          <mxGeometry x="360" y="480" width="120" height="50" as="geometry" />
        </mxCell>
        <mxCell id="qCqPiDa-gBpwzuSDS2H7-82" value="Firebase" style="sketch=0;dashed=0;connectable=0;html=1;fillColor=#5184F3;strokeColor=none;shape=mxgraph.gcp2.firebase;part=1;labelPosition=right;verticalLabelPosition=middle;align=left;verticalAlign=middle;spacingLeft=5;fontColor=#999999;fontSize=12;" vertex="1" parent="qCqPiDa-gBpwzuSDS2H7-81">
          <mxGeometry width="32.4" height="45" relative="1" as="geometry">
            <mxPoint x="5" y="7" as="offset" />
          </mxGeometry>
        </mxCell>
        <mxCell id="qCqPiDa-gBpwzuSDS2H7-83" value="" style="edgeStyle=orthogonalEdgeStyle;fontSize=12;html=1;endArrow=blockThin;endFill=1;rounded=0;strokeWidth=2;endSize=4;startSize=4;dashed=0;strokeColor=#4284F3;exitX=1;exitY=0.5;exitDx=0;exitDy=0;" edge="1" parent="1" source="qCqPiDa-gBpwzuSDS2H7-73">
          <mxGeometry width="100" relative="1" as="geometry">
            <mxPoint x="270" y="370" as="sourcePoint" />
            <mxPoint x="360" y="505" as="targetPoint" />
          </mxGeometry>
        </mxCell>
        <mxCell id="qCqPiDa-gBpwzuSDS2H7-85" value="Username/ Password in Hash" style="edgeStyle=orthogonalEdgeStyle;fontSize=12;html=1;endArrow=blockThin;endFill=1;rounded=0;strokeWidth=2;endSize=4;startSize=4;dashed=0;strokeColor=#4284F3;exitX=1;exitY=0.5;exitDx=0;exitDy=0;entryX=0.5;entryY=1;entryDx=0;entryDy=0;" edge="1" parent="1" source="qCqPiDa-gBpwzuSDS2H7-81" target="qCqPiDa-gBpwzuSDS2H7-42">
          <mxGeometry width="100" relative="1" as="geometry">
            <mxPoint x="520" y="500" as="sourcePoint" />
            <mxPoint x="620" y="500" as="targetPoint" />
            <Array as="points">
              <mxPoint x="1260" y="505" />
            </Array>
          </mxGeometry>
        </mxCell>
        <mxCell id="qCqPiDa-gBpwzuSDS2H7-86" value="Error" style="edgeStyle=orthogonalEdgeStyle;fontSize=12;html=1;endArrow=blockThin;endFill=1;rounded=0;strokeWidth=2;endSize=4;startSize=4;strokeColor=#EA4335;dashed=0;" edge="1" parent="1">
          <mxGeometry width="100" relative="1" as="geometry">
            <mxPoint x="430" y="480" as="sourcePoint" />
            <mxPoint x="130" y="200" as="targetPoint" />
            <Array as="points">
              <mxPoint x="430" y="200" />
            </Array>
          </mxGeometry>
        </mxCell>
        <mxCell id="qCqPiDa-gBpwzuSDS2H7-89" value="" style="edgeStyle=orthogonalEdgeStyle;fontSize=12;html=1;endArrow=blockThin;endFill=1;rounded=0;strokeWidth=2;endSize=4;startSize=4;dashed=0;strokeColor=#9E9E9E;exitX=0.75;exitY=0;exitDx=0;exitDy=0;" edge="1" parent="1" source="qCqPiDa-gBpwzuSDS2H7-81">
          <mxGeometry width="100" relative="1" as="geometry">
            <mxPoint x="810" y="440" as="sourcePoint" />
            <mxPoint x="560" y="30" as="targetPoint" />
            <Array as="points">
              <mxPoint x="450" y="30" />
            </Array>
          </mxGeometry>
        </mxCell>
      </root>
    </mxGraphModel>
  </diagram>
</mxfile>
